# MagicaVoxel @ Ephtracy

# group
o Base

# material
mtllib switch-1-Base.mtl
usemtl palette

# normals
vn -1 0 0
vn 1 0 0
vn 0 0 1
vn 0 0 -1
vn 0 -1 0
vn 0 1 0

# texcoords
vt 0.0175781 0.5
vt 0.392578 0.5
vt 0.814453 0.5

# verts
v -0.4 0 0.2
v -0.4 0 -0.2
v -0.4 0.1 0.2
v -0.4 0.1 -0.2
v -0.4 0.8 0.1
v -0.4 0.8 -0.1
v -0.4 1.1 0.1
v -0.4 1.1 -0.1
v -0.3 0 0.3
v -0.3 0 0.2
v -0.3 0 -0.2
v -0.3 0 -0.3
v -0.3 0.1 0.3
v -0.3 0.1 0.2
v -0.3 0.1 -0.2
v -0.3 0.1 -0.3
v -0.3 0.2 0.2
v -0.3 0.2 -0.2
v -0.3 0.3 0.2
v -0.3 0.3 -0.2
v -0.3 0.5 0.2
v -0.3 0.5 -0.2
v -0.3 0.7 0.1
v -0.3 0.7 -0.1
v -0.3 0.8 0.1
v -0.3 0.8 -0.1
v -0.2 0 0.4
v -0.2 0 0.3
v -0.2 0 -0.3
v -0.2 0 -0.4
v -0.2 0.1 0.4
v -0.2 0.1 0.3
v -0.2 0.1 0.2
v -0.2 0.1 -0.2
v -0.2 0.1 -0.3
v -0.2 0.1 -0.4
v -0.2 0.2 0.3
v -0.2 0.2 0.2
v -0.2 0.2 -0.2
v -0.2 0.2 -0.3
v -0.2 0.3 0.3
v -0.2 0.3 0.2
v -0.2 0.3 -0.2
v -0.2 0.3 -0.3
v -0.2 0.5 0.3
v -0.2 0.5 0.2
v -0.2 0.5 -0.2
v -0.2 0.5 -0.3
v -0.2 0.6 0.2
v -0.2 0.6 0.1
v -0.2 0.6 -0.1
v -0.2 0.6 -0.2
v -0.2 0.7 0.1
v -0.2 0.7 -0.1
v -0.1 0.6 0.2
v -0.1 0.6 0.1
v -0.1 0.6 -0.1
v -0.1 0.6 -0.2
v -0.1 0.7 0.3
v -0.1 0.7 0.2
v -0.1 0.7 0.1
v -0.1 0.7 -0.1
v -0.1 0.7 -0.2
v -0.1 0.7 -0.3
v -0.1 0.8 0.4
v -0.1 0.8 0.3
v -0.1 0.8 0.2
v -0.1 0.8 0.1
v -0.1 0.8 -0.1
v -0.1 0.8 -0.2
v -0.1 0.8 -0.3
v -0.1 0.8 -0.4
v -0.1 0.9 0.3
v -0.1 0.9 0.2
v -0.1 0.9 -0.2
v -0.1 0.9 -0.3
v -0.1 1.1 0.4
v -0.1 1.1 0.3
v -0.1 1.1 -0.3
v -0.1 1.1 -0.4
v 0.2 0.8 0.1
v 0.2 0.8 -0.1
v 0.2 0.9 0.1
v 0.2 0.9 -0.1
v 0.3 0.9 0.1
v 0.3 0.9 -0.1
v 0.3 1.1 0.1
v 0.3 1.1 -0.1
v -0.3 0.9 0.1
v -0.3 0.9 -0.1
v -0.3 1.1 0.1
v -0.3 1.1 -0.1
v -0.2 0.8 0.1
v -0.2 0.8 -0.1
v -0.2 0.9 0.1
v -0.2 0.9 -0.1
v 0.1 0.6 0.2
v 0.1 0.6 0.1
v 0.1 0.6 -0.1
v 0.1 0.6 -0.2
v 0.1 0.7 0.3
v 0.1 0.7 0.2
v 0.1 0.7 0.1
v 0.1 0.7 -0.1
v 0.1 0.7 -0.2
v 0.1 0.7 -0.3
v 0.1 0.8 0.4
v 0.1 0.8 0.3
v 0.1 0.8 0.2
v 0.1 0.8 0.1
v 0.1 0.8 -0.1
v 0.1 0.8 -0.2
v 0.1 0.8 -0.3
v 0.1 0.8 -0.4
v 0.1 0.9 0.3
v 0.1 0.9 0.2
v 0.1 0.9 -0.2
v 0.1 0.9 -0.3
v 0.1 1.1 0.4
v 0.1 1.1 0.3
v 0.1 1.1 -0.3
v 0.1 1.1 -0.4
v 0.2 0 0.4
v 0.2 0 0.3
v 0.2 0 -0.3
v 0.2 0 -0.4
v 0.2 0.1 0.4
v 0.2 0.1 0.3
v 0.2 0.1 0.2
v 0.2 0.1 -0.2
v 0.2 0.1 -0.3
v 0.2 0.1 -0.4
v 0.2 0.2 0.3
v 0.2 0.2 0.2
v 0.2 0.2 -0.2
v 0.2 0.2 -0.3
v 0.2 0.3 0.3
v 0.2 0.3 0.2
v 0.2 0.3 -0.2
v 0.2 0.3 -0.3
v 0.2 0.5 0.3
v 0.2 0.5 0.2
v 0.2 0.5 -0.2
v 0.2 0.5 -0.3
v 0.2 0.6 0.2
v 0.2 0.6 0.1
v 0.2 0.6 -0.1
v 0.2 0.6 -0.2
v 0.2 0.7 0.1
v 0.2 0.7 -0.1
v 0.3 0 0.3
v 0.3 0 0.2
v 0.3 0 -0.2
v 0.3 0 -0.3
v 0.3 0.1 0.3
v 0.3 0.1 0.2
v 0.3 0.1 -0.2
v 0.3 0.1 -0.3
v 0.3 0.2 0.2
v 0.3 0.2 -0.2
v 0.3 0.3 0.2
v 0.3 0.3 -0.2
v 0.3 0.5 0.2
v 0.3 0.5 -0.2
v 0.3 0.7 0.1
v 0.3 0.7 -0.1
v 0.3 0.8 0.1
v 0.3 0.8 -0.1
v 0.4 0 0.2
v 0.4 0 -0.2
v 0.4 0.1 0.2
v 0.4 0.1 -0.2
v 0.4 0.8 0.1
v 0.4 0.8 -0.1
v 0.4 1.1 0.1
v 0.4 1.1 -0.1
v -0.2 0 0.4
v -0.2 0.1 0.4
v -0.1 0.8 0.4
v -0.1 1.1 0.4
v 0.1 0.8 0.4
v 0.1 1.1 0.4
v 0.2 0 0.4
v 0.2 0.1 0.4
v -0.3 0 0.3
v -0.3 0.1 0.3
v -0.2 0 0.3
v -0.2 0.1 0.3
v -0.2 0.2 0.3
v -0.2 0.3 0.3
v -0.2 0.5 0.3
v -0.1 0.7 0.3
v -0.1 0.8 0.3
v 0.1 0.7 0.3
v 0.1 0.8 0.3
v 0.2 0 0.3
v 0.2 0.1 0.3
v 0.2 0.2 0.3
v 0.2 0.3 0.3
v 0.2 0.5 0.3
v 0.3 0 0.3
v 0.3 0.1 0.3
v -0.4 0 0.2
v -0.4 0.1 0.2
v -0.3 0 0.2
v -0.3 0.1 0.2
v -0.3 0.2 0.2
v -0.3 0.3 0.2
v -0.3 0.5 0.2
v -0.2 0.1 0.2
v -0.2 0.2 0.2
v -0.2 0.3 0.2
v -0.2 0.5 0.2
v -0.2 0.6 0.2
v -0.1 0.6 0.2
v -0.1 0.7 0.2
v 0.1 0.6 0.2
v 0.1 0.7 0.2
v 0.2 0.1 0.2
v 0.2 0.2 0.2
v 0.2 0.3 0.2
v 0.2 0.5 0.2
v 0.2 0.6 0.2
v 0.3 0 0.2
v 0.3 0.1 0.2
v 0.3 0.2 0.2
v 0.3 0.3 0.2
v 0.3 0.5 0.2
v 0.4 0 0.2
v 0.4 0.1 0.2
v -0.4 0.8 0.1
v -0.4 1.1 0.1
v -0.3 0.7 0.1
v -0.3 0.8 0.1
v -0.3 0.9 0.1
v -0.3 1.1 0.1
v -0.2 0.6 0.1
v -0.2 0.7 0.1
v -0.2 0.8 0.1
v -0.2 0.9 0.1
v -0.1 0.6 0.1
v -0.1 0.7 0.1
v -0.1 0.8 0.1
v 0.1 0.6 0.1
v 0.1 0.7 0.1
v 0.1 0.8 0.1
v 0.2 0.6 0.1
v 0.2 0.7 0.1
v 0.2 0.8 0.1
v 0.2 0.9 0.1
v 0.3 0.7 0.1
v 0.3 0.8 0.1
v 0.3 0.9 0.1
v 0.3 1.1 0.1
v 0.4 0.8 0.1
v 0.4 1.1 0.1
v -0.1 0.8 -0.2
v -0.1 0.9 -0.2
v 0.1 0.8 -0.2
v 0.1 0.9 -0.2
v -0.1 0.9 -0.3
v -0.1 1.1 -0.3
v 0.1 0.9 -0.3
v 0.1 1.1 -0.3
v -0.1 0.9 0.3
v -0.1 1.1 0.3
v 0.1 0.9 0.3
v 0.1 1.1 0.3
v -0.1 0.8 0.2
v -0.1 0.9 0.2
v 0.1 0.8 0.2
v 0.1 0.9 0.2
v -0.4 0.8 -0.1
v -0.4 1.1 -0.1
v -0.3 0.7 -0.1
v -0.3 0.8 -0.1
v -0.3 0.9 -0.1
v -0.3 1.1 -0.1
v -0.2 0.6 -0.1
v -0.2 0.7 -0.1
v -0.2 0.8 -0.1
v -0.2 0.9 -0.1
v -0.1 0.6 -0.1
v -0.1 0.7 -0.1
v -0.1 0.8 -0.1
v 0.1 0.6 -0.1
v 0.1 0.7 -0.1
v 0.1 0.8 -0.1
v 0.2 0.6 -0.1
v 0.2 0.7 -0.1
v 0.2 0.8 -0.1
v 0.2 0.9 -0.1
v 0.3 0.7 -0.1
v 0.3 0.8 -0.1
v 0.3 0.9 -0.1
v 0.3 1.1 -0.1
v 0.4 0.8 -0.1
v 0.4 1.1 -0.1
v -0.4 0 -0.2
v -0.4 0.1 -0.2
v -0.3 0 -0.2
v -0.3 0.1 -0.2
v -0.3 0.2 -0.2
v -0.3 0.3 -0.2
v -0.3 0.5 -0.2
v -0.2 0.1 -0.2
v -0.2 0.2 -0.2
v -0.2 0.3 -0.2
v -0.2 0.5 -0.2
v -0.2 0.6 -0.2
v -0.1 0.6 -0.2
v -0.1 0.7 -0.2
v 0.1 0.6 -0.2
v 0.1 0.7 -0.2
v 0.2 0.1 -0.2
v 0.2 0.2 -0.2
v 0.2 0.3 -0.2
v 0.2 0.5 -0.2
v 0.2 0.6 -0.2
v 0.3 0 -0.2
v 0.3 0.1 -0.2
v 0.3 0.2 -0.2
v 0.3 0.3 -0.2
v 0.3 0.5 -0.2
v 0.4 0 -0.2
v 0.4 0.1 -0.2
v -0.3 0 -0.3
v -0.3 0.1 -0.3
v -0.2 0 -0.3
v -0.2 0.1 -0.3
v -0.2 0.2 -0.3
v -0.2 0.3 -0.3
v -0.2 0.5 -0.3
v -0.1 0.7 -0.3
v -0.1 0.8 -0.3
v 0.1 0.7 -0.3
v 0.1 0.8 -0.3
v 0.2 0 -0.3
v 0.2 0.1 -0.3
v 0.2 0.2 -0.3
v 0.2 0.3 -0.3
v 0.2 0.5 -0.3
v 0.3 0 -0.3
v 0.3 0.1 -0.3
v -0.2 0 -0.4
v -0.2 0.1 -0.4
v -0.1 0.8 -0.4
v -0.1 1.1 -0.4
v 0.1 0.8 -0.4
v 0.1 1.1 -0.4
v 0.2 0 -0.4
v 0.2 0.1 -0.4
v -0.2 0 0.4
v 0.2 0 0.4
v -0.3 0 0.3
v -0.2 0 0.3
v 0.2 0 0.3
v 0.3 0 0.3
v -0.4 0 0.2
v -0.3 0 0.2
v -0.2 0 0.2
v 0.2 0 0.2
v 0.3 0 0.2
v 0.4 0 0.2
v -0.4 0 -0.2
v -0.3 0 -0.2
v -0.2 0 -0.2
v 0.2 0 -0.2
v 0.3 0 -0.2
v 0.4 0 -0.2
v -0.3 0 -0.3
v -0.2 0 -0.3
v 0.2 0 -0.3
v 0.3 0 -0.3
v -0.2 0 -0.4
v 0.2 0 -0.4
v -0.1 0.7 0.3
v 0.1 0.7 0.3
v -0.1 0.7 0.2
v 0.1 0.7 0.2
v -0.3 0.7 0.1
v -0.2 0.7 0.1
v 0.2 0.7 0.1
v 0.3 0.7 0.1
v -0.3 0.7 -0.1
v -0.2 0.7 -0.1
v 0.2 0.7 -0.1
v 0.3 0.7 -0.1
v -0.1 0.7 -0.2
v 0.1 0.7 -0.2
v -0.1 0.7 -0.3
v 0.1 0.7 -0.3
v -0.1 0.8 0.4
v 0.1 0.8 0.4
v -0.1 0.8 0.3
v 0.1 0.8 0.3
v -0.4 0.8 0.1
v -0.3 0.8 0.1
v 0.3 0.8 0.1
v 0.4 0.8 0.1
v -0.4 0.8 -0.1
v -0.3 0.8 -0.1
v 0.3 0.8 -0.1
v 0.4 0.8 -0.1
v -0.1 0.8 -0.3
v 0.1 0.8 -0.3
v -0.1 0.8 -0.4
v 0.1 0.8 -0.4
v -0.2 0.1 0.4
v 0.2 0.1 0.4
v -0.3 0.1 0.3
v -0.2 0.1 0.3
v 0.2 0.1 0.3
v 0.3 0.1 0.3
v -0.4 0.1 0.2
v -0.3 0.1 0.2
v -0.2 0.1 0.2
v 0.2 0.1 0.2
v 0.3 0.1 0.2
v 0.4 0.1 0.2
v -0.4 0.1 -0.2
v -0.3 0.1 -0.2
v -0.2 0.1 -0.2
v 0.2 0.1 -0.2
v 0.3 0.1 -0.2
v 0.4 0.1 -0.2
v -0.3 0.1 -0.3
v -0.2 0.1 -0.3
v 0.2 0.1 -0.3
v 0.3 0.1 -0.3
v -0.2 0.1 -0.4
v 0.2 0.1 -0.4
v -0.2 0.5 0.3
v 0.2 0.5 0.3
v -0.3 0.5 0.2
v -0.2 0.5 0.2
v 0.2 0.5 0.2
v 0.3 0.5 0.2
v -0.3 0.5 -0.2
v -0.2 0.5 -0.2
v 0.2 0.5 -0.2
v 0.3 0.5 -0.2
v -0.2 0.5 -0.3
v 0.2 0.5 -0.3
v -0.2 0.6 0.2
v -0.1 0.6 0.2
v 0.1 0.6 0.2
v 0.2 0.6 0.2
v -0.2 0.6 0.1
v -0.1 0.6 0.1
v 0.1 0.6 0.1
v 0.2 0.6 0.1
v -0.2 0.6 -0.1
v -0.1 0.6 -0.1
v 0.1 0.6 -0.1
v 0.2 0.6 -0.1
v -0.2 0.6 -0.2
v -0.1 0.6 -0.2
v 0.1 0.6 -0.2
v 0.2 0.6 -0.2
v -0.1 0.8 0.2
v 0.1 0.8 0.2
v -0.2 0.8 0.1
v -0.1 0.8 0.1
v 0.1 0.8 0.1
v 0.2 0.8 0.1
v -0.2 0.8 -0.1
v -0.1 0.8 -0.1
v 0.1 0.8 -0.1
v 0.2 0.8 -0.1
v -0.1 0.8 -0.2
v 0.1 0.8 -0.2
v -0.1 0.9 0.3
v 0.1 0.9 0.3
v -0.1 0.9 0.2
v 0.1 0.9 0.2
v -0.3 0.9 0.1
v -0.2 0.9 0.1
v 0.2 0.9 0.1
v 0.3 0.9 0.1
v -0.3 0.9 -0.1
v -0.2 0.9 -0.1
v 0.2 0.9 -0.1
v 0.3 0.9 -0.1
v -0.1 0.9 -0.2
v 0.1 0.9 -0.2
v -0.1 0.9 -0.3
v 0.1 0.9 -0.3
v -0.1 1.1 0.4
v 0.1 1.1 0.4
v -0.1 1.1 0.3
v 0.1 1.1 0.3
v -0.4 1.1 0.1
v -0.3 1.1 0.1
v 0.3 1.1 0.1
v 0.4 1.1 0.1
v -0.4 1.1 -0.1
v -0.3 1.1 -0.1
v 0.3 1.1 -0.1
v 0.4 1.1 -0.1
v -0.1 1.1 -0.3
v 0.1 1.1 -0.3
v -0.1 1.1 -0.4
v 0.1 1.1 -0.4

# faces
f 3/2/1 2/2/1 1/2/1
f 4/2/1 2/2/1 3/2/1
f 7/1/1 6/1/1 5/1/1
f 8/1/1 6/1/1 7/1/1
f 13/2/1 10/2/1 9/2/1
f 14/2/1 10/2/1 13/2/1
f 15/2/1 12/2/1 11/2/1
f 16/2/1 12/2/1 15/2/1
f 17/3/1 15/3/1 14/3/1
f 18/3/1 15/3/1 17/3/1
f 19/2/1 18/2/1 17/2/1
f 20/2/1 18/2/1 19/2/1
f 21/3/1 20/3/1 19/3/1
f 22/3/1 20/3/1 21/3/1
f 25/1/1 24/1/1 23/1/1
f 26/1/1 24/1/1 25/1/1
f 31/2/1 28/2/1 27/2/1
f 32/2/1 28/2/1 31/2/1
f 35/2/1 30/2/1 29/2/1
f 36/2/1 30/2/1 35/2/1
f 37/3/1 33/3/1 32/3/1
f 38/3/1 33/3/1 37/3/1
f 39/3/1 35/3/1 34/3/1
f 40/3/1 35/3/1 39/3/1
f 41/2/1 38/2/1 37/2/1
f 42/2/1 38/2/1 41/2/1
f 43/2/1 40/2/1 39/2/1
f 44/2/1 40/2/1 43/2/1
f 45/3/1 42/3/1 41/3/1
f 46/3/1 42/3/1 45/3/1
f 47/3/1 44/3/1 43/3/1
f 48/3/1 44/3/1 47/3/1
f 49/1/1 47/1/1 46/1/1
f 50/1/1 47/1/1 49/1/1
f 51/1/1 47/1/1 50/1/1
f 52/1/1 47/1/1 51/1/1
f 53/1/1 51/1/1 50/1/1
f 54/1/1 51/1/1 53/1/1
f 60/1/1 56/1/1 55/1/1
f 61/1/1 56/1/1 60/1/1
f 62/1/1 58/1/1 57/1/1
f 63/1/1 58/1/1 62/1/1
f 66/1/1 60/1/1 59/1/1
f 67/2/1 61/2/1 60/2/1
f 67/1/1 60/1/1 66/1/1
f 68/2/1 61/2/1 67/2/1
f 69/2/1 63/2/1 62/2/1
f 70/1/1 64/1/1 63/1/1
f 70/2/1 63/2/1 69/2/1
f 71/1/1 64/1/1 70/1/1
f 73/1/1 66/1/1 65/1/1
f 73/1/1 67/1/1 66/1/1
f 74/1/1 67/1/1 73/1/1
f 75/1/1 72/1/1 71/1/1
f 75/1/1 71/1/1 70/1/1
f 76/1/1 72/1/1 75/1/1
f 77/1/1 73/1/1 65/1/1
f 78/1/1 73/1/1 77/1/1
f 79/1/1 72/1/1 76/1/1
f 80/1/1 72/1/1 79/1/1
f 83/1/1 82/1/1 81/1/1
f 84/1/1 82/1/1 83/1/1
f 87/1/1 86/1/1 85/1/1
f 88/1/1 86/1/1 87/1/1
f 89/1/2 90/1/2 91/1/2
f 91/1/2 90/1/2 92/1/2
f 93/1/2 94/1/2 95/1/2
f 95/1/2 94/1/2 96/1/2
f 97/1/2 98/1/2 102/1/2
f 102/1/2 98/1/2 103/1/2
f 99/1/2 100/1/2 104/1/2
f 104/1/2 100/1/2 105/1/2
f 101/1/2 102/1/2 108/1/2
f 102/2/2 103/2/2 109/2/2
f 108/1/2 102/1/2 109/1/2
f 109/2/2 103/2/2 110/2/2
f 104/2/2 105/2/2 111/2/2
f 105/1/2 106/1/2 112/1/2
f 111/2/2 105/2/2 112/2/2
f 112/1/2 106/1/2 113/1/2
f 107/1/2 108/1/2 115/1/2
f 108/1/2 109/1/2 115/1/2
f 115/1/2 109/1/2 116/1/2
f 113/1/2 114/1/2 117/1/2
f 112/1/2 113/1/2 117/1/2
f 117/1/2 114/1/2 118/1/2
f 107/1/2 115/1/2 119/1/2
f 119/1/2 115/1/2 120/1/2
f 118/1/2 114/1/2 121/1/2
f 121/1/2 114/1/2 122/1/2
f 123/2/2 124/2/2 127/2/2
f 127/2/2 124/2/2 128/2/2
f 125/2/2 126/2/2 131/2/2
f 131/2/2 126/2/2 132/2/2
f 128/3/2 129/3/2 133/3/2
f 133/3/2 129/3/2 134/3/2
f 130/3/2 131/3/2 135/3/2
f 135/3/2 131/3/2 136/3/2
f 133/2/2 134/2/2 137/2/2
f 137/2/2 134/2/2 138/2/2
f 135/2/2 136/2/2 139/2/2
f 139/2/2 136/2/2 140/2/2
f 137/3/2 138/3/2 141/3/2
f 141/3/2 138/3/2 142/3/2
f 139/3/2 140/3/2 143/3/2
f 143/3/2 140/3/2 144/3/2
f 142/1/2 143/1/2 145/1/2
f 145/1/2 143/1/2 146/1/2
f 146/1/2 143/1/2 147/1/2
f 147/1/2 143/1/2 148/1/2
f 146/1/2 147/1/2 149/1/2
f 149/1/2 147/1/2 150/1/2
f 151/2/2 152/2/2 155/2/2
f 155/2/2 152/2/2 156/2/2
f 153/2/2 154/2/2 157/2/2
f 157/2/2 154/2/2 158/2/2
f 156/3/2 157/3/2 159/3/2
f 159/3/2 157/3/2 160/3/2
f 159/2/2 160/2/2 161/2/2
f 161/2/2 160/2/2 162/2/2
f 161/3/2 162/3/2 163/3/2
f 163/3/2 162/3/2 164/3/2
f 165/1/2 166/1/2 167/1/2
f 167/1/2 166/1/2 168/1/2
f 169/2/2 170/2/2 171/2/2
f 171/2/2 170/2/2 172/2/2
f 173/1/2 174/1/2 175/1/2
f 175/1/2 174/1/2 176/1/2
f 181/1/3 180/1/3 179/1/3
f 182/1/3 180/1/3 181/1/3
f 183/2/3 178/2/3 177/2/3
f 184/2/3 178/2/3 183/2/3
f 187/2/3 186/2/3 185/2/3
f 188/2/3 186/2/3 187/2/3
f 194/1/3 193/1/3 192/1/3
f 195/1/3 193/1/3 194/1/3
f 197/3/3 189/3/3 188/3/3
f 198/2/3 190/2/3 189/2/3
f 198/3/3 189/3/3 197/3/3
f 199/3/3 191/3/3 190/3/3
f 199/2/3 190/2/3 198/2/3
f 200/3/3 191/3/3 199/3/3
f 201/2/3 197/2/3 196/2/3
f 202/2/3 197/2/3 201/2/3
f 205/2/3 204/2/3 203/2/3
f 206/2/3 204/2/3 205/2/3
f 210/3/3 207/3/3 206/3/3
f 211/2/3 208/2/3 207/2/3
f 211/3/3 207/3/3 210/3/3
f 212/3/3 209/3/3 208/3/3
f 212/2/3 208/2/3 211/2/3
f 213/3/3 209/3/3 212/3/3
f 215/1/3 214/1/3 213/1/3
f 217/1/3 215/1/3 213/1/3
f 217/1/3 216/1/3 215/1/3
f 218/1/3 216/1/3 217/1/3
f 222/1/3 217/1/3 213/1/3
f 223/1/3 217/1/3 222/1/3
f 225/3/3 220/3/3 219/3/3
f 226/2/3 221/2/3 220/2/3
f 226/3/3 220/3/3 225/3/3
f 227/3/3 222/3/3 221/3/3
f 227/2/3 221/2/3 226/2/3
f 228/3/3 222/3/3 227/3/3
f 229/2/3 225/2/3 224/2/3
f 230/2/3 225/2/3 229/2/3
f 234/1/3 232/1/3 231/1/3
f 235/1/3 232/1/3 234/1/3
f 236/1/3 232/1/3 235/1/3
f 238/1/3 234/1/3 233/1/3
f 238/1/3 235/1/3 234/1/3
f 239/1/3 235/1/3 238/1/3
f 240/1/3 235/1/3 239/1/3
f 241/1/3 238/1/3 237/1/3
f 242/2/3 239/2/3 238/2/3
f 242/1/3 238/1/3 241/1/3
f 243/2/3 239/2/3 242/2/3
f 247/1/3 245/1/3 244/1/3
f 248/2/3 246/2/3 245/2/3
f 248/1/3 245/1/3 247/1/3
f 249/2/3 246/2/3 248/2/3
f 251/1/3 249/1/3 248/1/3
f 251/1/3 250/1/3 249/1/3
f 252/1/3 250/1/3 251/1/3
f 253/1/3 250/1/3 252/1/3
f 255/1/3 253/1/3 252/1/3
f 255/1/3 254/1/3 253/1/3
f 256/1/3 254/1/3 255/1/3
f 259/1/3 258/1/3 257/1/3
f 260/1/3 258/1/3 259/1/3
f 263/1/3 262/1/3 261/1/3
f 264/1/3 262/1/3 263/1/3
f 265/1/4 266/1/4 267/1/4
f 267/1/4 266/1/4 268/1/4
f 269/1/4 270/1/4 271/1/4
f 271/1/4 270/1/4 272/1/4
f 273/1/4 274/1/4 276/1/4
f 276/1/4 274/1/4 277/1/4
f 277/1/4 274/1/4 278/1/4
f 275/1/4 276/1/4 280/1/4
f 276/1/4 277/1/4 280/1/4
f 280/1/4 277/1/4 281/1/4
f 281/1/4 277/1/4 282/1/4
f 279/1/4 280/1/4 283/1/4
f 280/2/4 281/2/4 284/2/4
f 283/1/4 280/1/4 284/1/4
f 284/2/4 281/2/4 285/2/4
f 286/1/4 287/1/4 289/1/4
f 287/2/4 288/2/4 290/2/4
f 289/1/4 287/1/4 290/1/4
f 290/2/4 288/2/4 291/2/4
f 290/1/4 291/1/4 293/1/4
f 291/1/4 292/1/4 293/1/4
f 293/1/4 292/1/4 294/1/4
f 294/1/4 292/1/4 295/1/4
f 294/1/4 295/1/4 297/1/4
f 295/1/4 296/1/4 297/1/4
f 297/1/4 296/1/4 298/1/4
f 299/2/4 300/2/4 301/2/4
f 301/2/4 300/2/4 302/2/4
f 302/3/4 303/3/4 306/3/4
f 303/2/4 304/2/4 307/2/4
f 306/3/4 303/3/4 307/3/4
f 304/3/4 305/3/4 308/3/4
f 307/2/4 304/2/4 308/2/4
f 308/3/4 305/3/4 309/3/4
f 309/1/4 310/1/4 311/1/4
f 309/1/4 311/1/4 313/1/4
f 311/1/4 312/1/4 313/1/4
f 313/1/4 312/1/4 314/1/4
f 309/1/4 313/1/4 318/1/4
f 318/1/4 313/1/4 319/1/4
f 315/3/4 316/3/4 321/3/4
f 316/2/4 317/2/4 322/2/4
f 321/3/4 316/3/4 322/3/4
f 317/3/4 318/3/4 323/3/4
f 322/2/4 317/2/4 323/2/4
f 323/3/4 318/3/4 324/3/4
f 320/2/4 321/2/4 325/2/4
f 325/2/4 321/2/4 326/2/4
f 327/2/4 328/2/4 329/2/4
f 329/2/4 328/2/4 330/2/4
f 334/1/4 335/1/4 336/1/4
f 336/1/4 335/1/4 337/1/4
f 330/3/4 331/3/4 339/3/4
f 331/2/4 332/2/4 340/2/4
f 339/3/4 331/3/4 340/3/4
f 332/3/4 333/3/4 341/3/4
f 340/2/4 332/2/4 341/2/4
f 341/3/4 333/3/4 342/3/4
f 338/2/4 339/2/4 343/2/4
f 343/2/4 339/2/4 344/2/4
f 347/1/4 348/1/4 349/1/4
f 349/1/4 348/1/4 350/1/4
f 345/2/4 346/2/4 351/2/4
f 351/2/4 346/2/4 352/2/4
f 356/2/5 354/2/5 353/2/5
f 357/2/5 354/2/5 356/2/5
f 360/2/5 356/2/5 355/2/5
f 361/3/5 357/3/5 356/3/5
f 361/2/5 356/2/5 360/2/5
f 362/2/5 358/2/5 357/2/5
f 362/3/5 357/3/5 361/3/5
f 363/2/5 358/2/5 362/2/5
f 365/2/5 360/2/5 359/2/5
f 366/3/5 361/3/5 360/3/5
f 366/2/5 360/2/5 365/2/5
f 366/3/5 362/3/5 361/3/5
f 366/3/5 363/3/5 362/3/5
f 367/3/5 363/3/5 366/3/5
f 368/3/5 363/3/5 367/3/5
f 369/2/5 364/2/5 363/2/5
f 369/3/5 363/3/5 368/3/5
f 370/2/5 364/2/5 369/2/5
f 371/2/5 367/2/5 366/2/5
f 372/3/5 368/3/5 367/3/5
f 372/2/5 367/2/5 371/2/5
f 373/2/5 369/2/5 368/2/5
f 373/3/5 368/3/5 372/3/5
f 374/2/5 369/2/5 373/2/5
f 375/2/5 373/2/5 372/2/5
f 376/2/5 373/2/5 375/2/5
f 379/1/5 378/1/5 377/1/5
f 380/1/5 378/1/5 379/1/5
f 385/1/5 382/1/5 381/1/5
f 386/1/5 382/1/5 385/1/5
f 387/1/5 384/1/5 383/1/5
f 388/1/5 384/1/5 387/1/5
f 391/1/5 390/1/5 389/1/5
f 392/1/5 390/1/5 391/1/5
f 395/1/5 394/1/5 393/1/5
f 396/1/5 394/1/5 395/1/5
f 401/1/5 398/1/5 397/1/5
f 402/1/5 398/1/5 401/1/5
f 403/1/5 400/1/5 399/1/5
f 404/1/5 400/1/5 403/1/5
f 407/1/5 406/1/5 405/1/5
f 408/1/5 406/1/5 407/1/5
f 409/2/6 410/2/6 412/2/6
f 412/2/6 410/2/6 413/2/6
f 411/2/6 412/2/6 416/2/6
f 416/2/6 412/2/6 417/2/6
f 413/2/6 414/2/6 418/2/6
f 418/2/6 414/2/6 419/2/6
f 415/2/6 416/2/6 421/2/6
f 421/2/6 416/2/6 422/2/6
f 419/2/6 420/2/6 425/2/6
f 425/2/6 420/2/6 426/2/6
f 422/2/6 423/2/6 427/2/6
f 427/2/6 423/2/6 428/2/6
f 424/2/6 425/2/6 429/2/6
f 429/2/6 425/2/6 430/2/6
f 428/2/6 429/2/6 431/2/6
f 431/2/6 429/2/6 432/2/6
f 433/3/6 434/3/6 436/3/6
f 436/3/6 434/3/6 437/3/6
f 435/3/6 436/3/6 439/3/6
f 439/3/6 436/3/6 440/3/6
f 437/3/6 438/3/6 441/3/6
f 441/3/6 438/3/6 442/3/6
f 440/3/6 441/3/6 443/3/6
f 443/3/6 441/3/6 444/3/6
f 445/1/6 446/1/6 449/1/6
f 449/1/6 446/1/6 450/1/6
f 447/1/6 448/1/6 451/1/6
f 451/1/6 448/1/6 452/1/6
f 453/1/6 454/1/6 457/1/6
f 457/1/6 454/1/6 458/1/6
f 455/1/6 456/1/6 459/1/6
f 459/1/6 456/1/6 460/1/6
f 461/2/6 462/2/6 464/2/6
f 464/2/6 462/2/6 465/2/6
f 463/2/6 464/2/6 467/2/6
f 465/2/6 466/2/6 467/2/6
f 464/2/6 465/2/6 467/2/6
f 467/2/6 466/2/6 468/2/6
f 468/2/6 466/2/6 469/2/6
f 469/2/6 466/2/6 470/2/6
f 468/2/6 469/2/6 471/2/6
f 471/2/6 469/2/6 472/2/6
f 473/1/6 474/1/6 475/1/6
f 475/1/6 474/1/6 476/1/6
f 477/1/6 478/1/6 481/1/6
f 481/1/6 478/1/6 482/1/6
f 479/1/6 480/1/6 483/1/6
f 483/1/6 480/1/6 484/1/6
f 485/1/6 486/1/6 487/1/6
f 487/1/6 486/1/6 488/1/6
f 489/1/6 490/1/6 491/1/6
f 491/1/6 490/1/6 492/1/6
f 493/1/6 494/1/6 497/1/6
f 497/1/6 494/1/6 498/1/6
f 495/1/6 496/1/6 499/1/6
f 499/1/6 496/1/6 500/1/6
f 501/1/6 502/1/6 503/1/6
f 503/1/6 502/1/6 504/1/6
