# MagicaVoxel @ Ephtracy

# group
o up

# material
mtllib button-1-up.mtl
usemtl palette

# normals
vn -1 0 0
vn 1 0 0
vn 0 0 1
vn 0 0 -1
vn 0 -1 0
vn 0 1 0

# texcoords
vt 0.849609 0.5
vt 0.978516 0.5

# verts
v -0.4 0 0.2
v -0.4 0 -0.2
v -0.4 0.1 0.2
v -0.4 0.1 -0.2
v -0.3 0 0.3
v -0.3 0 0.2
v -0.3 0 -0.2
v -0.3 0 -0.3
v -0.3 0.1 0.3
v -0.3 0.1 0.2
v -0.3 0.1 0.1
v -0.3 0.1 -0.1
v -0.3 0.1 -0.2
v -0.3 0.1 -0.3
v -0.3 0.3 0.1
v -0.3 0.3 -0.1
v -0.2 0 0.4
v -0.2 0 0.3
v -0.2 0 -0.3
v -0.2 0 -0.4
v -0.2 0.1 0.4
v -0.2 0.1 0.3
v -0.2 0.1 0.2
v -0.2 0.1 0.1
v -0.2 0.1 -0.1
v -0.2 0.1 -0.2
v -0.2 0.1 -0.3
v -0.2 0.1 -0.4
v -0.2 0.3 0.2
v -0.2 0.3 0.1
v -0.2 0.3 -0.1
v -0.2 0.3 -0.2
v -0.1 0.1 0.3
v -0.1 0.1 0.2
v -0.1 0.1 -0.2
v -0.1 0.1 -0.3
v -0.1 0.3 0.3
v -0.1 0.3 0.2
v -0.1 0.3 -0.2
v -0.1 0.3 -0.3
v 0.1 0.1 0.3
v 0.1 0.1 0.2
v 0.1 0.1 -0.2
v 0.1 0.1 -0.3
v 0.1 0.3 0.3
v 0.1 0.3 0.2
v 0.1 0.3 -0.2
v 0.1 0.3 -0.3
v 0.2 0 0.4
v 0.2 0 0.3
v 0.2 0 -0.3
v 0.2 0 -0.4
v 0.2 0.1 0.4
v 0.2 0.1 0.3
v 0.2 0.1 0.2
v 0.2 0.1 0.1
v 0.2 0.1 -0.1
v 0.2 0.1 -0.2
v 0.2 0.1 -0.3
v 0.2 0.1 -0.4
v 0.2 0.3 0.2
v 0.2 0.3 0.1
v 0.2 0.3 -0.1
v 0.2 0.3 -0.2
v 0.3 0 0.3
v 0.3 0 0.2
v 0.3 0 -0.2
v 0.3 0 -0.3
v 0.3 0.1 0.3
v 0.3 0.1 0.2
v 0.3 0.1 0.1
v 0.3 0.1 -0.1
v 0.3 0.1 -0.2
v 0.3 0.1 -0.3
v 0.3 0.3 0.1
v 0.3 0.3 -0.1
v 0.4 0 0.2
v 0.4 0 -0.2
v 0.4 0.1 0.2
v 0.4 0.1 -0.2
v -0.2 0 0.4
v -0.2 0.1 0.4
v 0.2 0 0.4
v 0.2 0.1 0.4
v -0.3 0 0.3
v -0.3 0.1 0.3
v -0.2 0 0.3
v -0.2 0.1 0.3
v -0.1 0.1 0.3
v -0.1 0.3 0.3
v 0.1 0.1 0.3
v 0.1 0.3 0.3
v 0.2 0 0.3
v 0.2 0.1 0.3
v 0.3 0 0.3
v 0.3 0.1 0.3
v -0.4 0 0.2
v -0.4 0.1 0.2
v -0.3 0 0.2
v -0.3 0.1 0.2
v -0.2 0.1 0.2
v -0.2 0.3 0.2
v -0.1 0.1 0.2
v -0.1 0.3 0.2
v 0.1 0.1 0.2
v 0.1 0.3 0.2
v 0.2 0.1 0.2
v 0.2 0.3 0.2
v 0.3 0 0.2
v 0.3 0.1 0.2
v 0.4 0 0.2
v 0.4 0.1 0.2
v -0.3 0.1 0.1
v -0.3 0.3 0.1
v -0.2 0.1 0.1
v -0.2 0.3 0.1
v 0.2 0.1 0.1
v 0.2 0.3 0.1
v 0.3 0.1 0.1
v 0.3 0.3 0.1
v -0.3 0.1 -0.1
v -0.3 0.3 -0.1
v -0.2 0.1 -0.1
v -0.2 0.3 -0.1
v 0.2 0.1 -0.1
v 0.2 0.3 -0.1
v 0.3 0.1 -0.1
v 0.3 0.3 -0.1
v -0.4 0 -0.2
v -0.4 0.1 -0.2
v -0.3 0 -0.2
v -0.3 0.1 -0.2
v -0.2 0.1 -0.2
v -0.2 0.3 -0.2
v -0.1 0.1 -0.2
v -0.1 0.3 -0.2
v 0.1 0.1 -0.2
v 0.1 0.3 -0.2
v 0.2 0.1 -0.2
v 0.2 0.3 -0.2
v 0.3 0 -0.2
v 0.3 0.1 -0.2
v 0.4 0 -0.2
v 0.4 0.1 -0.2
v -0.3 0 -0.3
v -0.3 0.1 -0.3
v -0.2 0 -0.3
v -0.2 0.1 -0.3
v -0.1 0.1 -0.3
v -0.1 0.3 -0.3
v 0.1 0.1 -0.3
v 0.1 0.3 -0.3
v 0.2 0 -0.3
v 0.2 0.1 -0.3
v 0.3 0 -0.3
v 0.3 0.1 -0.3
v -0.2 0 -0.4
v -0.2 0.1 -0.4
v 0.2 0 -0.4
v 0.2 0.1 -0.4
v -0.2 0 0.4
v 0.2 0 0.4
v -0.3 0 0.3
v -0.2 0 0.3
v 0.2 0 0.3
v 0.3 0 0.3
v -0.4 0 0.2
v -0.3 0 0.2
v 0.3 0 0.2
v 0.4 0 0.2
v -0.4 0 -0.2
v -0.3 0 -0.2
v 0.3 0 -0.2
v 0.4 0 -0.2
v -0.3 0 -0.3
v -0.2 0 -0.3
v 0.2 0 -0.3
v 0.3 0 -0.3
v -0.2 0 -0.4
v 0.2 0 -0.4
v -0.2 0.1 0.4
v 0.2 0.1 0.4
v -0.3 0.1 0.3
v -0.2 0.1 0.3
v -0.1 0.1 0.3
v 0.1 0.1 0.3
v 0.2 0.1 0.3
v 0.3 0.1 0.3
v -0.4 0.1 0.2
v -0.3 0.1 0.2
v -0.2 0.1 0.2
v -0.1 0.1 0.2
v 0.1 0.1 0.2
v 0.2 0.1 0.2
v 0.3 0.1 0.2
v 0.4 0.1 0.2
v -0.3 0.1 0.1
v -0.2 0.1 0.1
v 0.2 0.1 0.1
v 0.3 0.1 0.1
v -0.3 0.1 -0.1
v -0.2 0.1 -0.1
v 0.2 0.1 -0.1
v 0.3 0.1 -0.1
v -0.4 0.1 -0.2
v -0.3 0.1 -0.2
v -0.2 0.1 -0.2
v -0.1 0.1 -0.2
v 0.1 0.1 -0.2
v 0.2 0.1 -0.2
v 0.3 0.1 -0.2
v 0.4 0.1 -0.2
v -0.3 0.1 -0.3
v -0.2 0.1 -0.3
v -0.1 0.1 -0.3
v 0.1 0.1 -0.3
v 0.2 0.1 -0.3
v 0.3 0.1 -0.3
v -0.2 0.1 -0.4
v 0.2 0.1 -0.4
v -0.1 0.3 0.3
v 0.1 0.3 0.3
v -0.2 0.3 0.2
v -0.1 0.3 0.2
v 0.1 0.3 0.2
v 0.2 0.3 0.2
v -0.3 0.3 0.1
v -0.2 0.3 0.1
v 0.2 0.3 0.1
v 0.3 0.3 0.1
v -0.3 0.3 -0.1
v -0.2 0.3 -0.1
v 0.2 0.3 -0.1
v 0.3 0.3 -0.1
v -0.2 0.3 -0.2
v -0.1 0.3 -0.2
v 0.1 0.3 -0.2
v 0.2 0.3 -0.2
v -0.1 0.3 -0.3
v 0.1 0.3 -0.3

# faces
f 3/2/1 2/2/1 1/2/1
f 4/2/1 2/2/1 3/2/1
f 9/2/1 6/2/1 5/2/1
f 10/2/1 6/2/1 9/2/1
f 13/2/1 8/2/1 7/2/1
f 14/2/1 8/2/1 13/2/1
f 15/1/1 12/1/1 11/1/1
f 16/1/1 12/1/1 15/1/1
f 21/2/1 18/2/1 17/2/1
f 22/2/1 18/2/1 21/2/1
f 27/2/1 20/2/1 19/2/1
f 28/2/1 20/2/1 27/2/1
f 29/1/1 24/1/1 23/1/1
f 30/1/1 24/1/1 29/1/1
f 31/1/1 26/1/1 25/1/1
f 32/1/1 26/1/1 31/1/1
f 37/1/1 34/1/1 33/1/1
f 38/1/1 34/1/1 37/1/1
f 39/1/1 36/1/1 35/1/1
f 40/1/1 36/1/1 39/1/1
f 41/1/2 42/1/2 45/1/2
f 45/1/2 42/1/2 46/1/2
f 43/1/2 44/1/2 47/1/2
f 47/1/2 44/1/2 48/1/2
f 49/2/2 50/2/2 53/2/2
f 53/2/2 50/2/2 54/2/2
f 51/2/2 52/2/2 59/2/2
f 59/2/2 52/2/2 60/2/2
f 55/1/2 56/1/2 61/1/2
f 61/1/2 56/1/2 62/1/2
f 57/1/2 58/1/2 63/1/2
f 63/1/2 58/1/2 64/1/2
f 65/2/2 66/2/2 69/2/2
f 69/2/2 66/2/2 70/2/2
f 67/2/2 68/2/2 73/2/2
f 73/2/2 68/2/2 74/2/2
f 71/1/2 72/1/2 75/1/2
f 75/1/2 72/1/2 76/1/2
f 77/2/2 78/2/2 79/2/2
f 79/2/2 78/2/2 80/2/2
f 83/2/3 82/2/3 81/2/3
f 84/2/3 82/2/3 83/2/3
f 87/2/3 86/2/3 85/2/3
f 88/2/3 86/2/3 87/2/3
f 91/1/3 90/1/3 89/1/3
f 92/1/3 90/1/3 91/1/3
f 95/2/3 94/2/3 93/2/3
f 96/2/3 94/2/3 95/2/3
f 99/2/3 98/2/3 97/2/3
f 100/2/3 98/2/3 99/2/3
f 103/1/3 102/1/3 101/1/3
f 104/1/3 102/1/3 103/1/3
f 107/1/3 106/1/3 105/1/3
f 108/1/3 106/1/3 107/1/3
f 111/2/3 110/2/3 109/2/3
f 112/2/3 110/2/3 111/2/3
f 115/1/3 114/1/3 113/1/3
f 116/1/3 114/1/3 115/1/3
f 119/1/3 118/1/3 117/1/3
f 120/1/3 118/1/3 119/1/3
f 121/1/4 122/1/4 123/1/4
f 123/1/4 122/1/4 124/1/4
f 125/1/4 126/1/4 127/1/4
f 127/1/4 126/1/4 128/1/4
f 129/2/4 130/2/4 131/2/4
f 131/2/4 130/2/4 132/2/4
f 133/1/4 134/1/4 135/1/4
f 135/1/4 134/1/4 136/1/4
f 137/1/4 138/1/4 139/1/4
f 139/1/4 138/1/4 140/1/4
f 141/2/4 142/2/4 143/2/4
f 143/2/4 142/2/4 144/2/4
f 145/2/4 146/2/4 147/2/4
f 147/2/4 146/2/4 148/2/4
f 149/1/4 150/1/4 151/1/4
f 151/1/4 150/1/4 152/1/4
f 153/2/4 154/2/4 155/2/4
f 155/2/4 154/2/4 156/2/4
f 157/2/4 158/2/4 159/2/4
f 159/2/4 158/2/4 160/2/4
f 164/2/5 162/2/5 161/2/5
f 165/2/5 162/2/5 164/2/5
f 168/2/5 164/2/5 163/2/5
f 168/2/5 166/2/5 165/2/5
f 168/2/5 165/2/5 164/2/5
f 169/2/5 166/2/5 168/2/5
f 171/2/5 168/2/5 167/2/5
f 171/2/5 170/2/5 169/2/5
f 171/2/5 169/2/5 168/2/5
f 172/2/5 170/2/5 171/2/5
f 173/2/5 170/2/5 172/2/5
f 174/2/5 170/2/5 173/2/5
f 175/2/5 173/2/5 172/2/5
f 176/2/5 173/2/5 175/2/5
f 177/2/5 173/2/5 176/2/5
f 178/2/5 173/2/5 177/2/5
f 179/2/5 177/2/5 176/2/5
f 180/2/5 177/2/5 179/2/5
f 181/2/6 182/2/6 184/2/6
f 184/2/6 182/2/6 185/2/6
f 185/2/6 182/2/6 186/2/6
f 186/2/6 182/2/6 187/2/6
f 183/2/6 184/2/6 190/2/6
f 184/2/6 185/2/6 190/2/6
f 190/2/6 185/2/6 191/2/6
f 191/2/6 185/2/6 192/2/6
f 186/2/6 187/2/6 193/2/6
f 187/2/6 188/2/6 193/2/6
f 193/2/6 188/2/6 194/2/6
f 194/2/6 188/2/6 195/2/6
f 190/2/6 191/2/6 197/2/6
f 189/2/6 190/2/6 197/2/6
f 197/2/6 191/2/6 198/2/6
f 195/2/6 196/2/6 199/2/6
f 194/2/6 195/2/6 199/2/6
f 199/2/6 196/2/6 200/2/6
f 189/2/6 197/2/6 201/2/6
f 200/2/6 196/2/6 204/2/6
f 201/2/6 202/2/6 205/2/6
f 189/2/6 201/2/6 205/2/6
f 205/2/6 202/2/6 206/2/6
f 206/2/6 202/2/6 207/2/6
f 203/2/6 204/2/6 210/2/6
f 204/2/6 196/2/6 211/2/6
f 210/2/6 204/2/6 211/2/6
f 211/2/6 196/2/6 212/2/6
f 207/2/6 208/2/6 213/2/6
f 206/2/6 207/2/6 213/2/6
f 213/2/6 208/2/6 214/2/6
f 214/2/6 208/2/6 215/2/6
f 209/2/6 210/2/6 216/2/6
f 210/2/6 211/2/6 216/2/6
f 216/2/6 211/2/6 217/2/6
f 217/2/6 211/2/6 218/2/6
f 214/2/6 215/2/6 219/2/6
f 216/2/6 217/2/6 219/2/6
f 215/2/6 216/2/6 219/2/6
f 219/2/6 217/2/6 220/2/6
f 221/1/6 222/1/6 224/1/6
f 224/1/6 222/1/6 225/1/6
f 223/1/6 224/1/6 228/1/6
f 225/1/6 226/1/6 228/1/6
f 224/1/6 225/1/6 228/1/6
f 228/1/6 226/1/6 229/1/6
f 227/1/6 228/1/6 231/1/6
f 229/1/6 230/1/6 231/1/6
f 228/1/6 229/1/6 231/1/6
f 231/1/6 230/1/6 232/1/6
f 232/1/6 230/1/6 233/1/6
f 233/1/6 230/1/6 234/1/6
f 232/1/6 233/1/6 235/1/6
f 235/1/6 233/1/6 236/1/6
f 236/1/6 233/1/6 237/1/6
f 237/1/6 233/1/6 238/1/6
f 236/1/6 237/1/6 239/1/6
f 239/1/6 237/1/6 240/1/6
