# MagicaVoxel @ Ephtracy

# group
o Wall

# material
mtllib Wall-0-Wall.mtl
usemtl palette

# normals
vn -1 0 0
vn 1 0 0
vn 0 0 1
vn 0 0 -1
vn 0 -1 0
vn 0 1 0

# texcoords
vt 0.0175781 0.5
vt 0.173828 0.5
vt 0.177734 0.5

# verts
v -0.8 0 0.8
v -0.8 0 -0.8
v -0.8 0.3 0.8
v -0.8 0.3 0.7
v -0.8 0.3 0.6
v -0.8 0.4 0.8
v -0.8 0.4 0.7
v -0.8 0.4 0.6
v -0.8 0.7 0.8
v -0.8 0.7 0.7
v -0.8 0.7 0.6
v -0.8 0.8 0.8
v -0.8 0.8 0.7
v -0.8 0.8 0.6
v -0.8 1.1 0.8
v -0.8 1.1 0.7
v -0.8 1.1 0.6
v -0.8 1.2 0.8
v -0.8 1.2 0.7
v -0.8 1.2 0.6
v -0.8 1.5 0.8
v -0.8 1.5 0.7
v -0.8 1.5 -0.8
v -0.8 1.6 0.7
v -0.8 1.6 -0.8
v -0.4 0.4 0.8
v -0.4 0.4 0.7
v -0.4 0.7 0.8
v -0.4 0.7 0.7
v -0.4 1.2 0.8
v -0.4 1.2 0.7
v -0.4 1.5 0.8
v -0.4 1.5 0.7
v 0 0 0.8
v 0 0 0.7
v 0 0.3 0.8
v 0 0.3 0.7
v 0 0.8 0.8
v 0 0.8 0.7
v 0 1.1 0.8
v 0 1.1 0.7
v 0.4 0.4 0.8
v 0.4 0.4 0.7
v 0.4 0.7 0.8
v 0.4 0.7 0.7
v 0.4 1.2 0.8
v 0.4 1.2 0.7
v 0.4 1.5 0.8
v 0.4 1.5 0.7
v -0.5 0.4 0.8
v -0.5 0.4 0.7
v -0.5 0.7 0.8
v -0.5 0.7 0.7
v -0.5 1.2 0.8
v -0.5 1.2 0.7
v -0.5 1.5 0.8
v -0.5 1.5 0.7
v -0.1 0 0.8
v -0.1 0 0.7
v -0.1 0.3 0.8
v -0.1 0.3 0.7
v -0.1 0.8 0.8
v -0.1 0.8 0.7
v -0.1 1.1 0.8
v -0.1 1.1 0.7
v 0.3 0.4 0.8
v 0.3 0.4 0.7
v 0.3 0.7 0.8
v 0.3 0.7 0.7
v 0.3 1.2 0.8
v 0.3 1.2 0.7
v 0.3 1.5 0.8
v 0.3 1.5 0.7
v 0.7 0 0.8
v 0.7 0 0.7
v 0.7 0.3 0.8
v 0.7 0.3 0.7
v 0.7 0.8 0.8
v 0.7 0.8 0.7
v 0.7 1.1 0.8
v 0.7 1.1 0.7
v 0.8 0 0.7
v 0.8 0 0.6
v 0.8 0 -0.8
v 0.8 0.4 0.8
v 0.8 0.4 0.7
v 0.8 0.4 0.6
v 0.8 0.7 0.8
v 0.8 0.7 0.7
v 0.8 0.7 0.6
v 0.8 1.2 0.8
v 0.8 1.2 0.7
v 0.8 1.2 0.6
v 0.8 1.5 0.8
v 0.8 1.5 0.7
v 0.8 1.5 -0.8
v 0.8 1.6 0.7
v 0.8 1.6 -0.8
v -0.8 0 0.8
v -0.8 0.3 0.8
v -0.8 0.4 0.8
v -0.8 0.7 0.8
v -0.8 0.8 0.8
v -0.8 1.1 0.8
v -0.8 1.2 0.8
v -0.8 1.5 0.8
v -0.5 0.4 0.8
v -0.5 0.7 0.8
v -0.5 1.2 0.8
v -0.5 1.5 0.8
v -0.4 0.4 0.8
v -0.4 0.7 0.8
v -0.4 1.2 0.8
v -0.4 1.5 0.8
v -0.1 0 0.8
v -0.1 0.3 0.8
v -0.1 0.8 0.8
v -0.1 1.1 0.8
v 0 0 0.8
v 0 0.3 0.8
v 0 0.8 0.8
v 0 1.1 0.8
v 0.3 0.4 0.8
v 0.3 0.7 0.8
v 0.3 1.2 0.8
v 0.3 1.5 0.8
v 0.4 0.4 0.8
v 0.4 0.7 0.8
v 0.4 1.2 0.8
v 0.4 1.5 0.8
v 0.7 0 0.8
v 0.7 0.3 0.8
v 0.7 0.8 0.8
v 0.7 1.1 0.8
v 0.8 0.4 0.8
v 0.8 0.7 0.8
v 0.8 1.2 0.8
v 0.8 1.5 0.8
v -0.8 0.3 0.7
v -0.8 0.4 0.7
v -0.8 0.7 0.7
v -0.8 0.8 0.7
v -0.8 1.1 0.7
v -0.8 1.2 0.7
v -0.8 1.5 0.7
v -0.8 1.6 0.7
v -0.5 0.4 0.7
v -0.5 0.7 0.7
v -0.5 1.2 0.7
v -0.5 1.5 0.7
v -0.4 0.4 0.7
v -0.4 0.7 0.7
v -0.4 1.2 0.7
v -0.4 1.5 0.7
v -0.1 0 0.7
v -0.1 0.3 0.7
v -0.1 0.8 0.7
v -0.1 1.1 0.7
v 0 0 0.7
v 0 0.3 0.7
v 0 0.8 0.7
v 0 1.1 0.7
v 0.3 0.4 0.7
v 0.3 0.7 0.7
v 0.3 1.2 0.7
v 0.3 1.5 0.7
v 0.4 0.4 0.7
v 0.4 0.7 0.7
v 0.4 1.2 0.7
v 0.4 1.5 0.7
v 0.7 0 0.7
v 0.7 0.3 0.7
v 0.7 0.8 0.7
v 0.7 1.1 0.7
v 0.8 0 0.7
v 0.8 0.4 0.7
v 0.8 0.7 0.7
v 0.8 1.2 0.7
v 0.8 1.5 0.7
v 0.8 1.6 0.7
v -0.8 0 -0.8
v -0.8 1.5 -0.8
v -0.8 1.6 -0.8
v 0.8 0 -0.8
v 0.8 1.5 -0.8
v 0.8 1.6 -0.8
v -0.8 0 0.8
v -0.1 0 0.8
v 0 0 0.8
v 0.7 0 0.8
v -0.1 0 0.7
v 0 0 0.7
v 0.7 0 0.7
v 0.8 0 0.7
v -0.1 0 0.6
v 0 0 0.6
v 0.7 0 0.6
v 0.8 0 0.6
v -0.8 0 -0.8
v 0.8 0 -0.8
v -0.8 0.4 0.8
v -0.5 0.4 0.8
v -0.4 0.4 0.8
v 0.3 0.4 0.8
v 0.4 0.4 0.8
v 0.8 0.4 0.8
v -0.8 0.4 0.7
v -0.5 0.4 0.7
v -0.4 0.4 0.7
v 0.3 0.4 0.7
v 0.4 0.4 0.7
v 0.8 0.4 0.7
v -0.8 0.8 0.8
v -0.1 0.8 0.8
v 0 0.8 0.8
v 0.7 0.8 0.8
v -0.8 0.8 0.7
v -0.1 0.8 0.7
v 0 0.8 0.7
v 0.7 0.8 0.7
v -0.8 1.2 0.8
v -0.5 1.2 0.8
v -0.4 1.2 0.8
v 0.3 1.2 0.8
v 0.4 1.2 0.8
v 0.8 1.2 0.8
v -0.8 1.2 0.7
v -0.5 1.2 0.7
v -0.4 1.2 0.7
v 0.3 1.2 0.7
v 0.4 1.2 0.7
v 0.8 1.2 0.7
v -0.8 0.3 0.8
v -0.1 0.3 0.8
v 0 0.3 0.8
v 0.7 0.3 0.8
v -0.8 0.3 0.7
v -0.1 0.3 0.7
v 0 0.3 0.7
v 0.7 0.3 0.7
v -0.8 0.7 0.8
v -0.5 0.7 0.8
v -0.4 0.7 0.8
v 0.3 0.7 0.8
v 0.4 0.7 0.8
v 0.8 0.7 0.8
v -0.8 0.7 0.7
v -0.5 0.7 0.7
v -0.4 0.7 0.7
v 0.3 0.7 0.7
v 0.4 0.7 0.7
v 0.8 0.7 0.7
v -0.8 1.1 0.8
v -0.1 1.1 0.8
v 0 1.1 0.8
v 0.7 1.1 0.8
v -0.8 1.1 0.7
v -0.1 1.1 0.7
v 0 1.1 0.7
v 0.7 1.1 0.7
v -0.8 1.5 0.8
v -0.5 1.5 0.8
v -0.4 1.5 0.8
v 0.3 1.5 0.8
v 0.4 1.5 0.8
v 0.8 1.5 0.8
v -0.8 1.5 0.7
v -0.5 1.5 0.7
v -0.4 1.5 0.7
v 0.3 1.5 0.7
v 0.4 1.5 0.7
v 0.8 1.5 0.7
v -0.8 1.6 0.7
v 0.8 1.6 0.7
v -0.8 1.6 -0.8
v 0.8 1.6 -0.8

# faces
f 3/3/1 2/3/1 1/3/1
f 4/3/1 2/3/1 3/3/1
f 5/3/1 2/3/1 4/3/1
f 7/2/1 5/2/1 4/2/1
f 8/3/1 2/3/1 5/3/1
f 8/2/1 5/2/1 7/2/1
f 9/3/1 7/3/1 6/3/1
f 9/3/1 8/3/1 7/3/1
f 10/3/1 8/3/1 9/3/1
f 11/3/1 2/3/1 8/3/1
f 11/3/1 8/3/1 10/3/1
f 13/2/1 11/2/1 10/2/1
f 14/3/1 2/3/1 11/3/1
f 14/2/1 11/2/1 13/2/1
f 15/3/1 13/3/1 12/3/1
f 15/3/1 14/3/1 13/3/1
f 16/3/1 14/3/1 15/3/1
f 17/3/1 2/3/1 14/3/1
f 17/3/1 14/3/1 16/3/1
f 19/2/1 17/2/1 16/2/1
f 20/3/1 2/3/1 17/3/1
f 20/2/1 17/2/1 19/2/1
f 21/3/1 19/3/1 18/3/1
f 21/3/1 20/3/1 19/3/1
f 22/3/1 20/3/1 21/3/1
f 23/3/1 2/3/1 20/3/1
f 23/3/1 20/3/1 22/3/1
f 24/2/1 23/2/1 22/2/1
f 25/2/1 23/2/1 24/2/1
f 28/3/1 27/3/1 26/3/1
f 29/3/1 27/3/1 28/3/1
f 32/3/1 31/3/1 30/3/1
f 33/3/1 31/3/1 32/3/1
f 36/3/1 35/3/1 34/3/1
f 37/3/1 35/3/1 36/3/1
f 40/3/1 39/3/1 38/3/1
f 41/3/1 39/3/1 40/3/1
f 44/3/1 43/3/1 42/3/1
f 45/3/1 43/3/1 44/3/1
f 48/3/1 47/3/1 46/3/1
f 49/3/1 47/3/1 48/3/1
f 50/3/2 51/3/2 52/3/2
f 52/3/2 51/3/2 53/3/2
f 54/3/2 55/3/2 56/3/2
f 56/3/2 55/3/2 57/3/2
f 58/3/2 59/3/2 60/3/2
f 60/3/2 59/3/2 61/3/2
f 62/3/2 63/3/2 64/3/2
f 64/3/2 63/3/2 65/3/2
f 66/3/2 67/3/2 68/3/2
f 68/3/2 67/3/2 69/3/2
f 70/3/2 71/3/2 72/3/2
f 72/3/2 71/3/2 73/3/2
f 74/3/2 75/3/2 76/3/2
f 76/3/2 75/3/2 77/3/2
f 78/3/2 79/3/2 80/3/2
f 80/3/2 79/3/2 81/3/2
f 82/2/2 83/2/2 86/2/2
f 83/3/2 84/3/2 87/3/2
f 86/2/2 83/2/2 87/2/2
f 85/3/2 86/3/2 88/3/2
f 86/3/2 87/3/2 88/3/2
f 88/3/2 87/3/2 89/3/2
f 87/3/2 84/3/2 90/3/2
f 89/3/2 87/3/2 90/3/2
f 89/2/2 90/2/2 92/2/2
f 90/3/2 84/3/2 93/3/2
f 92/2/2 90/2/2 93/2/2
f 91/3/2 92/3/2 94/3/2
f 92/3/2 93/3/2 94/3/2
f 94/3/2 93/3/2 95/3/2
f 93/3/2 84/3/2 96/3/2
f 95/3/2 93/3/2 96/3/2
f 95/2/2 96/2/2 97/2/2
f 97/2/2 96/2/2 98/2/2
f 107/3/3 102/3/3 101/3/3
f 108/3/3 102/3/3 107/3/3
f 109/3/3 106/3/3 105/3/3
f 110/3/3 106/3/3 109/3/3
f 115/3/3 100/3/3 99/3/3
f 116/3/3 100/3/3 115/3/3
f 117/3/3 104/3/3 103/3/3
f 118/3/3 104/3/3 117/3/3
f 123/3/3 112/3/3 111/3/3
f 124/3/3 112/3/3 123/3/3
f 125/3/3 114/3/3 113/3/3
f 126/3/3 114/3/3 125/3/3
f 131/3/3 120/3/3 119/3/3
f 132/3/3 120/3/3 131/3/3
f 133/3/3 122/3/3 121/3/3
f 134/3/3 122/3/3 133/3/3
f 135/3/3 128/3/3 127/3/3
f 136/3/3 128/3/3 135/3/3
f 137/3/3 130/3/3 129/3/3
f 138/3/3 130/3/3 137/3/3
f 147/2/3 140/2/3 139/2/3
f 148/2/3 142/2/3 141/2/3
f 149/2/3 144/2/3 143/2/3
f 150/2/3 146/2/3 145/2/3
f 151/2/3 147/2/3 139/2/3
f 151/2/3 148/2/3 147/2/3
f 152/2/3 142/2/3 148/2/3
f 152/2/3 148/2/3 151/2/3
f 153/2/3 149/2/3 143/2/3
f 153/2/3 150/2/3 149/2/3
f 154/2/3 146/2/3 150/2/3
f 154/2/3 150/2/3 153/2/3
f 156/2/3 151/2/3 139/2/3
f 157/2/3 142/2/3 152/2/3
f 158/2/3 153/2/3 143/2/3
f 159/2/3 156/2/3 155/2/3
f 160/2/3 151/2/3 156/2/3
f 160/2/3 156/2/3 159/2/3
f 161/2/3 158/2/3 157/2/3
f 161/2/3 157/2/3 152/2/3
f 162/2/3 153/2/3 158/2/3
f 162/2/3 158/2/3 161/2/3
f 163/2/3 151/2/3 160/2/3
f 164/2/3 161/2/3 152/2/3
f 165/2/3 153/2/3 162/2/3
f 166/2/3 146/2/3 154/2/3
f 167/2/3 164/2/3 163/2/3
f 167/2/3 163/2/3 160/2/3
f 168/2/3 161/2/3 164/2/3
f 168/2/3 164/2/3 167/2/3
f 169/2/3 166/2/3 165/2/3
f 169/2/3 165/2/3 162/2/3
f 170/2/3 146/2/3 166/2/3
f 170/2/3 166/2/3 169/2/3
f 172/2/3 167/2/3 160/2/3
f 173/2/3 161/2/3 168/2/3
f 174/2/3 169/2/3 162/2/3
f 175/2/3 172/2/3 171/2/3
f 176/2/3 167/2/3 172/2/3
f 176/2/3 172/2/3 175/2/3
f 177/2/3 174/2/3 173/2/3
f 177/2/3 173/2/3 168/2/3
f 178/2/3 169/2/3 174/2/3
f 178/2/3 174/2/3 177/2/3
f 179/2/3 146/2/3 170/2/3
f 180/2/3 146/2/3 179/2/3
f 181/3/4 182/3/4 184/3/4
f 182/2/4 183/2/4 185/2/4
f 184/3/4 182/3/4 185/3/4
f 185/2/4 183/2/4 186/2/4
f 191/3/5 188/3/5 187/3/5
f 192/3/5 190/3/5 189/3/5
f 193/3/5 190/3/5 192/3/5
f 195/3/5 191/3/5 187/3/5
f 195/2/5 192/2/5 191/2/5
f 196/3/5 193/3/5 192/3/5
f 196/2/5 192/2/5 195/2/5
f 197/2/5 194/2/5 193/2/5
f 197/3/5 193/3/5 196/3/5
f 198/2/5 194/2/5 197/2/5
f 199/3/5 196/3/5 195/3/5
f 199/3/5 195/3/5 187/3/5
f 199/3/5 198/3/5 197/3/5
f 199/3/5 197/3/5 196/3/5
f 200/3/5 198/3/5 199/3/5
f 207/3/5 202/3/5 201/3/5
f 208/3/5 202/3/5 207/3/5
f 209/3/5 204/3/5 203/3/5
f 210/3/5 204/3/5 209/3/5
f 211/3/5 206/3/5 205/3/5
f 212/3/5 206/3/5 211/3/5
f 217/3/5 214/3/5 213/3/5
f 218/3/5 214/3/5 217/3/5
f 219/3/5 216/3/5 215/3/5
f 220/3/5 216/3/5 219/3/5
f 227/3/5 222/3/5 221/3/5
f 228/3/5 222/3/5 227/3/5
f 229/3/5 224/3/5 223/3/5
f 230/3/5 224/3/5 229/3/5
f 231/3/5 226/3/5 225/3/5
f 232/3/5 226/3/5 231/3/5
f 233/3/6 234/3/6 237/3/6
f 237/3/6 234/3/6 238/3/6
f 235/3/6 236/3/6 239/3/6
f 239/3/6 236/3/6 240/3/6
f 241/3/6 242/3/6 247/3/6
f 247/3/6 242/3/6 248/3/6
f 243/3/6 244/3/6 249/3/6
f 249/3/6 244/3/6 250/3/6
f 245/3/6 246/3/6 251/3/6
f 251/3/6 246/3/6 252/3/6
f 253/3/6 254/3/6 257/3/6
f 257/3/6 254/3/6 258/3/6
f 255/3/6 256/3/6 259/3/6
f 259/3/6 256/3/6 260/3/6
f 261/3/6 262/3/6 267/3/6
f 267/3/6 262/3/6 268/3/6
f 263/3/6 264/3/6 269/3/6
f 269/3/6 264/3/6 270/3/6
f 265/3/6 266/3/6 271/3/6
f 271/3/6 266/3/6 272/3/6
f 273/2/6 274/2/6 275/2/6
f 275/2/6 274/2/6 276/2/6
