# MagicaVoxel @ Ephtracy

# group
o 

# material
mtllib boomerang.mtl
usemtl palette

# normals
vn -1 0 0
vn 1 0 0
vn 0 0 1
vn 0 0 -1
vn 0 -1 0
vn 0 1 0

# texcoords
vt 0.201172 0.5
vt 0.369141 0.5
vt 0.962891 0.5

# verts
v -0.6 0 0.1
v -0.6 0 -0.1
v -0.6 0.1 0.1
v -0.6 0.1 -0.1
v -0.5 0 0.2
v -0.5 0 0.1
v -0.5 0 -0.1
v -0.5 0 -0.2
v -0.5 0.1 0.2
v -0.5 0.1 0.1
v -0.5 0.1 -0.1
v -0.5 0.1 -0.2
v -0.2 -0.1 0.1
v -0.2 -0.1 -0.1
v -0.2 0 0.5
v -0.2 0 0.4
v -0.2 0 0.2
v -0.2 0 0.1
v -0.2 0 -0.1
v -0.2 0 -0.2
v -0.2 0 -0.4
v -0.2 0 -0.5
v -0.2 0.1 0.5
v -0.2 0.1 0.4
v -0.2 0.1 0.2
v -0.2 0.1 0.1
v -0.2 0.1 -0.1
v -0.2 0.1 -0.2
v -0.2 0.1 -0.4
v -0.2 0.1 -0.5
v -0.2 0.2 0.1
v -0.2 0.2 -0.1
v -0.1 -0.1 0.2
v -0.1 -0.1 0.1
v -0.1 -0.1 -0.1
v -0.1 -0.1 -0.2
v -0.1 0 0.6
v -0.1 0 0.5
v -0.1 0 0.4
v -0.1 0 0.2
v -0.1 0 0.1
v -0.1 0 -0.1
v -0.1 0 -0.2
v -0.1 0 -0.4
v -0.1 0 -0.5
v -0.1 0 -0.6
v -0.1 0.1 0.6
v -0.1 0.1 0.5
v -0.1 0.1 0.4
v -0.1 0.1 0.2
v -0.1 0.1 0.1
v -0.1 0.1 -0.1
v -0.1 0.1 -0.2
v -0.1 0.1 -0.4
v -0.1 0.1 -0.5
v -0.1 0.1 -0.6
v -0.1 0.2 0.2
v -0.1 0.2 0.1
v -0.1 0.2 -0.1
v -0.1 0.2 -0.2
v 0.4 0 0.2
v 0.4 0 0.1
v 0.4 0 -0.1
v 0.4 0 -0.2
v 0.4 0.1 0.2
v 0.4 0.1 0.1
v 0.4 0.1 -0.1
v 0.4 0.1 -0.2
v -0.4 0 0.2
v -0.4 0 0.1
v -0.4 0 -0.1
v -0.4 0 -0.2
v -0.4 0.1 0.2
v -0.4 0.1 0.1
v -0.4 0.1 -0.1
v -0.4 0.1 -0.2
v 0.1 -0.1 0.2
v 0.1 -0.1 0.1
v 0.1 -0.1 -0.1
v 0.1 -0.1 -0.2
v 0.1 0 0.6
v 0.1 0 0.5
v 0.1 0 0.4
v 0.1 0 0.2
v 0.1 0 0.1
v 0.1 0 -0.1
v 0.1 0 -0.2
v 0.1 0 -0.4
v 0.1 0 -0.5
v 0.1 0 -0.6
v 0.1 0.1 0.6
v 0.1 0.1 0.5
v 0.1 0.1 0.4
v 0.1 0.1 0.2
v 0.1 0.1 0.1
v 0.1 0.1 -0.1
v 0.1 0.1 -0.2
v 0.1 0.1 -0.4
v 0.1 0.1 -0.5
v 0.1 0.1 -0.6
v 0.1 0.2 0.2
v 0.1 0.2 0.1
v 0.1 0.2 -0.1
v 0.1 0.2 -0.2
v 0.2 -0.1 0.1
v 0.2 -0.1 -0.1
v 0.2 0 0.5
v 0.2 0 0.4
v 0.2 0 0.2
v 0.2 0 0.1
v 0.2 0 -0.1
v 0.2 0 -0.2
v 0.2 0 -0.4
v 0.2 0 -0.5
v 0.2 0.1 0.5
v 0.2 0.1 0.4
v 0.2 0.1 0.2
v 0.2 0.1 0.1
v 0.2 0.1 -0.1
v 0.2 0.1 -0.2
v 0.2 0.1 -0.4
v 0.2 0.1 -0.5
v 0.2 0.2 0.1
v 0.2 0.2 -0.1
v 0.5 0 0.2
v 0.5 0 0.1
v 0.5 0 -0.1
v 0.5 0 -0.2
v 0.5 0.1 0.2
v 0.5 0.1 0.1
v 0.5 0.1 -0.1
v 0.5 0.1 -0.2
v 0.6 0 0.1
v 0.6 0 -0.1
v 0.6 0.1 0.1
v 0.6 0.1 -0.1
v -0.1 0 0.6
v -0.1 0.1 0.6
v 0.1 0 0.6
v 0.1 0.1 0.6
v -0.2 0 0.5
v -0.2 0.1 0.5
v -0.1 0 0.5
v -0.1 0.1 0.5
v 0.1 0 0.5
v 0.1 0.1 0.5
v 0.2 0 0.5
v 0.2 0.1 0.5
v -0.5 0 0.2
v -0.5 0.1 0.2
v -0.4 0 0.2
v -0.4 0.1 0.2
v -0.2 0 0.2
v -0.2 0.1 0.2
v -0.1 -0.1 0.2
v -0.1 0 0.2
v -0.1 0.1 0.2
v -0.1 0.2 0.2
v 0.1 -0.1 0.2
v 0.1 0 0.2
v 0.1 0.1 0.2
v 0.1 0.2 0.2
v 0.2 0 0.2
v 0.2 0.1 0.2
v 0.4 0 0.2
v 0.4 0.1 0.2
v 0.5 0 0.2
v 0.5 0.1 0.2
v -0.6 0 0.1
v -0.6 0.1 0.1
v -0.5 0 0.1
v -0.5 0.1 0.1
v -0.4 0 0.1
v -0.4 0.1 0.1
v -0.2 -0.1 0.1
v -0.2 0 0.1
v -0.2 0.1 0.1
v -0.2 0.2 0.1
v -0.1 -0.1 0.1
v -0.1 0 0.1
v -0.1 0.1 0.1
v -0.1 0.2 0.1
v 0.1 -0.1 0.1
v 0.1 0 0.1
v 0.1 0.1 0.1
v 0.1 0.2 0.1
v 0.2 -0.1 0.1
v 0.2 0 0.1
v 0.2 0.1 0.1
v 0.2 0.2 0.1
v 0.4 0 0.1
v 0.4 0.1 0.1
v 0.5 0 0.1
v 0.5 0.1 0.1
v 0.6 0 0.1
v 0.6 0.1 0.1
v -0.2 0 -0.4
v -0.2 0.1 -0.4
v -0.1 0 -0.4
v -0.1 0.1 -0.4
v 0.1 0 -0.4
v 0.1 0.1 -0.4
v 0.2 0 -0.4
v 0.2 0.1 -0.4
v -0.2 0 0.4
v -0.2 0.1 0.4
v -0.1 0 0.4
v -0.1 0.1 0.4
v 0.1 0 0.4
v 0.1 0.1 0.4
v 0.2 0 0.4
v 0.2 0.1 0.4
v -0.6 0 -0.1
v -0.6 0.1 -0.1
v -0.5 0 -0.1
v -0.5 0.1 -0.1
v -0.4 0 -0.1
v -0.4 0.1 -0.1
v -0.2 -0.1 -0.1
v -0.2 0 -0.1
v -0.2 0.1 -0.1
v -0.2 0.2 -0.1
v -0.1 -0.1 -0.1
v -0.1 0 -0.1
v -0.1 0.1 -0.1
v -0.1 0.2 -0.1
v 0.1 -0.1 -0.1
v 0.1 0 -0.1
v 0.1 0.1 -0.1
v 0.1 0.2 -0.1
v 0.2 -0.1 -0.1
v 0.2 0 -0.1
v 0.2 0.1 -0.1
v 0.2 0.2 -0.1
v 0.4 0 -0.1
v 0.4 0.1 -0.1
v 0.5 0 -0.1
v 0.5 0.1 -0.1
v 0.6 0 -0.1
v 0.6 0.1 -0.1
v -0.5 0 -0.2
v -0.5 0.1 -0.2
v -0.4 0 -0.2
v -0.4 0.1 -0.2
v -0.2 0 -0.2
v -0.2 0.1 -0.2
v -0.1 -0.1 -0.2
v -0.1 0 -0.2
v -0.1 0.1 -0.2
v -0.1 0.2 -0.2
v 0.1 -0.1 -0.2
v 0.1 0 -0.2
v 0.1 0.1 -0.2
v 0.1 0.2 -0.2
v 0.2 0 -0.2
v 0.2 0.1 -0.2
v 0.4 0 -0.2
v 0.4 0.1 -0.2
v 0.5 0 -0.2
v 0.5 0.1 -0.2
v -0.2 0 -0.5
v -0.2 0.1 -0.5
v -0.1 0 -0.5
v -0.1 0.1 -0.5
v 0.1 0 -0.5
v 0.1 0.1 -0.5
v 0.2 0 -0.5
v 0.2 0.1 -0.5
v -0.1 0 -0.6
v -0.1 0.1 -0.6
v 0.1 0 -0.6
v 0.1 0.1 -0.6
v -0.1 -0.1 0.2
v 0.1 -0.1 0.2
v -0.2 -0.1 0.1
v -0.1 -0.1 0.1
v 0.1 -0.1 0.1
v 0.2 -0.1 0.1
v -0.2 -0.1 -0.1
v -0.1 -0.1 -0.1
v 0.1 -0.1 -0.1
v 0.2 -0.1 -0.1
v -0.1 -0.1 -0.2
v 0.1 -0.1 -0.2
v -0.1 0 0.6
v 0.1 0 0.6
v -0.2 0 0.5
v -0.1 0 0.5
v 0.1 0 0.5
v 0.2 0 0.5
v -0.2 0 0.4
v -0.1 0 0.4
v 0.1 0 0.4
v 0.2 0 0.4
v -0.5 0 0.2
v -0.4 0 0.2
v -0.2 0 0.2
v -0.1 0 0.2
v 0.1 0 0.2
v 0.2 0 0.2
v 0.4 0 0.2
v 0.5 0 0.2
v -0.6 0 0.1
v -0.5 0 0.1
v -0.4 0 0.1
v -0.2 0 0.1
v -0.1 0 0.1
v 0.1 0 0.1
v 0.2 0 0.1
v 0.4 0 0.1
v 0.5 0 0.1
v 0.6 0 0.1
v -0.6 0 -0.1
v -0.5 0 -0.1
v -0.4 0 -0.1
v -0.2 0 -0.1
v -0.1 0 -0.1
v 0.1 0 -0.1
v 0.2 0 -0.1
v 0.4 0 -0.1
v 0.5 0 -0.1
v 0.6 0 -0.1
v -0.5 0 -0.2
v -0.4 0 -0.2
v -0.2 0 -0.2
v -0.1 0 -0.2
v 0.1 0 -0.2
v 0.2 0 -0.2
v 0.4 0 -0.2
v 0.5 0 -0.2
v -0.2 0 -0.4
v -0.1 0 -0.4
v 0.1 0 -0.4
v 0.2 0 -0.4
v -0.2 0 -0.5
v -0.1 0 -0.5
v 0.1 0 -0.5
v 0.2 0 -0.5
v -0.1 0 -0.6
v 0.1 0 -0.6
v -0.1 0.1 0.6
v 0.1 0.1 0.6
v -0.2 0.1 0.5
v -0.1 0.1 0.5
v 0.1 0.1 0.5
v 0.2 0.1 0.5
v -0.2 0.1 0.4
v -0.1 0.1 0.4
v 0.1 0.1 0.4
v 0.2 0.1 0.4
v -0.5 0.1 0.2
v -0.4 0.1 0.2
v -0.2 0.1 0.2
v -0.1 0.1 0.2
v 0.1 0.1 0.2
v 0.2 0.1 0.2
v 0.4 0.1 0.2
v 0.5 0.1 0.2
v -0.6 0.1 0.1
v -0.5 0.1 0.1
v -0.4 0.1 0.1
v -0.2 0.1 0.1
v -0.1 0.1 0.1
v 0.1 0.1 0.1
v 0.2 0.1 0.1
v 0.4 0.1 0.1
v 0.5 0.1 0.1
v 0.6 0.1 0.1
v -0.6 0.1 -0.1
v -0.5 0.1 -0.1
v -0.4 0.1 -0.1
v -0.2 0.1 -0.1
v -0.1 0.1 -0.1
v 0.1 0.1 -0.1
v 0.2 0.1 -0.1
v 0.4 0.1 -0.1
v 0.5 0.1 -0.1
v 0.6 0.1 -0.1
v -0.5 0.1 -0.2
v -0.4 0.1 -0.2
v -0.2 0.1 -0.2
v -0.1 0.1 -0.2
v 0.1 0.1 -0.2
v 0.2 0.1 -0.2
v 0.4 0.1 -0.2
v 0.5 0.1 -0.2
v -0.2 0.1 -0.4
v -0.1 0.1 -0.4
v 0.1 0.1 -0.4
v 0.2 0.1 -0.4
v -0.2 0.1 -0.5
v -0.1 0.1 -0.5
v 0.1 0.1 -0.5
v 0.2 0.1 -0.5
v -0.1 0.1 -0.6
v 0.1 0.1 -0.6
v -0.1 0.2 0.2
v 0.1 0.2 0.2
v -0.2 0.2 0.1
v -0.1 0.2 0.1
v 0.1 0.2 0.1
v 0.2 0.2 0.1
v -0.2 0.2 -0.1
v -0.1 0.2 -0.1
v 0.1 0.2 -0.1
v 0.2 0.2 -0.1
v -0.1 0.2 -0.2
v 0.1 0.2 -0.2

# faces
f 3/3/1 2/3/1 1/3/1
f 4/3/1 2/3/1 3/3/1
f 9/3/1 6/3/1 5/3/1
f 10/3/1 6/3/1 9/3/1
f 11/3/1 8/3/1 7/3/1
f 12/3/1 8/3/1 11/3/1
f 18/1/1 14/1/1 13/1/1
f 19/1/1 14/1/1 18/1/1
f 23/3/1 16/3/1 15/3/1
f 24/3/1 16/3/1 23/3/1
f 25/1/1 18/1/1 17/1/1
f 26/1/1 18/1/1 25/1/1
f 27/1/1 20/1/1 19/1/1
f 28/1/1 20/1/1 27/1/1
f 29/3/1 22/3/1 21/3/1
f 30/3/1 22/3/1 29/3/1
f 31/1/1 27/1/1 26/1/1
f 32/1/1 27/1/1 31/1/1
f 40/1/1 34/1/1 33/1/1
f 41/1/1 34/1/1 40/1/1
f 42/1/1 36/1/1 35/1/1
f 43/1/1 36/1/1 42/1/1
f 47/3/1 38/3/1 37/3/1
f 48/3/1 38/3/1 47/3/1
f 49/3/1 40/3/1 39/3/1
f 50/3/1 40/3/1 49/3/1
f 53/3/1 44/3/1 43/3/1
f 54/3/1 44/3/1 53/3/1
f 55/3/1 46/3/1 45/3/1
f 56/3/1 46/3/1 55/3/1
f 57/1/1 51/1/1 50/1/1
f 58/1/1 51/1/1 57/1/1
f 59/1/1 53/1/1 52/1/1
f 60/1/1 53/1/1 59/1/1
f 65/3/1 62/3/1 61/3/1
f 66/3/1 62/3/1 65/3/1
f 67/3/1 64/3/1 63/3/1
f 68/3/1 64/3/1 67/3/1
f 69/3/2 70/3/2 73/3/2
f 73/3/2 70/3/2 74/3/2
f 71/3/2 72/3/2 75/3/2
f 75/3/2 72/3/2 76/3/2
f 77/1/2 78/1/2 84/1/2
f 84/1/2 78/1/2 85/1/2
f 79/1/2 80/1/2 86/1/2
f 86/1/2 80/1/2 87/1/2
f 81/3/2 82/3/2 91/3/2
f 91/3/2 82/3/2 92/3/2
f 83/3/2 84/3/2 93/3/2
f 93/3/2 84/3/2 94/3/2
f 87/3/2 88/3/2 97/3/2
f 97/3/2 88/3/2 98/3/2
f 89/3/2 90/3/2 99/3/2
f 99/3/2 90/3/2 100/3/2
f 94/1/2 95/1/2 101/1/2
f 101/1/2 95/1/2 102/1/2
f 96/1/2 97/1/2 103/1/2
f 103/1/2 97/1/2 104/1/2
f 105/1/2 106/1/2 110/1/2
f 110/1/2 106/1/2 111/1/2
f 107/3/2 108/3/2 115/3/2
f 115/3/2 108/3/2 116/3/2
f 109/1/2 110/1/2 117/1/2
f 117/1/2 110/1/2 118/1/2
f 111/1/2 112/1/2 119/1/2
f 119/1/2 112/1/2 120/1/2
f 113/3/2 114/3/2 121/3/2
f 121/3/2 114/3/2 122/3/2
f 118/1/2 119/1/2 123/1/2
f 123/1/2 119/1/2 124/1/2
f 125/3/2 126/3/2 129/3/2
f 129/3/2 126/3/2 130/3/2
f 127/3/2 128/3/2 131/3/2
f 131/3/2 128/3/2 132/3/2
f 133/3/2 134/3/2 135/3/2
f 135/3/2 134/3/2 136/3/2
f 139/3/3 138/3/3 137/3/3
f 140/3/3 138/3/3 139/3/3
f 143/3/3 142/3/3 141/3/3
f 144/3/3 142/3/3 143/3/3
f 147/3/3 146/3/3 145/3/3
f 148/3/3 146/3/3 147/3/3
f 151/3/3 150/3/3 149/3/3
f 152/3/3 150/3/3 151/3/3
f 156/1/3 154/1/3 153/1/3
f 157/1/3 154/1/3 156/1/3
f 159/1/3 156/1/3 155/1/3
f 160/1/3 156/1/3 159/1/3
f 161/1/3 158/1/3 157/1/3
f 162/1/3 158/1/3 161/1/3
f 163/1/3 161/1/3 160/1/3
f 164/1/3 161/1/3 163/1/3
f 167/3/3 166/3/3 165/3/3
f 168/3/3 166/3/3 167/3/3
f 171/3/3 170/3/3 169/3/3
f 172/3/3 170/3/3 171/3/3
f 176/3/3 174/3/3 173/3/3
f 177/3/3 174/3/3 176/3/3
f 179/1/3 176/1/3 175/1/3
f 180/1/3 176/1/3 179/1/3
f 181/1/3 178/1/3 177/1/3
f 182/1/3 178/1/3 181/1/3
f 187/1/3 184/1/3 183/1/3
f 188/1/3 184/1/3 187/1/3
f 189/1/3 186/1/3 185/1/3
f 190/1/3 186/1/3 189/1/3
f 191/3/3 189/3/3 188/3/3
f 192/3/3 189/3/3 191/3/3
f 195/3/3 194/3/3 193/3/3
f 196/3/3 194/3/3 195/3/3
f 199/3/3 198/3/3 197/3/3
f 200/3/3 198/3/3 199/3/3
f 203/3/3 202/3/3 201/3/3
f 204/3/3 202/3/3 203/3/3
f 205/3/4 206/3/4 207/3/4
f 207/3/4 206/3/4 208/3/4
f 209/3/4 210/3/4 211/3/4
f 211/3/4 210/3/4 212/3/4
f 213/3/4 214/3/4 215/3/4
f 215/3/4 214/3/4 216/3/4
f 217/3/4 218/3/4 220/3/4
f 220/3/4 218/3/4 221/3/4
f 219/1/4 220/1/4 223/1/4
f 223/1/4 220/1/4 224/1/4
f 221/1/4 222/1/4 225/1/4
f 225/1/4 222/1/4 226/1/4
f 227/1/4 228/1/4 231/1/4
f 231/1/4 228/1/4 232/1/4
f 229/1/4 230/1/4 233/1/4
f 233/1/4 230/1/4 234/1/4
f 232/3/4 233/3/4 235/3/4
f 235/3/4 233/3/4 236/3/4
f 237/3/4 238/3/4 239/3/4
f 239/3/4 238/3/4 240/3/4
f 241/3/4 242/3/4 243/3/4
f 243/3/4 242/3/4 244/3/4
f 245/1/4 246/1/4 248/1/4
f 248/1/4 246/1/4 249/1/4
f 247/1/4 248/1/4 251/1/4
f 251/1/4 248/1/4 252/1/4
f 249/1/4 250/1/4 253/1/4
f 253/1/4 250/1/4 254/1/4
f 252/1/4 253/1/4 255/1/4
f 255/1/4 253/1/4 256/1/4
f 257/3/4 258/3/4 259/3/4
f 259/3/4 258/3/4 260/3/4
f 261/3/4 262/3/4 263/3/4
f 263/3/4 262/3/4 264/3/4
f 265/3/4 266/3/4 267/3/4
f 267/3/4 266/3/4 268/3/4
f 269/3/4 270/3/4 271/3/4
f 271/3/4 270/3/4 272/3/4
f 276/1/5 274/1/5 273/1/5
f 277/1/5 274/1/5 276/1/5
f 279/1/5 276/1/5 275/1/5
f 280/2/5 277/2/5 276/2/5
f 280/1/5 276/1/5 279/1/5
f 281/1/5 278/1/5 277/1/5
f 281/2/5 277/2/5 280/2/5
f 282/1/5 278/1/5 281/1/5
f 283/1/5 281/1/5 280/1/5
f 284/1/5 281/1/5 283/1/5
f 288/3/5 286/3/5 285/3/5
f 289/3/5 286/3/5 288/3/5
f 291/3/5 288/3/5 287/3/5
f 291/3/5 290/3/5 289/3/5
f 291/3/5 289/3/5 288/3/5
f 292/3/5 290/3/5 291/3/5
f 293/3/5 290/3/5 292/3/5
f 294/3/5 290/3/5 293/3/5
f 298/3/5 293/3/5 292/3/5
f 299/3/5 293/3/5 298/3/5
f 304/3/5 296/3/5 295/3/5
f 305/3/5 296/3/5 304/3/5
f 306/1/5 298/1/5 297/1/5
f 307/1/5 298/1/5 306/1/5
f 308/1/5 300/1/5 299/1/5
f 309/1/5 300/1/5 308/1/5
f 310/3/5 302/3/5 301/3/5
f 311/3/5 302/3/5 310/3/5
f 313/3/5 305/3/5 304/3/5
f 313/3/5 304/3/5 303/3/5
f 313/3/5 306/3/5 305/3/5
f 314/3/5 306/3/5 313/3/5
f 315/3/5 306/3/5 314/3/5
f 316/3/5 306/3/5 315/3/5
f 319/3/5 312/3/5 311/3/5
f 319/3/5 311/3/5 310/3/5
f 319/3/5 310/3/5 309/3/5
f 320/3/5 312/3/5 319/3/5
f 321/3/5 312/3/5 320/3/5
f 322/3/5 312/3/5 321/3/5
f 323/3/5 315/3/5 314/3/5
f 324/3/5 315/3/5 323/3/5
f 325/1/5 317/1/5 316/1/5
f 326/1/5 317/1/5 325/1/5
f 327/1/5 319/1/5 318/1/5
f 328/1/5 319/1/5 327/1/5
f 329/3/5 321/3/5 320/3/5
f 330/3/5 321/3/5 329/3/5
f 332/3/5 327/3/5 326/3/5
f 333/3/5 327/3/5 332/3/5
f 335/3/5 332/3/5 331/3/5
f 335/3/5 334/3/5 333/3/5
f 335/3/5 333/3/5 332/3/5
f 336/3/5 334/3/5 335/3/5
f 337/3/5 334/3/5 336/3/5
f 338/3/5 334/3/5 337/3/5
f 339/3/5 337/3/5 336/3/5
f 340/3/5 337/3/5 339/3/5
f 341/3/6 342/3/6 344/3/6
f 344/3/6 342/3/6 345/3/6
f 343/3/6 344/3/6 347/3/6
f 345/3/6 346/3/6 347/3/6
f 344/3/6 345/3/6 347/3/6
f 347/3/6 346/3/6 348/3/6
f 348/3/6 346/3/6 349/3/6
f 349/3/6 346/3/6 350/3/6
f 348/3/6 349/3/6 354/3/6
f 354/3/6 349/3/6 355/3/6
f 351/3/6 352/3/6 360/3/6
f 360/3/6 352/3/6 361/3/6
f 353/1/6 354/1/6 362/1/6
f 362/1/6 354/1/6 363/1/6
f 355/1/6 356/1/6 364/1/6
f 364/1/6 356/1/6 365/1/6
f 357/3/6 358/3/6 366/3/6
f 366/3/6 358/3/6 367/3/6
f 360/3/6 361/3/6 369/3/6
f 359/3/6 360/3/6 369/3/6
f 361/3/6 362/3/6 369/3/6
f 369/3/6 362/3/6 370/3/6
f 370/3/6 362/3/6 371/3/6
f 371/3/6 362/3/6 372/3/6
f 367/3/6 368/3/6 375/3/6
f 366/3/6 367/3/6 375/3/6
f 365/3/6 366/3/6 375/3/6
f 375/3/6 368/3/6 376/3/6
f 376/3/6 368/3/6 377/3/6
f 377/3/6 368/3/6 378/3/6
f 370/3/6 371/3/6 379/3/6
f 379/3/6 371/3/6 380/3/6
f 372/1/6 373/1/6 381/1/6
f 381/1/6 373/1/6 382/1/6
f 374/1/6 375/1/6 383/1/6
f 383/1/6 375/1/6 384/1/6
f 376/3/6 377/3/6 385/3/6
f 385/3/6 377/3/6 386/3/6
f 382/3/6 383/3/6 388/3/6
f 388/3/6 383/3/6 389/3/6
f 387/3/6 388/3/6 391/3/6
f 389/3/6 390/3/6 391/3/6
f 388/3/6 389/3/6 391/3/6
f 391/3/6 390/3/6 392/3/6
f 392/3/6 390/3/6 393/3/6
f 393/3/6 390/3/6 394/3/6
f 392/3/6 393/3/6 395/3/6
f 395/3/6 393/3/6 396/3/6
f 397/1/6 398/1/6 400/1/6
f 400/1/6 398/1/6 401/1/6
f 399/1/6 400/1/6 403/1/6
f 400/2/6 401/2/6 404/2/6
f 403/1/6 400/1/6 404/1/6
f 401/1/6 402/1/6 405/1/6
f 404/2/6 401/2/6 405/2/6
f 405/1/6 402/1/6 406/1/6
f 404/1/6 405/1/6 407/1/6
f 407/1/6 405/1/6 408/1/6
