# MagicaVoxel @ Ephtracy

# group
o 

# material
mtllib key.mtl
usemtl palette

# normals
vn -1 0 0
vn 1 0 0
vn 0 0 1
vn 0 0 -1
vn 0 -1 0
vn 0 1 0

# texcoords
vt 0.966797 0.5
vt 0.990234 0.5

# verts
v -0.3 0.1 1.49012e-08
v -0.3 0.1 -0.1
v -0.3 0.2 1.49012e-08
v -0.3 0.2 -0.1
v -0.3 0.7 1.49012e-08
v -0.3 0.7 -0.1
v -0.3 1 1.49012e-08
v -0.3 1 -0.1
v -0.2 0 1.49012e-08
v -0.2 0 -0.1
v -0.2 0.1 0.1
v -0.2 0.1 1.49012e-08
v -0.2 0.1 -0.1
v -0.2 0.1 -0.2
v -0.2 0.2 0.1
v -0.2 0.2 1.49012e-08
v -0.2 0.2 -0.1
v -0.2 0.2 -0.2
v -0.2 0.4 1.49012e-08
v -0.2 0.4 -0.1
v -0.2 0.6 1.49012e-08
v -0.2 0.6 -0.1
v -0.2 0.7 0.1
v -0.2 0.7 1.49012e-08
v -0.2 0.7 -0.1
v -0.2 0.7 -0.2
v -0.2 1 0.1
v -0.2 1 1.49012e-08
v -0.2 1 -0.1
v -0.2 1 -0.2
v -0.2 1.1 1.49012e-08
v -0.2 1.1 -0.1
v -0.1 0.3 0.1
v -0.1 0.3 1.49012e-08
v -0.1 0.3 -0.1
v -0.1 0.3 -0.2
v -0.1 0.4 0.1
v -0.1 0.4 1.49012e-08
v -0.1 0.4 -0.1
v -0.1 0.4 -0.2
v -0.1 0.6 0.1
v -0.1 0.6 1.49012e-08
v -0.1 0.6 -0.1
v -0.1 0.6 -0.2
v -0.1 0.7 0.1
v -0.1 0.7 1.49012e-08
v -0.1 0.7 -0.1
v -0.1 0.7 -0.2
v -0.1 1 0.1
v -0.1 1 1.49012e-08
v -0.1 1 -0.1
v -0.1 1 -0.2
v -0.1 1.1 0.1
v -0.1 1.1 1.49012e-08
v -0.1 1.1 -0.1
v -0.1 1.1 -0.2
v -0.1 1.2 1.49012e-08
v -0.1 1.2 -0.1
v -2.98023e-08 0.2 0.1
v -2.98023e-08 0.2 1.49012e-08
v -2.98023e-08 0.2 -0.1
v -2.98023e-08 0.2 -0.2
v -2.98023e-08 0.3 0.1
v -2.98023e-08 0.3 1.49012e-08
v -2.98023e-08 0.3 -0.1
v -2.98023e-08 0.3 -0.2
v -2.98023e-08 0.4 0.1
v -2.98023e-08 0.4 1.49012e-08
v -2.98023e-08 0.4 -0.1
v -2.98023e-08 0.4 -0.2
v -2.98023e-08 0.6 0.1
v -2.98023e-08 0.6 1.49012e-08
v -2.98023e-08 0.6 -0.1
v -2.98023e-08 0.6 -0.2
v 0.1 0.7 1.49012e-08
v 0.1 0.7 -0.1
v 0.1 0.8 1.49012e-08
v 0.1 0.8 -0.1
v 0.1 0.9 1.49012e-08
v 0.1 0.9 -0.1
v 0.1 1 1.49012e-08
v 0.1 1 -0.1
v 0.2 0.7 0.1
v 0.2 0.7 1.49012e-08
v 0.2 0.7 -0.1
v 0.2 0.7 -0.2
v 0.2 0.8 1.49012e-08
v 0.2 0.8 -0.1
v 0.2 0.9 1.49012e-08
v 0.2 0.9 -0.1
v 0.2 1 0.1
v 0.2 1 1.49012e-08
v 0.2 1 -0.1
v 0.2 1 -0.2
v -0.1 0.7 0.1
v -0.1 0.7 1.49012e-08
v -0.1 0.7 -0.1
v -0.1 0.7 -0.2
v -0.1 0.8 1.49012e-08
v -0.1 0.8 -0.1
v -0.1 0.9 1.49012e-08
v -0.1 0.9 -0.1
v -0.1 1 0.1
v -0.1 1 1.49012e-08
v -0.1 1 -0.1
v -0.1 1 -0.2
v -2.98023e-08 0.7 1.49012e-08
v -2.98023e-08 0.7 -0.1
v -2.98023e-08 0.8 1.49012e-08
v -2.98023e-08 0.8 -0.1
v -2.98023e-08 0.9 1.49012e-08
v -2.98023e-08 0.9 -0.1
v -2.98023e-08 1 1.49012e-08
v -2.98023e-08 1 -0.1
v 0.1 0 1.49012e-08
v 0.1 0 -0.1
v 0.1 0.1 0.1
v 0.1 0.1 1.49012e-08
v 0.1 0.1 -0.1
v 0.1 0.1 -0.2
v 0.1 0.6 0.1
v 0.1 0.6 1.49012e-08
v 0.1 0.6 -0.1
v 0.1 0.6 -0.2
v 0.2 0.1 1.49012e-08
v 0.2 0.1 -0.1
v 0.2 0.6 0.1
v 0.2 0.6 1.49012e-08
v 0.2 0.6 -0.1
v 0.2 0.6 -0.2
v 0.2 0.7 0.1
v 0.2 0.7 1.49012e-08
v 0.2 0.7 -0.1
v 0.2 0.7 -0.2
v 0.2 1 0.1
v 0.2 1 1.49012e-08
v 0.2 1 -0.1
v 0.2 1 -0.2
v 0.2 1.1 0.1
v 0.2 1.1 1.49012e-08
v 0.2 1.1 -0.1
v 0.2 1.1 -0.2
v 0.2 1.2 1.49012e-08
v 0.2 1.2 -0.1
v 0.3 0.6 1.49012e-08
v 0.3 0.6 -0.1
v 0.3 0.7 0.1
v 0.3 0.7 1.49012e-08
v 0.3 0.7 -0.1
v 0.3 0.7 -0.2
v 0.3 1 0.1
v 0.3 1 1.49012e-08
v 0.3 1 -0.1
v 0.3 1 -0.2
v 0.3 1.1 1.49012e-08
v 0.3 1.1 -0.1
v 0.4 0.7 1.49012e-08
v 0.4 0.7 -0.1
v 0.4 1 1.49012e-08
v 0.4 1 -0.1
v -0.2 0.1 0.1
v -0.2 0.2 0.1
v -0.2 0.7 0.1
v -0.2 1 0.1
v -0.1 0.3 0.1
v -0.1 0.4 0.1
v -0.1 0.6 0.1
v -0.1 0.7 0.1
v -0.1 1 0.1
v -0.1 1.1 0.1
v -2.98023e-08 0.2 0.1
v -2.98023e-08 0.3 0.1
v -2.98023e-08 0.4 0.1
v -2.98023e-08 0.6 0.1
v 0.1 0.1 0.1
v 0.1 0.6 0.1
v 0.2 0.6 0.1
v 0.2 0.7 0.1
v 0.2 1 0.1
v 0.2 1.1 0.1
v 0.3 0.7 0.1
v 0.3 1 0.1
v -0.3 0.1 1.49012e-08
v -0.3 0.2 1.49012e-08
v -0.3 0.7 1.49012e-08
v -0.3 1 1.49012e-08
v -0.2 0 1.49012e-08
v -0.2 0.1 1.49012e-08
v -0.2 0.2 1.49012e-08
v -0.2 0.4 1.49012e-08
v -0.2 0.6 1.49012e-08
v -0.2 0.7 1.49012e-08
v -0.2 1 1.49012e-08
v -0.2 1.1 1.49012e-08
v -0.1 0.3 1.49012e-08
v -0.1 0.4 1.49012e-08
v -0.1 0.6 1.49012e-08
v -0.1 0.7 1.49012e-08
v -0.1 0.8 1.49012e-08
v -0.1 0.9 1.49012e-08
v -0.1 1 1.49012e-08
v -0.1 1.1 1.49012e-08
v -0.1 1.2 1.49012e-08
v -2.98023e-08 0.2 1.49012e-08
v -2.98023e-08 0.3 1.49012e-08
v -2.98023e-08 0.4 1.49012e-08
v -2.98023e-08 0.6 1.49012e-08
v -2.98023e-08 0.7 1.49012e-08
v -2.98023e-08 0.8 1.49012e-08
v -2.98023e-08 0.9 1.49012e-08
v -2.98023e-08 1 1.49012e-08
v 0.1 0 1.49012e-08
v 0.1 0.1 1.49012e-08
v 0.1 0.6 1.49012e-08
v 0.1 0.7 1.49012e-08
v 0.1 0.8 1.49012e-08
v 0.1 0.9 1.49012e-08
v 0.1 1 1.49012e-08
v 0.2 0.1 1.49012e-08
v 0.2 0.6 1.49012e-08
v 0.2 0.7 1.49012e-08
v 0.2 0.8 1.49012e-08
v 0.2 0.9 1.49012e-08
v 0.2 1 1.49012e-08
v 0.2 1.1 1.49012e-08
v 0.2 1.2 1.49012e-08
v 0.3 0.6 1.49012e-08
v 0.3 0.7 1.49012e-08
v 0.3 1 1.49012e-08
v 0.3 1.1 1.49012e-08
v 0.4 0.7 1.49012e-08
v 0.4 1 1.49012e-08
v -0.3 0.1 -0.1
v -0.3 0.2 -0.1
v -0.3 0.7 -0.1
v -0.3 1 -0.1
v -0.2 0 -0.1
v -0.2 0.1 -0.1
v -0.2 0.2 -0.1
v -0.2 0.4 -0.1
v -0.2 0.6 -0.1
v -0.2 0.7 -0.1
v -0.2 1 -0.1
v -0.2 1.1 -0.1
v -0.1 0.3 -0.1
v -0.1 0.4 -0.1
v -0.1 0.6 -0.1
v -0.1 0.7 -0.1
v -0.1 0.8 -0.1
v -0.1 0.9 -0.1
v -0.1 1 -0.1
v -0.1 1.1 -0.1
v -0.1 1.2 -0.1
v -2.98023e-08 0.2 -0.1
v -2.98023e-08 0.3 -0.1
v -2.98023e-08 0.4 -0.1
v -2.98023e-08 0.6 -0.1
v -2.98023e-08 0.7 -0.1
v -2.98023e-08 0.8 -0.1
v -2.98023e-08 0.9 -0.1
v -2.98023e-08 1 -0.1
v 0.1 0 -0.1
v 0.1 0.1 -0.1
v 0.1 0.6 -0.1
v 0.1 0.7 -0.1
v 0.1 0.8 -0.1
v 0.1 0.9 -0.1
v 0.1 1 -0.1
v 0.2 0.1 -0.1
v 0.2 0.6 -0.1
v 0.2 0.7 -0.1
v 0.2 0.8 -0.1
v 0.2 0.9 -0.1
v 0.2 1 -0.1
v 0.2 1.1 -0.1
v 0.2 1.2 -0.1
v 0.3 0.6 -0.1
v 0.3 0.7 -0.1
v 0.3 1 -0.1
v 0.3 1.1 -0.1
v 0.4 0.7 -0.1
v 0.4 1 -0.1
v -0.2 0.1 -0.2
v -0.2 0.2 -0.2
v -0.2 0.7 -0.2
v -0.2 1 -0.2
v -0.1 0.3 -0.2
v -0.1 0.4 -0.2
v -0.1 0.6 -0.2
v -0.1 0.7 -0.2
v -0.1 1 -0.2
v -0.1 1.1 -0.2
v -2.98023e-08 0.2 -0.2
v -2.98023e-08 0.3 -0.2
v -2.98023e-08 0.4 -0.2
v -2.98023e-08 0.6 -0.2
v 0.1 0.1 -0.2
v 0.1 0.6 -0.2
v 0.2 0.6 -0.2
v 0.2 0.7 -0.2
v 0.2 1 -0.2
v 0.2 1.1 -0.2
v 0.3 0.7 -0.2
v 0.3 1 -0.2
v -0.2 0 1.49012e-08
v 0.1 0 1.49012e-08
v -0.2 0 -0.1
v 0.1 0 -0.1
v -0.2 0.1 0.1
v 0.1 0.1 0.1
v -0.3 0.1 1.49012e-08
v -0.2 0.1 1.49012e-08
v 0.1 0.1 1.49012e-08
v 0.2 0.1 1.49012e-08
v -0.3 0.1 -0.1
v -0.2 0.1 -0.1
v 0.1 0.1 -0.1
v 0.2 0.1 -0.1
v -0.2 0.1 -0.2
v 0.1 0.1 -0.2
v -0.1 0.3 0.1
v -2.98023e-08 0.3 0.1
v -0.1 0.3 1.49012e-08
v -2.98023e-08 0.3 1.49012e-08
v -0.1 0.3 -0.1
v -2.98023e-08 0.3 -0.1
v -0.1 0.3 -0.2
v -2.98023e-08 0.3 -0.2
v -0.1 0.6 0.1
v -2.98023e-08 0.6 0.1
v 0.1 0.6 0.1
v 0.2 0.6 0.1
v -0.2 0.6 1.49012e-08
v -0.1 0.6 1.49012e-08
v -2.98023e-08 0.6 1.49012e-08
v 0.1 0.6 1.49012e-08
v 0.2 0.6 1.49012e-08
v 0.3 0.6 1.49012e-08
v -0.2 0.6 -0.1
v -0.1 0.6 -0.1
v -2.98023e-08 0.6 -0.1
v 0.1 0.6 -0.1
v 0.2 0.6 -0.1
v 0.3 0.6 -0.1
v -0.1 0.6 -0.2
v -2.98023e-08 0.6 -0.2
v 0.1 0.6 -0.2
v 0.2 0.6 -0.2
v -0.2 0.7 0.1
v -0.1 0.7 0.1
v 0.2 0.7 0.1
v 0.3 0.7 0.1
v -0.3 0.7 1.49012e-08
v -0.2 0.7 1.49012e-08
v -0.1 0.7 1.49012e-08
v 0.2 0.7 1.49012e-08
v 0.3 0.7 1.49012e-08
v 0.4 0.7 1.49012e-08
v -0.3 0.7 -0.1
v -0.2 0.7 -0.1
v -0.1 0.7 -0.1
v 0.2 0.7 -0.1
v 0.3 0.7 -0.1
v 0.4 0.7 -0.1
v -0.2 0.7 -0.2
v -0.1 0.7 -0.2
v 0.2 0.7 -0.2
v 0.3 0.7 -0.2
v -0.1 0.9 1.49012e-08
v -2.98023e-08 0.9 1.49012e-08
v 0.1 0.9 1.49012e-08
v 0.2 0.9 1.49012e-08
v -0.1 0.9 -0.1
v -2.98023e-08 0.9 -0.1
v 0.1 0.9 -0.1
v 0.2 0.9 -0.1
v -0.1 1 0.1
v 0.2 1 0.1
v -0.1 1 1.49012e-08
v -2.98023e-08 1 1.49012e-08
v 0.1 1 1.49012e-08
v 0.2 1 1.49012e-08
v -0.1 1 -0.1
v -2.98023e-08 1 -0.1
v 0.1 1 -0.1
v 0.2 1 -0.1
v -0.1 1 -0.2
v 0.2 1 -0.2
v -0.2 0.2 0.1
v -2.98023e-08 0.2 0.1
v -0.3 0.2 1.49012e-08
v -0.2 0.2 1.49012e-08
v -2.98023e-08 0.2 1.49012e-08
v -0.3 0.2 -0.1
v -0.2 0.2 -0.1
v -2.98023e-08 0.2 -0.1
v -0.2 0.2 -0.2
v -2.98023e-08 0.2 -0.2
v -0.1 0.4 0.1
v -2.98023e-08 0.4 0.1
v -0.2 0.4 1.49012e-08
v -0.1 0.4 1.49012e-08
v -2.98023e-08 0.4 1.49012e-08
v -0.2 0.4 -0.1
v -0.1 0.4 -0.1
v -2.98023e-08 0.4 -0.1
v -0.1 0.4 -0.2
v -2.98023e-08 0.4 -0.2
v -0.1 0.7 0.1
v 0.2 0.7 0.1
v -0.1 0.7 1.49012e-08
v -2.98023e-08 0.7 1.49012e-08
v 0.1 0.7 1.49012e-08
v 0.2 0.7 1.49012e-08
v -0.1 0.7 -0.1
v -2.98023e-08 0.7 -0.1
v 0.1 0.7 -0.1
v 0.2 0.7 -0.1
v -0.1 0.7 -0.2
v 0.2 0.7 -0.2
v -0.1 0.8 1.49012e-08
v -2.98023e-08 0.8 1.49012e-08
v 0.1 0.8 1.49012e-08
v 0.2 0.8 1.49012e-08
v -0.1 0.8 -0.1
v -2.98023e-08 0.8 -0.1
v 0.1 0.8 -0.1
v 0.2 0.8 -0.1
v -0.2 1 0.1
v -0.1 1 0.1
v 0.2 1 0.1
v 0.3 1 0.1
v -0.3 1 1.49012e-08
v -0.2 1 1.49012e-08
v -0.1 1 1.49012e-08
v 0.2 1 1.49012e-08
v 0.3 1 1.49012e-08
v 0.4 1 1.49012e-08
v -0.3 1 -0.1
v -0.2 1 -0.1
v -0.1 1 -0.1
v 0.2 1 -0.1
v 0.3 1 -0.1
v 0.4 1 -0.1
v -0.2 1 -0.2
v -0.1 1 -0.2
v 0.2 1 -0.2
v 0.3 1 -0.2
v -0.1 1.1 0.1
v 0.2 1.1 0.1
v -0.2 1.1 1.49012e-08
v -0.1 1.1 1.49012e-08
v 0.2 1.1 1.49012e-08
v 0.3 1.1 1.49012e-08
v -0.2 1.1 -0.1
v -0.1 1.1 -0.1
v 0.2 1.1 -0.1
v 0.3 1.1 -0.1
v -0.1 1.1 -0.2
v 0.2 1.1 -0.2
v -0.1 1.2 1.49012e-08
v 0.2 1.2 1.49012e-08
v -0.1 1.2 -0.1
v 0.2 1.2 -0.1

# faces
f 3/2/1 2/2/1 1/2/1
f 4/2/1 2/2/1 3/2/1
f 7/2/1 6/2/1 5/2/1
f 8/2/1 6/2/1 7/2/1
f 12/2/1 10/2/1 9/2/1
f 13/2/1 10/2/1 12/2/1
f 15/1/1 12/1/1 11/1/1
f 16/1/1 12/1/1 15/1/1
f 17/1/1 14/1/1 13/1/1
f 18/1/1 14/1/1 17/1/1
f 19/2/1 17/2/1 16/2/1
f 20/2/1 17/2/1 19/2/1
f 24/2/1 22/2/1 21/2/1
f 25/2/1 22/2/1 24/2/1
f 27/1/1 24/1/1 23/1/1
f 28/1/1 24/1/1 27/1/1
f 29/1/1 26/1/1 25/1/1
f 30/1/1 26/1/1 29/1/1
f 31/2/1 29/2/1 28/2/1
f 32/2/1 29/2/1 31/2/1
f 37/1/1 34/1/1 33/1/1
f 38/1/1 34/1/1 37/1/1
f 39/1/1 36/1/1 35/1/1
f 40/1/1 36/1/1 39/1/1
f 42/2/1 39/2/1 38/2/1
f 43/2/1 39/2/1 42/2/1
f 45/1/1 42/1/1 41/1/1
f 46/1/1 42/1/1 45/1/1
f 47/1/1 44/1/1 43/1/1
f 48/1/1 44/1/1 47/1/1
f 53/1/1 50/1/1 49/1/1
f 54/1/1 50/1/1 53/1/1
f 55/1/1 52/1/1 51/1/1
f 56/1/1 52/1/1 55/1/1
f 57/2/1 55/2/1 54/2/1
f 58/2/1 55/2/1 57/2/1
f 63/1/1 60/1/1 59/1/1
f 64/1/1 60/1/1 63/1/1
f 65/1/1 62/1/1 61/1/1
f 66/1/1 62/1/1 65/1/1
f 71/1/1 68/1/1 67/1/1
f 72/1/1 68/1/1 71/1/1
f 73/1/1 70/1/1 69/1/1
f 74/1/1 70/1/1 73/1/1
f 77/1/1 76/1/1 75/1/1
f 78/1/1 76/1/1 77/1/1
f 81/1/1 80/1/1 79/1/1
f 82/1/1 80/1/1 81/1/1
f 87/1/1 84/1/1 83/1/1
f 88/1/1 86/1/1 85/1/1
f 89/1/1 87/1/1 83/1/1
f 89/1/1 88/1/1 87/1/1
f 90/1/1 86/1/1 88/1/1
f 90/1/1 88/1/1 89/1/1
f 91/1/1 89/1/1 83/1/1
f 92/1/1 89/1/1 91/1/1
f 93/1/1 86/1/1 90/1/1
f 94/1/1 86/1/1 93/1/1
f 95/1/2 96/1/2 99/1/2
f 97/1/2 98/1/2 100/1/2
f 95/1/2 99/1/2 101/1/2
f 99/1/2 100/1/2 101/1/2
f 100/1/2 98/1/2 102/1/2
f 101/1/2 100/1/2 102/1/2
f 95/1/2 101/1/2 103/1/2
f 103/1/2 101/1/2 104/1/2
f 102/1/2 98/1/2 105/1/2
f 105/1/2 98/1/2 106/1/2
f 107/1/2 108/1/2 109/1/2
f 109/1/2 108/1/2 110/1/2
f 111/1/2 112/1/2 113/1/2
f 113/1/2 112/1/2 114/1/2
f 115/2/2 116/2/2 118/2/2
f 118/2/2 116/2/2 119/2/2
f 117/1/2 118/1/2 121/1/2
f 121/1/2 118/1/2 122/1/2
f 119/1/2 120/1/2 123/1/2
f 123/1/2 120/1/2 124/1/2
f 125/2/2 126/2/2 128/2/2
f 128/2/2 126/2/2 129/2/2
f 127/1/2 128/1/2 131/1/2
f 131/1/2 128/1/2 132/1/2
f 129/1/2 130/1/2 133/1/2
f 133/1/2 130/1/2 134/1/2
f 135/1/2 136/1/2 139/1/2
f 139/1/2 136/1/2 140/1/2
f 137/1/2 138/1/2 141/1/2
f 141/1/2 138/1/2 142/1/2
f 140/2/2 141/2/2 143/2/2
f 143/2/2 141/2/2 144/2/2
f 145/2/2 146/2/2 148/2/2
f 148/2/2 146/2/2 149/2/2
f 147/1/2 148/1/2 151/1/2
f 151/1/2 148/1/2 152/1/2
f 149/1/2 150/1/2 153/1/2
f 153/1/2 150/1/2 154/1/2
f 152/2/2 153/2/2 155/2/2
f 155/2/2 153/2/2 156/2/2
f 157/2/2 158/2/2 159/2/2
f 159/2/2 158/2/2 160/2/2
f 168/1/3 164/1/3 163/1/3
f 169/1/3 164/1/3 168/1/3
f 171/1/3 162/1/3 161/1/3
f 172/1/3 166/1/3 165/1/3
f 173/1/3 166/1/3 172/1/3
f 174/1/3 168/1/3 167/1/3
f 175/1/3 171/1/3 161/1/3
f 175/1/3 174/1/3 173/1/3
f 175/1/3 173/1/3 172/1/3
f 175/1/3 172/1/3 171/1/3
f 176/1/3 168/1/3 174/1/3
f 176/1/3 174/1/3 175/1/3
f 177/1/3 168/1/3 176/1/3
f 178/1/3 168/1/3 177/1/3
f 179/1/3 170/1/3 169/1/3
f 180/1/3 170/1/3 179/1/3
f 181/1/3 179/1/3 178/1/3
f 182/1/3 179/1/3 181/1/3
f 188/2/3 184/2/3 183/2/3
f 189/2/3 184/2/3 188/2/3
f 192/2/3 186/2/3 185/2/3
f 193/2/3 186/2/3 192/2/3
f 195/2/3 190/2/3 189/2/3
f 196/2/3 190/2/3 195/2/3
f 197/2/3 192/2/3 191/2/3
f 198/2/3 192/2/3 197/2/3
f 201/2/3 194/2/3 193/2/3
f 202/2/3 194/2/3 201/2/3
f 204/2/3 195/2/3 189/2/3
f 205/2/3 195/2/3 204/2/3
f 206/2/3 197/2/3 196/2/3
f 207/2/3 197/2/3 206/2/3
f 208/1/3 199/1/3 198/1/3
f 209/1/3 199/1/3 208/1/3
f 210/1/3 201/1/3 200/1/3
f 211/1/3 201/1/3 210/1/3
f 212/2/3 188/2/3 187/2/3
f 213/2/3 188/2/3 212/2/3
f 219/2/3 214/2/3 213/2/3
f 220/2/3 214/2/3 219/2/3
f 221/1/3 216/1/3 215/1/3
f 222/1/3 216/1/3 221/1/3
f 223/1/3 218/1/3 217/1/3
f 224/1/3 218/1/3 223/1/3
f 225/2/3 203/2/3 202/2/3
f 226/2/3 203/2/3 225/2/3
f 227/2/3 221/2/3 220/2/3
f 228/2/3 221/2/3 227/2/3
f 229/2/3 225/2/3 224/2/3
f 230/2/3 225/2/3 229/2/3
f 231/2/3 229/2/3 228/2/3
f 232/2/3 229/2/3 231/2/3
f 233/2/4 234/2/4 238/2/4
f 238/2/4 234/2/4 239/2/4
f 235/2/4 236/2/4 242/2/4
f 242/2/4 236/2/4 243/2/4
f 239/2/4 240/2/4 245/2/4
f 245/2/4 240/2/4 246/2/4
f 241/2/4 242/2/4 247/2/4
f 247/2/4 242/2/4 248/2/4
f 243/2/4 244/2/4 251/2/4
f 251/2/4 244/2/4 252/2/4
f 239/2/4 245/2/4 254/2/4
f 254/2/4 245/2/4 255/2/4
f 246/2/4 247/2/4 256/2/4
f 256/2/4 247/2/4 257/2/4
f 248/1/4 249/1/4 258/1/4
f 258/1/4 249/1/4 259/1/4
f 250/1/4 251/1/4 260/1/4
f 260/1/4 251/1/4 261/1/4
f 237/2/4 238/2/4 262/2/4
f 262/2/4 238/2/4 263/2/4
f 263/2/4 264/2/4 269/2/4
f 269/2/4 264/2/4 270/2/4
f 265/1/4 266/1/4 271/1/4
f 271/1/4 266/1/4 272/1/4
f 267/1/4 268/1/4 273/1/4
f 273/1/4 268/1/4 274/1/4
f 252/2/4 253/2/4 275/2/4
f 275/2/4 253/2/4 276/2/4
f 270/2/4 271/2/4 277/2/4
f 277/2/4 271/2/4 278/2/4
f 274/2/4 275/2/4 279/2/4
f 279/2/4 275/2/4 280/2/4
f 278/2/4 279/2/4 281/2/4
f 281/2/4 279/2/4 282/2/4
f 285/1/4 286/1/4 290/1/4
f 290/1/4 286/1/4 291/1/4
f 283/1/4 284/1/4 293/1/4
f 287/1/4 288/1/4 294/1/4
f 294/1/4 288/1/4 295/1/4
f 289/1/4 290/1/4 296/1/4
f 283/1/4 293/1/4 297/1/4
f 295/1/4 296/1/4 297/1/4
f 294/1/4 295/1/4 297/1/4
f 293/1/4 294/1/4 297/1/4
f 296/1/4 290/1/4 298/1/4
f 297/1/4 296/1/4 298/1/4
f 298/1/4 290/1/4 299/1/4
f 299/1/4 290/1/4 300/1/4
f 291/1/4 292/1/4 301/1/4
f 301/1/4 292/1/4 302/1/4
f 300/1/4 301/1/4 303/1/4
f 303/1/4 301/1/4 304/1/4
f 307/2/5 306/2/5 305/2/5
f 308/2/5 306/2/5 307/2/5
f 312/1/5 310/1/5 309/1/5
f 313/1/5 310/1/5 312/1/5
f 315/2/5 312/2/5 311/2/5
f 316/2/5 312/2/5 315/2/5
f 317/2/5 314/2/5 313/2/5
f 318/2/5 314/2/5 317/2/5
f 319/1/5 317/1/5 316/1/5
f 320/1/5 317/1/5 319/1/5
f 323/1/5 322/1/5 321/1/5
f 324/1/5 322/1/5 323/1/5
f 327/1/5 326/1/5 325/1/5
f 328/1/5 326/1/5 327/1/5
f 334/1/5 330/1/5 329/1/5
f 335/1/5 330/1/5 334/1/5
f 336/1/5 332/1/5 331/1/5
f 337/1/5 332/1/5 336/1/5
f 339/2/5 334/2/5 333/2/5
f 340/2/5 334/2/5 339/2/5
f 343/2/5 338/2/5 337/2/5
f 344/2/5 338/2/5 343/2/5
f 345/1/5 341/1/5 340/1/5
f 346/1/5 341/1/5 345/1/5
f 347/1/5 343/1/5 342/1/5
f 348/1/5 343/1/5 347/1/5
f 354/1/5 350/1/5 349/1/5
f 355/1/5 350/1/5 354/1/5
f 356/1/5 352/1/5 351/1/5
f 357/1/5 352/1/5 356/1/5
f 359/2/5 354/2/5 353/2/5
f 360/2/5 354/2/5 359/2/5
f 363/2/5 358/2/5 357/2/5
f 364/2/5 358/2/5 363/2/5
f 365/1/5 361/1/5 360/1/5
f 366/1/5 361/1/5 365/1/5
f 367/1/5 363/1/5 362/1/5
f 368/1/5 363/1/5 367/1/5
f 373/1/5 370/1/5 369/1/5
f 374/1/5 370/1/5 373/1/5
f 375/1/5 372/1/5 371/1/5
f 376/1/5 372/1/5 375/1/5
f 379/1/5 378/1/5 377/1/5
f 380/1/5 378/1/5 379/1/5
f 381/1/5 378/1/5 380/1/5
f 382/1/5 378/1/5 381/1/5
f 384/1/5 381/1/5 380/1/5
f 385/1/5 381/1/5 384/1/5
f 387/1/5 384/1/5 383/1/5
f 387/1/5 386/1/5 385/1/5
f 387/1/5 385/1/5 384/1/5
f 388/1/5 386/1/5 387/1/5
f 389/1/6 390/1/6 392/1/6
f 392/1/6 390/1/6 393/1/6
f 391/2/6 392/2/6 394/2/6
f 394/2/6 392/2/6 395/2/6
f 395/1/6 396/1/6 397/1/6
f 397/1/6 396/1/6 398/1/6
f 399/1/6 400/1/6 402/1/6
f 402/1/6 400/1/6 403/1/6
f 401/2/6 402/2/6 404/2/6
f 404/2/6 402/2/6 405/2/6
f 405/1/6 406/1/6 407/1/6
f 407/1/6 406/1/6 408/1/6
f 409/1/6 410/1/6 411/1/6
f 411/1/6 410/1/6 412/1/6
f 412/1/6 410/1/6 413/1/6
f 413/1/6 410/1/6 414/1/6
f 412/1/6 413/1/6 416/1/6
f 416/1/6 413/1/6 417/1/6
f 415/1/6 416/1/6 419/1/6
f 417/1/6 418/1/6 419/1/6
f 416/1/6 417/1/6 419/1/6
f 419/1/6 418/1/6 420/1/6
f 421/1/6 422/1/6 425/1/6
f 425/1/6 422/1/6 426/1/6
f 423/1/6 424/1/6 427/1/6
f 427/1/6 424/1/6 428/1/6
f 429/1/6 430/1/6 434/1/6
f 434/1/6 430/1/6 435/1/6
f 431/1/6 432/1/6 436/1/6
f 436/1/6 432/1/6 437/1/6
f 433/2/6 434/2/6 439/2/6
f 439/2/6 434/2/6 440/2/6
f 437/2/6 438/2/6 443/2/6
f 443/2/6 438/2/6 444/2/6
f 440/1/6 441/1/6 445/1/6
f 445/1/6 441/1/6 446/1/6
f 442/1/6 443/1/6 447/1/6
f 447/1/6 443/1/6 448/1/6
f 449/1/6 450/1/6 452/1/6
f 452/1/6 450/1/6 453/1/6
f 451/2/6 452/2/6 455/2/6
f 455/2/6 452/2/6 456/2/6
f 453/2/6 454/2/6 457/2/6
f 457/2/6 454/2/6 458/2/6
f 456/1/6 457/1/6 459/1/6
f 459/1/6 457/1/6 460/1/6
f 461/2/6 462/2/6 463/2/6
f 463/2/6 462/2/6 464/2/6
