# MagicaVoxel @ Ephtracy

# group
o Wall

# material
mtllib Dungeon-2-Wall.mtl
usemtl palette

# normals
vn -1 0 0
vn 1 0 0
vn 0 0 1
vn 0 0 -1
vn 0 -1 0
vn 0 1 0

# texcoords
vt 0.0371094 0.5
vt 0.205078 0.5
vt 0.341797 0.5
vt 0.373047 0.5
vt 0.482422 0.5

# verts
v -0.8 0 0.7
v -0.8 0 -0.8
v -0.8 0.8 0.8
v -0.8 0.8 0.7
v -0.8 0.9 0.8
v -0.8 0.9 0.7
v -0.8 1.4 0.8
v -0.8 1.4 0.7
v -0.8 1.5 0.8
v -0.8 1.5 0.7
v -0.8 1.6 0.7
v -0.8 1.6 -0.8
v -0.7 0 0.8
v -0.7 0 0.7
v -0.7 0.2 0.8
v -0.7 0.2 0.7
v -0.7 0.3 0.8
v -0.7 0.3 0.7
v -0.7 0.4 0.8
v -0.7 0.4 0.7
v -0.7 0.6 0.8
v -0.7 0.6 0.7
v -0.7 0.7 0.8
v -0.7 0.7 0.7
v 0.1 0.8 0.8
v 0.1 0.8 0.7
v 0.1 1 0.8
v 0.1 1 0.7
v 0.1 1.1 0.8
v 0.1 1.1 0.7
v 0.1 1.2 0.8
v 0.1 1.2 0.7
v 0.1 1.4 0.8
v 0.1 1.4 0.7
v 0.1 1.5 0.8
v 0.1 1.5 0.7
v -0.1 0.8 0.8
v -0.1 0.8 0.7
v -0.1 0.9 0.8
v -0.1 0.9 0.7
v -0.1 1.1 0.8
v -0.1 1.1 0.7
v -0.1 1.5 0.8
v -0.1 1.5 0.7
v 0.7 0 0.8
v 0.7 0 0.7
v 0.7 0.1 0.8
v 0.7 0.1 0.7
v 0.7 0.3 0.8
v 0.7 0.3 0.7
v 0.7 0.7 0.8
v 0.7 0.7 0.7
v 0.8 0 0.7
v 0.8 0 -0.8
v 0.8 0.8 0.8
v 0.8 0.8 0.7
v 0.8 0.9 0.8
v 0.8 0.9 0.7
v 0.8 1.4 0.8
v 0.8 1.4 0.7
v 0.8 1.5 0.8
v 0.8 1.5 0.7
v 0.8 1.6 0.7
v 0.8 1.6 -0.8
v -0.8 0.8 0.8
v -0.8 0.9 0.8
v -0.8 1.4 0.8
v -0.8 1.5 0.8
v -0.7 0 0.8
v -0.7 0.2 0.8
v -0.7 0.3 0.8
v -0.7 0.4 0.8
v -0.7 0.6 0.8
v -0.7 0.7 0.8
v -0.7 0.8 0.8
v -0.7 0.9 0.8
v -0.6 0 0.8
v -0.6 0.1 0.8
v -0.6 0.2 0.8
v -0.6 0.3 0.8
v -0.6 0.4 0.8
v -0.6 0.6 0.8
v -0.6 0.7 0.8
v -0.6 0.9 0.8
v -0.6 1 0.8
v -0.5 0 0.8
v -0.5 0.1 0.8
v -0.5 0.8 0.8
v -0.5 0.9 0.8
v -0.5 1 0.8
v -0.5 1.4 0.8
v -0.5 1.5 0.8
v -0.4 0 0.8
v -0.4 0.1 0.8
v -0.4 0.8 0.8
v -0.4 0.9 0.8
v -0.4 1 0.8
v -0.4 1.4 0.8
v -0.4 1.5 0.8
v -0.3 0 0.8
v -0.3 0.1 0.8
v -0.3 0.2 0.8
v -0.3 0.5 0.8
v -0.3 0.6 0.8
v -0.3 0.8 0.8
v -0.3 0.9 0.8
v -0.3 1 0.8
v -0.2 0 0.8
v -0.2 0.2 0.8
v -0.2 0.6 0.8
v -0.2 0.7 0.8
v -0.2 1 0.8
v -0.2 1.1 0.8
v -0.2 1.4 0.8
v -0.2 1.5 0.8
v -0.1 0 0.8
v -0.1 0.1 0.8
v -0.1 0.5 0.8
v -0.1 0.6 0.8
v -0.1 0.7 0.8
v -0.1 0.8 0.8
v -0.1 0.9 0.8
v -0.1 1.1 0.8
v -0.1 1.5 0.8
v 0 0 0.8
v 0 0.1 0.8
v 0.1 0 0.8
v 0.1 0.1 0.8
v 0.1 0.8 0.8
v 0.1 1 0.8
v 0.1 1.1 0.8
v 0.1 1.2 0.8
v 0.1 1.4 0.8
v 0.1 1.5 0.8
v 0.2 0.1 0.8
v 0.2 0.2 0.8
v 0.2 0.8 0.8
v 0.2 0.9 0.8
v 0.2 1 0.8
v 0.2 1.1 0.8
v 0.2 1.2 0.8
v 0.2 1.4 0.8
v 0.3 0 0.8
v 0.3 0.1 0.8
v 0.3 0.2 0.8
v 0.3 0.6 0.8
v 0.3 0.7 0.8
v 0.3 0.8 0.8
v 0.3 0.9 0.8
v 0.3 1.4 0.8
v 0.3 1.5 0.8
v 0.4 0 0.8
v 0.4 0.1 0.8
v 0.4 0.2 0.8
v 0.4 0.6 0.8
v 0.4 0.7 0.8
v 0.4 0.8 0.8
v 0.4 0.9 0.8
v 0.5 0 0.8
v 0.5 0.1 0.8
v 0.5 0.2 0.8
v 0.5 0.8 0.8
v 0.5 0.9 0.8
v 0.5 1 0.8
v 0.5 1.3 0.8
v 0.5 1.4 0.8
v 0.6 0.2 0.8
v 0.6 0.3 0.8
v 0.6 0.6 0.8
v 0.6 0.7 0.8
v 0.6 0.8 0.8
v 0.6 1 0.8
v 0.6 1.4 0.8
v 0.6 1.5 0.8
v 0.7 0 0.8
v 0.7 0.1 0.8
v 0.7 0.3 0.8
v 0.7 0.7 0.8
v 0.7 0.8 0.8
v 0.7 0.9 0.8
v 0.7 1.3 0.8
v 0.7 1.4 0.8
v 0.7 1.5 0.8
v 0.8 0.8 0.8
v 0.8 0.9 0.8
v 0.8 1.4 0.8
v 0.8 1.5 0.8
v -0.8 0 0.7
v -0.8 0.8 0.7
v -0.8 1.5 0.7
v -0.8 1.6 0.7
v -0.7 0 0.7
v -0.7 0.2 0.7
v -0.7 0.3 0.7
v -0.7 0.4 0.7
v -0.7 0.6 0.7
v -0.7 0.7 0.7
v -0.7 0.8 0.7
v -0.6 0.7 0.7
v -0.5 0.8 0.7
v -0.5 1.5 0.7
v -0.4 0.8 0.7
v -0.4 1.5 0.7
v -0.3 0.8 0.7
v -0.2 0.7 0.7
v -0.2 1.5 0.7
v -0.1 0.7 0.7
v -0.1 0.8 0.7
v -0.1 0.9 0.7
v -0.1 1.1 0.7
v -0.1 1.5 0.7
v 0.1 0.8 0.7
v 0.1 1 0.7
v 0.1 1.1 0.7
v 0.1 1.2 0.7
v 0.1 1.4 0.7
v 0.1 1.5 0.7
v 0.2 0.8 0.7
v 0.3 0.7 0.7
v 0.3 0.8 0.7
v 0.3 1.5 0.7
v 0.4 0.7 0.7
v 0.4 0.8 0.7
v 0.5 0.8 0.7
v 0.6 0.7 0.7
v 0.6 0.8 0.7
v 0.6 1.5 0.7
v 0.7 0 0.7
v 0.7 0.1 0.7
v 0.7 0.3 0.7
v 0.7 0.7 0.7
v 0.7 0.8 0.7
v 0.7 1.5 0.7
v 0.8 0 0.7
v 0.8 0.8 0.7
v 0.8 1.5 0.7
v 0.8 1.6 0.7
v -0.8 0 -0.8
v -0.8 1.6 -0.8
v 0.8 0 -0.8
v 0.8 1.6 -0.8
v -0.7 0 0.8
v -0.6 0 0.8
v -0.5 0 0.8
v -0.4 0 0.8
v -0.3 0 0.8
v -0.2 0 0.8
v -0.1 0 0.8
v 0 0 0.8
v 0.1 0 0.8
v 0.3 0 0.8
v 0.4 0 0.8
v 0.5 0 0.8
v 0.7 0 0.8
v -0.8 0 0.7
v -0.7 0 0.7
v -0.6 0 0.7
v -0.5 0 0.7
v -0.4 0 0.7
v -0.3 0 0.7
v -0.2 0 0.7
v -0.1 0 0.7
v 0 0 0.7
v 0.1 0 0.7
v 0.3 0 0.7
v 0.4 0 0.7
v 0.5 0 0.7
v 0.7 0 0.7
v 0.8 0 0.7
v -0.7 0 -0.7
v 0.7 0 -0.7
v -0.8 0 -0.8
v 0.8 0 -0.8
v -0.8 0.8 0.8
v -0.7 0.8 0.8
v -0.5 0.8 0.8
v -0.4 0.8 0.8
v -0.3 0.8 0.8
v -0.1 0.8 0.8
v 0.1 0.8 0.8
v 0.2 0.8 0.8
v 0.3 0.8 0.8
v 0.4 0.8 0.8
v 0.5 0.8 0.8
v 0.6 0.8 0.8
v 0.7 0.8 0.8
v 0.8 0.8 0.8
v -0.8 0.8 0.7
v -0.7 0.8 0.7
v -0.5 0.8 0.7
v -0.4 0.8 0.7
v -0.3 0.8 0.7
v -0.1 0.8 0.7
v 0.1 0.8 0.7
v 0.2 0.8 0.7
v 0.3 0.8 0.7
v 0.4 0.8 0.7
v 0.5 0.8 0.7
v 0.6 0.8 0.7
v 0.7 0.8 0.7
v 0.8 0.8 0.7
v -0.7 0.7 0.8
v -0.6 0.7 0.8
v -0.2 0.7 0.8
v -0.1 0.7 0.8
v 0.3 0.7 0.8
v 0.4 0.7 0.8
v 0.6 0.7 0.8
v 0.7 0.7 0.8
v -0.7 0.7 0.7
v -0.6 0.7 0.7
v -0.2 0.7 0.7
v -0.1 0.7 0.7
v 0.3 0.7 0.7
v 0.4 0.7 0.7
v 0.6 0.7 0.7
v 0.7 0.7 0.7
v -0.8 1.5 0.8
v -0.5 1.5 0.8
v -0.4 1.5 0.8
v -0.2 1.5 0.8
v -0.1 1.5 0.8
v 0.1 1.5 0.8
v 0.3 1.5 0.8
v 0.6 1.5 0.8
v 0.7 1.5 0.8
v 0.8 1.5 0.8
v -0.8 1.5 0.7
v -0.5 1.5 0.7
v -0.4 1.5 0.7
v -0.2 1.5 0.7
v -0.1 1.5 0.7
v 0.1 1.5 0.7
v 0.3 1.5 0.7
v 0.6 1.5 0.7
v 0.7 1.5 0.7
v 0.8 1.5 0.7
v -0.8 1.6 0.7
v 0.8 1.6 0.7
v -0.8 1.6 -0.8
v 0.8 1.6 -0.8

# faces
f 4/4/1 2/4/1 1/4/1
f 5/5/1 4/5/1 3/5/1
f 6/4/1 2/4/1 4/4/1
f 6/5/1 4/5/1 5/5/1
f 7/2/1 6/2/1 5/2/1
f 8/4/1 2/4/1 6/4/1
f 8/2/1 6/2/1 7/2/1
f 9/1/1 8/1/1 7/1/1
f 10/4/1 2/4/1 8/4/1
f 10/1/1 8/1/1 9/1/1
f 11/4/1 2/4/1 10/4/1
f 12/4/1 2/4/1 11/4/1
f 15/2/1 14/2/1 13/2/1
f 16/2/1 14/2/1 15/2/1
f 17/1/1 16/1/1 15/1/1
f 18/1/1 16/1/1 17/1/1
f 19/2/1 18/2/1 17/2/1
f 20/2/1 18/2/1 19/2/1
f 21/1/1 20/1/1 19/1/1
f 22/1/1 20/1/1 21/1/1
f 23/2/1 22/2/1 21/2/1
f 24/2/1 22/2/1 23/2/1
f 27/2/1 26/2/1 25/2/1
f 28/2/1 26/2/1 27/2/1
f 29/1/1 28/1/1 27/1/1
f 30/1/1 28/1/1 29/1/1
f 31/2/1 30/2/1 29/2/1
f 32/2/1 30/2/1 31/2/1
f 33/1/1 32/1/1 31/1/1
f 34/1/1 32/1/1 33/1/1
f 35/2/1 34/2/1 33/2/1
f 36/2/1 34/2/1 35/2/1
f 37/5/2 38/5/2 39/5/2
f 39/5/2 38/5/2 40/5/2
f 39/3/2 40/3/2 41/3/2
f 41/3/2 40/3/2 42/3/2
f 41/2/2 42/2/2 43/2/2
f 43/2/2 42/2/2 44/2/2
f 45/5/2 46/5/2 47/5/2
f 47/5/2 46/5/2 48/5/2
f 47/3/2 48/3/2 49/3/2
f 49/3/2 48/3/2 50/3/2
f 49/2/2 50/2/2 51/2/2
f 51/2/2 50/2/2 52/2/2
f 53/4/2 54/4/2 56/4/2
f 55/3/2 56/3/2 57/3/2
f 56/4/2 54/4/2 58/4/2
f 57/3/2 56/3/2 58/3/2
f 57/2/2 58/2/2 59/2/2
f 58/4/2 54/4/2 60/4/2
f 59/2/2 58/2/2 60/2/2
f 59/1/2 60/1/2 61/1/2
f 60/4/2 54/4/2 62/4/2
f 61/1/2 60/1/2 62/1/2
f 62/4/2 54/4/2 63/4/2
f 63/4/2 54/4/2 64/4/2
f 75/5/3 66/5/3 65/5/3
f 76/2/3 67/2/3 66/2/3
f 76/5/3 66/5/3 75/5/3
f 77/2/3 70/2/3 69/2/3
f 78/2/3 70/2/3 77/2/3
f 79/1/3 71/1/3 70/1/3
f 79/2/3 70/2/3 78/2/3
f 80/2/3 72/2/3 71/2/3
f 80/1/3 71/1/3 79/1/3
f 81/1/3 73/1/3 72/1/3
f 81/2/3 72/2/3 80/2/3
f 82/2/3 74/2/3 73/2/3
f 82/1/3 73/1/3 81/1/3
f 83/2/3 74/2/3 82/2/3
f 84/2/3 67/2/3 76/2/3
f 84/3/3 76/3/3 75/3/3
f 85/2/3 67/2/3 84/2/3
f 86/3/3 78/3/3 77/3/3
f 87/2/3 81/2/3 80/2/3
f 87/3/3 78/3/3 86/3/3
f 87/2/3 79/2/3 78/2/3
f 87/2/3 80/2/3 79/2/3
f 87/2/3 82/2/3 81/2/3
f 88/3/3 84/3/3 75/3/3
f 89/5/3 85/5/3 84/5/3
f 89/3/3 84/3/3 88/3/3
f 90/2/3 67/2/3 85/2/3
f 90/5/3 85/5/3 89/5/3
f 91/1/3 68/1/3 67/1/3
f 91/2/3 67/2/3 90/2/3
f 92/1/3 68/1/3 91/1/3
f 93/5/3 87/5/3 86/5/3
f 94/2/3 82/2/3 87/2/3
f 94/5/3 87/5/3 93/5/3
f 95/5/3 89/5/3 88/5/3
f 96/3/3 90/3/3 89/3/3
f 96/5/3 89/5/3 95/5/3
f 97/2/3 91/2/3 90/2/3
f 97/3/3 90/3/3 96/3/3
f 97/2/3 92/2/3 91/2/3
f 98/2/3 92/2/3 97/2/3
f 99/2/3 92/2/3 98/2/3
f 100/3/3 94/3/3 93/3/3
f 101/2/3 82/2/3 94/2/3
f 101/3/3 94/3/3 100/3/3
f 102/2/3 82/2/3 101/2/3
f 103/2/3 82/2/3 102/2/3
f 104/1/3 83/1/3 82/1/3
f 104/2/3 82/2/3 103/2/3
f 105/3/3 96/3/3 95/3/3
f 106/2/3 97/2/3 96/2/3
f 106/3/3 96/3/3 105/3/3
f 106/2/3 98/2/3 97/2/3
f 107/2/3 98/2/3 106/2/3
f 108/5/3 101/5/3 100/5/3
f 108/5/3 102/5/3 101/5/3
f 109/2/3 103/2/3 102/2/3
f 109/5/3 102/5/3 108/5/3
f 110/1/3 83/1/3 104/1/3
f 110/1/3 104/1/3 103/1/3
f 111/1/3 83/1/3 110/1/3
f 112/2/3 98/2/3 107/2/3
f 112/3/3 107/3/3 106/3/3
f 113/2/3 98/2/3 112/2/3
f 114/1/3 99/1/3 98/1/3
f 114/2/3 98/2/3 113/2/3
f 115/1/3 99/1/3 114/1/3
f 116/2/3 109/2/3 108/2/3
f 117/2/3 109/2/3 116/2/3
f 118/2/3 103/2/3 109/2/3
f 118/2/3 109/2/3 117/2/3
f 118/1/3 110/1/3 103/1/3
f 119/2/3 111/2/3 110/2/3
f 119/1/3 110/1/3 118/1/3
f 120/2/3 111/2/3 119/2/3
f 121/5/3 106/5/3 105/5/3
f 122/3/3 113/3/3 112/3/3
f 122/5/3 106/5/3 121/5/3
f 122/3/3 112/3/3 106/3/3
f 123/2/3 114/2/3 113/2/3
f 123/3/3 113/3/3 122/3/3
f 123/2/3 115/2/3 114/2/3
f 124/2/3 115/2/3 123/2/3
f 125/3/3 117/3/3 116/3/3
f 126/2/3 118/2/3 117/2/3
f 126/3/3 117/3/3 125/3/3
f 126/2/3 119/2/3 118/2/3
f 127/5/3 126/5/3 125/5/3
f 128/2/3 119/2/3 126/2/3
f 128/5/3 126/5/3 127/5/3
f 135/3/3 128/3/3 127/3/3
f 135/2/3 119/2/3 128/2/3
f 136/2/3 119/2/3 135/2/3
f 137/2/3 130/2/3 129/2/3
f 138/2/3 130/2/3 137/2/3
f 139/1/3 131/1/3 130/1/3
f 139/2/3 130/2/3 138/2/3
f 140/2/3 132/2/3 131/2/3
f 140/1/3 131/1/3 139/1/3
f 141/1/3 133/1/3 132/1/3
f 141/2/3 132/2/3 140/2/3
f 142/2/3 134/2/3 133/2/3
f 142/1/3 133/1/3 141/1/3
f 143/3/3 135/3/3 127/3/3
f 144/5/3 136/5/3 135/5/3
f 144/3/3 135/3/3 143/3/3
f 145/2/3 119/2/3 136/2/3
f 145/5/3 136/5/3 144/5/3
f 146/1/3 120/1/3 119/1/3
f 146/2/3 119/2/3 145/2/3
f 147/1/3 120/1/3 146/1/3
f 148/3/3 138/3/3 137/3/3
f 149/2/3 141/2/3 140/2/3
f 149/3/3 138/3/3 148/3/3
f 149/2/3 140/2/3 139/2/3
f 149/2/3 139/2/3 138/2/3
f 149/2/3 142/2/3 141/2/3
f 150/2/3 134/2/3 142/2/3
f 150/2/3 142/2/3 149/2/3
f 151/2/3 134/2/3 150/2/3
f 152/5/3 144/5/3 143/5/3
f 153/3/3 145/3/3 144/3/3
f 153/5/3 144/5/3 152/5/3
f 154/2/3 146/2/3 145/2/3
f 154/3/3 145/3/3 153/3/3
f 154/2/3 147/2/3 146/2/3
f 155/2/3 147/2/3 154/2/3
f 156/2/3 147/2/3 155/2/3
f 157/5/3 149/5/3 148/5/3
f 158/2/3 150/2/3 149/2/3
f 158/5/3 149/5/3 157/5/3
f 159/3/3 153/3/3 152/3/3
f 160/2/3 154/2/3 153/2/3
f 160/3/3 153/3/3 159/3/3
f 160/2/3 155/2/3 154/2/3
f 161/2/3 155/2/3 160/2/3
f 162/3/3 158/3/3 157/3/3
f 163/2/3 150/2/3 158/2/3
f 163/3/3 158/3/3 162/3/3
f 164/2/3 150/2/3 163/2/3
f 165/2/3 150/2/3 164/2/3
f 166/1/3 151/1/3 150/1/3
f 166/2/3 150/2/3 165/2/3
f 167/2/3 155/2/3 161/2/3
f 167/3/3 161/3/3 160/3/3
f 168/2/3 155/2/3 167/2/3
f 169/1/3 156/1/3 155/1/3
f 169/2/3 155/2/3 168/2/3
f 170/1/3 156/1/3 169/1/3
f 171/5/3 163/5/3 162/5/3
f 171/5/3 164/5/3 163/5/3
f 172/2/3 165/2/3 164/2/3
f 172/5/3 164/5/3 171/5/3
f 173/1/3 151/1/3 166/1/3
f 173/1/3 166/1/3 165/1/3
f 174/1/3 151/1/3 173/1/3
f 175/5/3 160/5/3 159/5/3
f 176/3/3 168/3/3 167/3/3
f 176/5/3 160/5/3 175/5/3
f 176/3/3 167/3/3 160/3/3
f 177/2/3 170/2/3 169/2/3
f 177/3/3 168/3/3 176/3/3
f 177/2/3 169/2/3 168/2/3
f 178/2/3 170/2/3 177/2/3
f 179/2/3 172/2/3 171/2/3
f 180/2/3 172/2/3 179/2/3
f 181/2/3 165/2/3 172/2/3
f 181/2/3 172/2/3 180/2/3
f 181/1/3 173/1/3 165/1/3
f 182/2/3 174/2/3 173/2/3
f 182/1/3 173/1/3 181/1/3
f 183/2/3 174/2/3 182/2/3
f 184/3/3 180/3/3 179/3/3
f 185/2/3 182/2/3 181/2/3
f 185/3/3 180/3/3 184/3/3
f 185/2/3 181/2/3 180/2/3
f 186/1/3 183/1/3 182/1/3
f 186/2/3 182/2/3 185/2/3
f 187/1/3 183/1/3 186/1/3
f 192/4/3 189/4/3 188/4/3
f 193/4/3 189/4/3 192/4/3
f 194/4/3 189/4/3 193/4/3
f 195/4/3 189/4/3 194/4/3
f 196/4/3 189/4/3 195/4/3
f 197/4/3 189/4/3 196/4/3
f 198/4/3 189/4/3 197/4/3
f 199/4/3 198/4/3 197/4/3
f 200/4/3 198/4/3 199/4/3
f 201/4/3 191/4/3 190/4/3
f 202/4/3 200/4/3 199/4/3
f 203/4/3 191/4/3 201/4/3
f 204/4/3 202/4/3 199/4/3
f 205/4/3 204/4/3 199/4/3
f 206/4/3 191/4/3 203/4/3
f 207/4/3 204/4/3 205/4/3
f 208/4/3 204/4/3 207/4/3
f 211/4/3 191/4/3 206/4/3
f 212/4/3 210/4/3 209/4/3
f 212/4/3 211/4/3 210/4/3
f 212/4/3 208/4/3 207/4/3
f 212/4/3 209/4/3 208/4/3
f 213/4/3 211/4/3 212/4/3
f 214/4/3 211/4/3 213/4/3
f 215/4/3 211/4/3 214/4/3
f 216/4/3 211/4/3 215/4/3
f 217/4/3 191/4/3 211/4/3
f 217/4/3 211/4/3 216/4/3
f 218/4/3 212/4/3 207/4/3
f 219/4/3 218/4/3 207/4/3
f 220/4/3 218/4/3 219/4/3
f 221/4/3 191/4/3 217/4/3
f 222/4/3 220/4/3 219/4/3
f 223/4/3 220/4/3 222/4/3
f 224/4/3 223/4/3 222/4/3
f 225/4/3 224/4/3 222/4/3
f 226/4/3 224/4/3 225/4/3
f 227/4/3 191/4/3 221/4/3
f 231/4/3 226/4/3 225/4/3
f 232/4/3 226/4/3 231/4/3
f 233/4/3 191/4/3 227/4/3
f 234/4/3 230/4/3 229/4/3
f 234/4/3 232/4/3 231/4/3
f 234/4/3 229/4/3 228/4/3
f 234/4/3 231/4/3 230/4/3
f 235/4/3 232/4/3 234/4/3
f 236/4/3 191/4/3 233/4/3
f 237/4/3 191/4/3 236/4/3
f 238/4/4 239/4/4 240/4/4
f 240/4/4 239/4/4 241/4/4
f 256/2/5 243/2/5 242/2/5
f 257/3/5 244/3/5 243/3/5
f 257/2/5 243/2/5 256/2/5
f 258/5/5 245/5/5 244/5/5
f 258/3/5 244/3/5 257/3/5
f 259/3/5 246/3/5 245/3/5
f 259/5/5 245/5/5 258/5/5
f 260/5/5 247/5/5 246/5/5
f 260/3/5 246/3/5 259/3/5
f 261/2/5 248/2/5 247/2/5
f 261/5/5 247/5/5 260/5/5
f 262/3/5 249/3/5 248/3/5
f 262/2/5 248/2/5 261/2/5
f 263/5/5 250/5/5 249/5/5
f 263/3/5 249/3/5 262/3/5
f 264/3/5 251/3/5 250/3/5
f 264/5/5 250/5/5 263/5/5
f 265/5/5 252/5/5 251/5/5
f 265/3/5 251/3/5 264/3/5
f 266/3/5 253/3/5 252/3/5
f 266/5/5 252/5/5 265/5/5
f 267/5/5 254/5/5 253/5/5
f 267/3/5 253/3/5 266/3/5
f 268/5/5 254/5/5 267/5/5
f 270/2/5 266/2/5 265/2/5
f 270/4/5 256/4/5 255/4/5
f 270/2/5 268/2/5 267/2/5
f 270/2/5 267/2/5 266/2/5
f 270/2/5 257/2/5 256/2/5
f 270/2/5 265/2/5 264/2/5
f 270/2/5 264/2/5 263/2/5
f 270/2/5 263/2/5 262/2/5
f 270/2/5 262/2/5 261/2/5
f 270/2/5 261/2/5 260/2/5
f 270/2/5 260/2/5 259/2/5
f 270/2/5 259/2/5 258/2/5
f 270/2/5 258/2/5 257/2/5
f 271/4/5 269/4/5 268/4/5
f 271/2/5 268/2/5 270/2/5
f 272/4/5 270/4/5 255/4/5
f 272/4/5 271/4/5 270/4/5
f 273/4/5 269/4/5 271/4/5
f 273/4/5 271/4/5 272/4/5
f 288/5/5 275/5/5 274/5/5
f 289/3/5 276/3/5 275/3/5
f 289/5/5 275/5/5 288/5/5
f 290/5/5 277/5/5 276/5/5
f 290/3/5 276/3/5 289/3/5
f 291/3/5 278/3/5 277/3/5
f 291/5/5 277/5/5 290/5/5
f 292/5/5 279/5/5 278/5/5
f 292/3/5 278/3/5 291/3/5
f 293/5/5 279/5/5 292/5/5
f 294/2/5 281/2/5 280/2/5
f 295/3/5 282/3/5 281/3/5
f 295/2/5 281/2/5 294/2/5
f 296/5/5 283/5/5 282/5/5
f 296/3/5 282/3/5 295/3/5
f 297/3/5 284/3/5 283/3/5
f 297/5/5 283/5/5 296/5/5
f 298/5/5 285/5/5 284/5/5
f 298/3/5 284/3/5 297/3/5
f 299/2/5 286/2/5 285/2/5
f 299/5/5 285/5/5 298/5/5
f 300/3/5 287/3/5 286/3/5
f 300/2/5 286/2/5 299/2/5
f 301/3/5 287/3/5 300/3/5
f 302/2/6 303/2/6 310/2/6
f 303/1/6 304/1/6 311/1/6
f 310/2/6 303/2/6 311/2/6
f 304/2/6 305/2/6 312/2/6
f 311/1/6 304/1/6 312/1/6
f 305/1/6 306/1/6 313/1/6
f 312/2/6 305/2/6 313/2/6
f 306/2/6 307/2/6 314/2/6
f 313/1/6 306/1/6 314/1/6
f 307/1/6 308/1/6 315/1/6
f 314/2/6 307/2/6 315/2/6
f 308/2/6 309/2/6 316/2/6
f 315/1/6 308/1/6 316/1/6
f 316/2/6 309/2/6 317/2/6
f 318/1/6 319/1/6 328/1/6
f 319/2/6 320/2/6 329/2/6
f 328/1/6 319/1/6 329/1/6
f 320/1/6 321/1/6 330/1/6
f 329/2/6 320/2/6 330/2/6
f 321/2/6 322/2/6 331/2/6
f 330/1/6 321/1/6 331/1/6
f 331/2/6 322/2/6 332/2/6
f 323/2/6 324/2/6 333/2/6
f 324/1/6 325/1/6 334/1/6
f 333/2/6 324/2/6 334/2/6
f 325/2/6 326/2/6 335/2/6
f 334/1/6 325/1/6 335/1/6
f 326/1/6 327/1/6 336/1/6
f 335/2/6 326/2/6 336/2/6
f 336/1/6 327/1/6 337/1/6
f 338/4/6 339/4/6 340/4/6
f 340/4/6 339/4/6 341/4/6
