# MagicaVoxel @ Ephtracy

# group
o Floor

# material
mtllib Dungeon-0-Floor.mtl
usemtl palette

# normals
vn -1 0 0
vn 1 0 0
vn 0 0 1
vn 0 0 -1
vn 0 -1 0
vn 0 1 0

# texcoords
vt 0.0371094 0.5
vt 0.205078 0.5
vt 0.373047 0.5

# verts
v -0.8 0 0.8
v -0.8 0 -0.8
v -0.8 1.5 0.8
v -0.8 1.5 -0.8
v -0.8 1.6 0.8
v -0.8 1.6 -0.8
v 0.8 0 0.8
v 0.8 0 -0.8
v 0.8 1.5 0.8
v 0.8 1.5 -0.8
v 0.8 1.6 0.8
v 0.8 1.6 -0.8
v -0.8 0 0.8
v -0.8 1.5 0.8
v -0.8 1.6 0.8
v 0.8 0 0.8
v 0.8 1.5 0.8
v 0.8 1.6 0.8
v -0.8 0 -0.8
v -0.8 1.5 -0.8
v -0.8 1.6 -0.8
v 0.8 0 -0.8
v 0.8 1.5 -0.8
v 0.8 1.6 -0.8
v -0.8 0 0.8
v 0.8 0 0.8
v -0.8 0 -0.8
v 0.8 0 -0.8
v -0.8 1.6 0.8
v 0.8 1.6 0.8
v -0.6 1.6 0.6
v -0.4 1.6 0.6
v 0.4 1.6 0.6
v 0.6 1.6 0.6
v -0.5 1.6 0.5
v -0.4 1.6 0.5
v 0.4 1.6 0.5
v 0.5 1.6 0.5
v -0.6 1.6 0.4
v -0.5 1.6 0.4
v 0.5 1.6 0.4
v 0.6 1.6 0.4
v -0.6 1.6 -0.4
v -0.5 1.6 -0.4
v 0.5 1.6 -0.4
v 0.6 1.6 -0.4
v -0.5 1.6 -0.5
v -0.4 1.6 -0.5
v 0.4 1.6 -0.5
v 0.5 1.6 -0.5
v -0.6 1.6 -0.6
v -0.4 1.6 -0.6
v 0.4 1.6 -0.6
v 0.6 1.6 -0.6
v -0.8 1.6 -0.8
v 0.8 1.6 -0.8

# faces
f 3/2/1 2/2/1 1/2/1
f 4/2/1 2/2/1 3/2/1
f 5/3/1 4/3/1 3/3/1
f 6/3/1 4/3/1 5/3/1
f 7/2/2 8/2/2 9/2/2
f 9/2/2 8/2/2 10/2/2
f 9/3/2 10/3/2 11/3/2
f 11/3/2 10/3/2 12/3/2
f 16/2/3 14/2/3 13/2/3
f 17/3/3 15/3/3 14/3/3
f 17/2/3 14/2/3 16/2/3
f 18/3/3 15/3/3 17/3/3
f 19/2/4 20/2/4 22/2/4
f 20/3/4 21/3/4 23/3/4
f 22/2/4 20/2/4 23/2/4
f 23/3/4 21/3/4 24/3/4
f 27/2/5 26/2/5 25/2/5
f 28/2/5 26/2/5 27/2/5
f 29/3/6 30/3/6 31/3/6
f 31/3/6 30/3/6 32/3/6
f 32/3/6 30/3/6 33/3/6
f 33/3/6 30/3/6 34/3/6
f 31/1/6 32/1/6 35/1/6
f 32/2/6 33/2/6 36/2/6
f 35/1/6 32/1/6 36/1/6
f 33/1/6 34/1/6 37/1/6
f 36/2/6 33/2/6 37/2/6
f 37/1/6 34/1/6 38/1/6
f 29/3/6 31/3/6 39/3/6
f 31/1/6 35/1/6 39/1/6
f 37/2/6 38/2/6 40/2/6
f 39/1/6 35/1/6 40/1/6
f 35/2/6 36/2/6 40/2/6
f 36/2/6 37/2/6 40/2/6
f 38/1/6 34/1/6 41/1/6
f 40/2/6 38/2/6 41/2/6
f 34/3/6 30/3/6 42/3/6
f 41/1/6 34/1/6 42/1/6
f 39/2/6 40/2/6 43/2/6
f 40/2/6 41/2/6 43/2/6
f 41/2/6 42/2/6 43/2/6
f 29/3/6 39/3/6 43/3/6
f 43/2/6 42/2/6 44/2/6
f 44/2/6 42/2/6 45/2/6
f 42/3/6 30/3/6 46/3/6
f 45/2/6 42/2/6 46/2/6
f 44/2/6 45/2/6 47/2/6
f 43/1/6 44/1/6 47/1/6
f 47/2/6 45/2/6 48/2/6
f 48/2/6 45/2/6 49/2/6
f 45/1/6 46/1/6 50/1/6
f 49/2/6 45/2/6 50/2/6
f 29/3/6 43/3/6 51/3/6
f 43/1/6 47/1/6 51/1/6
f 47/1/6 48/1/6 51/1/6
f 48/2/6 49/2/6 52/2/6
f 51/1/6 48/1/6 52/1/6
f 49/1/6 50/1/6 53/1/6
f 52/2/6 49/2/6 53/2/6
f 46/3/6 30/3/6 54/3/6
f 53/1/6 50/1/6 54/1/6
f 50/1/6 46/1/6 54/1/6
f 52/3/6 53/3/6 55/3/6
f 51/3/6 52/3/6 55/3/6
f 53/3/6 54/3/6 55/3/6
f 29/3/6 51/3/6 55/3/6
f 54/3/6 30/3/6 56/3/6
f 55/3/6 54/3/6 56/3/6
