# MagicaVoxel @ Ephtracy

# group
o Stair

# material
mtllib Dungeon-7-Stair.mtl
usemtl palette

# normals
vn -1 0 0
vn 1 0 0
vn 0 0 1
vn 0 0 -1
vn 0 -1 0
vn 0 1 0

# texcoords
vt 0.0371094 0.5
vt 0.205078 0.5
vt 0.341797 0.5
vt 0.373047 0.5
vt 0.482422 0.5

# verts
v -0.8 0 0.8
v -0.8 0 0.7
v -0.8 0 0.6
v -0.8 0 0.5
v -0.8 0 0.4
v -0.8 0 0.1
v -0.8 0 0
v -0.8 0 -0.1
v -0.8 0 -0.4
v -0.8 0 -0.5
v -0.8 0 -0.6
v -0.8 0 -0.8
v -0.8 0.1 0.7
v -0.8 0.1 0.6
v -0.8 0.1 0.5
v -0.8 0.1 0.4
v -0.8 0.1 0.3
v -0.8 0.1 0.1
v -0.8 0.1 0
v -0.8 0.1 -0.1
v -0.8 0.1 -0.3
v -0.8 0.1 -0.4
v -0.8 0.1 -0.6
v -0.8 0.1 -0.8
v -0.8 0.2 0.3
v -0.8 0.2 0.2
v -0.8 0.2 -0.1
v -0.8 0.2 -0.3
v -0.8 0.2 -0.5
v -0.8 0.2 -0.6
v -0.8 0.2 -0.7
v -0.8 0.2 -0.8
v -0.8 0.3 0.8
v -0.8 0.3 0.7
v -0.8 0.3 0.3
v -0.8 0.3 0.2
v -0.8 0.3 0.1
v -0.8 0.3 -0.6
v -0.8 0.3 -0.7
v -0.8 0.4 0.7
v -0.8 0.4 0.4
v -0.8 0.4 0.1
v -0.8 0.4 0
v -0.8 0.5 0
v -0.8 0.5 -0.1
v -0.8 0.6 -0.1
v -0.8 0.6 -0.2
v -0.8 0.7 0.4
v -0.8 0.7 0.3
v -0.8 0.7 -0.1
v -0.8 0.7 -0.2
v -0.8 0.7 -0.3
v -0.8 0.8 0.3
v -0.8 0.8 0
v -0.8 0.8 -0.3
v -0.8 0.8 -0.4
v -0.8 0.9 -0.4
v -0.8 0.9 -0.5
v -0.8 1 -0.5
v -0.8 1 -0.6
v -0.8 1.1 0
v -0.8 1.1 -0.1
v -0.8 1.1 -0.5
v -0.8 1.1 -0.6
v -0.8 1.1 -0.7
v -0.8 1.2 -0.1
v -0.8 1.2 -0.4
v -0.8 1.2 -0.7
v -0.8 1.2 -0.8
v -0.8 1.5 -0.4
v -0.8 1.5 -0.5
v -0.8 1.5 -0.8
v -0.8 1.6 -0.5
v -0.8 1.6 -0.8
v -0.7 0.3 0.8
v -0.7 0.3 0.7
v -0.7 0.4 0.8
v -0.7 0.4 0.7
v -0.7 0.7 0.4
v -0.7 0.7 0.3
v -0.7 0.8 0.4
v -0.7 0.8 0.3
v -0.7 1.1 0
v -0.7 1.1 -0.1
v -0.7 1.2 0
v -0.7 1.2 -0.1
v -0.7 1.5 -0.4
v -0.7 1.5 -0.5
v -0.7 1.6 -0.4
v -0.7 1.6 -0.5
v 0.7 0.3 0.8
v 0.7 0.3 0.7
v 0.7 0.4 0.8
v 0.7 0.4 0.7
v 0.7 0.7 0.4
v 0.7 0.7 0.3
v 0.7 0.8 0.4
v 0.7 0.8 0.3
v 0.7 1.1 0
v 0.7 1.1 -0.1
v 0.7 1.2 0
v 0.7 1.2 -0.1
v 0.7 1.5 -0.4
v 0.7 1.5 -0.5
v 0.7 1.6 -0.4
v 0.7 1.6 -0.5
v 0.8 0 0.8
v 0.8 0 0.7
v 0.8 0 0.6
v 0.8 0 0.5
v 0.8 0 0.4
v 0.8 0 0.1
v 0.8 0 0
v 0.8 0 -0.1
v 0.8 0 -0.4
v 0.8 0 -0.5
v 0.8 0 -0.6
v 0.8 0 -0.8
v 0.8 0.1 0.7
v 0.8 0.1 0.6
v 0.8 0.1 0.5
v 0.8 0.1 0.4
v 0.8 0.1 0.3
v 0.8 0.1 0.1
v 0.8 0.1 0
v 0.8 0.1 -0.1
v 0.8 0.1 -0.3
v 0.8 0.1 -0.4
v 0.8 0.1 -0.6
v 0.8 0.1 -0.8
v 0.8 0.2 0.3
v 0.8 0.2 0.2
v 0.8 0.2 -0.1
v 0.8 0.2 -0.3
v 0.8 0.2 -0.5
v 0.8 0.2 -0.6
v 0.8 0.2 -0.7
v 0.8 0.2 -0.8
v 0.8 0.3 0.8
v 0.8 0.3 0.7
v 0.8 0.3 0.3
v 0.8 0.3 0.2
v 0.8 0.3 0.1
v 0.8 0.3 -0.6
v 0.8 0.3 -0.7
v 0.8 0.4 0.7
v 0.8 0.4 0.4
v 0.8 0.4 0.1
v 0.8 0.4 0
v 0.8 0.5 0
v 0.8 0.5 -0.1
v 0.8 0.6 -0.1
v 0.8 0.6 -0.2
v 0.8 0.7 0.4
v 0.8 0.7 0.3
v 0.8 0.7 -0.1
v 0.8 0.7 -0.2
v 0.8 0.7 -0.3
v 0.8 0.8 0.3
v 0.8 0.8 0
v 0.8 0.8 -0.3
v 0.8 0.8 -0.4
v 0.8 0.9 -0.4
v 0.8 0.9 -0.5
v 0.8 1 -0.5
v 0.8 1 -0.6
v 0.8 1.1 0
v 0.8 1.1 -0.1
v 0.8 1.1 -0.5
v 0.8 1.1 -0.6
v 0.8 1.1 -0.7
v 0.8 1.2 -0.1
v 0.8 1.2 -0.4
v 0.8 1.2 -0.7
v 0.8 1.2 -0.8
v 0.8 1.5 -0.4
v 0.8 1.5 -0.5
v 0.8 1.5 -0.8
v 0.8 1.6 -0.5
v 0.8 1.6 -0.8
v -0.8 0 0.8
v -0.8 0.3 0.8
v -0.7 0 0.8
v -0.7 0.3 0.8
v -0.7 0.4 0.8
v -0.5 0 0.8
v -0.5 0.1 0.8
v -0.3 0.1 0.8
v -0.3 0.2 0.8
v 0.3 0.1 0.8
v 0.3 0.2 0.8
v 0.5 0 0.8
v 0.5 0.1 0.8
v 0.7 0 0.8
v 0.7 0.3 0.8
v 0.7 0.4 0.8
v 0.8 0 0.8
v 0.8 0.3 0.8
v -0.8 0.3 0.7
v -0.8 0.4 0.7
v -0.7 0.3 0.7
v -0.7 0.4 0.7
v 0.7 0.3 0.7
v 0.7 0.4 0.7
v 0.8 0.3 0.7
v 0.8 0.4 0.7
v -0.8 0.4 0.4
v -0.8 0.7 0.4
v -0.7 0.4 0.4
v -0.7 0.7 0.4
v -0.7 0.8 0.4
v -0.5 0.4 0.4
v -0.5 0.5 0.4
v -0.3 0.5 0.4
v -0.3 0.6 0.4
v 0.3 0.5 0.4
v 0.3 0.6 0.4
v 0.5 0.4 0.4
v 0.5 0.5 0.4
v 0.7 0.4 0.4
v 0.7 0.7 0.4
v 0.7 0.8 0.4
v 0.8 0.4 0.4
v 0.8 0.7 0.4
v -0.8 0.7 0.3
v -0.8 0.8 0.3
v -0.7 0.7 0.3
v -0.7 0.8 0.3
v 0.7 0.7 0.3
v 0.7 0.8 0.3
v 0.8 0.7 0.3
v 0.8 0.8 0.3
v -0.8 0.8 0
v -0.8 1.1 0
v -0.7 0.8 0
v -0.7 1.1 0
v -0.7 1.2 0
v -0.5 0.8 0
v -0.5 0.9 0
v -0.3 0.9 0
v -0.3 1 0
v 0.3 0.9 0
v 0.3 1 0
v 0.5 0.8 0
v 0.5 0.9 0
v 0.7 0.8 0
v 0.7 1.1 0
v 0.7 1.2 0
v 0.8 0.8 0
v 0.8 1.1 0
v -0.8 1.1 -0.1
v -0.8 1.2 -0.1
v -0.7 1.1 -0.1
v -0.7 1.2 -0.1
v 0.7 1.1 -0.1
v 0.7 1.2 -0.1
v 0.8 1.1 -0.1
v 0.8 1.2 -0.1
v -0.8 1.2 -0.4
v -0.8 1.5 -0.4
v -0.7 1.2 -0.4
v -0.7 1.5 -0.4
v -0.7 1.6 -0.4
v -0.5 1.2 -0.4
v -0.5 1.3 -0.4
v -0.3 1.3 -0.4
v -0.3 1.4 -0.4
v 0.3 1.3 -0.4
v 0.3 1.4 -0.4
v 0.5 1.2 -0.4
v 0.5 1.3 -0.4
v 0.7 1.2 -0.4
v 0.7 1.5 -0.4
v 0.7 1.6 -0.4
v 0.8 1.2 -0.4
v 0.8 1.5 -0.4
v -0.8 1.5 -0.5
v -0.8 1.6 -0.5
v -0.7 1.5 -0.5
v -0.7 1.6 -0.5
v 0.7 1.5 -0.5
v 0.7 1.6 -0.5
v 0.8 1.5 -0.5
v 0.8 1.6 -0.5
v -0.8 0 -0.8
v -0.8 0.1 -0.8
v -0.8 0.2 -0.8
v -0.8 1.2 -0.8
v -0.8 1.5 -0.8
v -0.8 1.6 -0.8
v -0.7 1.2 -0.8
v -0.7 1.3 -0.8
v -0.7 1.5 -0.8
v -0.7 1.6 -0.8
v -0.6 0 -0.8
v -0.6 0.1 -0.8
v -0.6 0.2 -0.8
v -0.6 1.3 -0.8
v -0.6 1.4 -0.8
v -0.5 0 -0.8
v -0.5 0.1 -0.8
v -0.5 1.4 -0.8
v -0.5 1.5 -0.8
v -0.4 0 -0.8
v -0.4 0.1 -0.8
v -0.3 0.1 -0.8
v -0.3 0.2 -0.8
v -0.2 0 -0.8
v -0.2 0.2 -0.8
v -0.2 1.4 -0.8
v -0.2 1.5 -0.8
v -0.1 0 -0.8
v -0.1 0.1 -0.8
v -0.1 0.2 -0.8
v -0.1 1.3 -0.8
v -0.1 1.4 -0.8
v 0.1 0 -0.8
v 0.1 0.1 -0.8
v 0.1 0.2 -0.8
v 0.1 1.3 -0.8
v 0.1 1.4 -0.8
v 0.2 0 -0.8
v 0.2 0.2 -0.8
v 0.2 1.4 -0.8
v 0.2 1.5 -0.8
v 0.3 0.1 -0.8
v 0.3 0.2 -0.8
v 0.4 0 -0.8
v 0.4 0.1 -0.8
v 0.5 0 -0.8
v 0.5 0.1 -0.8
v 0.5 1.4 -0.8
v 0.5 1.5 -0.8
v 0.6 0 -0.8
v 0.6 0.1 -0.8
v 0.6 0.2 -0.8
v 0.6 1.3 -0.8
v 0.6 1.4 -0.8
v 0.7 1.2 -0.8
v 0.7 1.3 -0.8
v 0.7 1.5 -0.8
v 0.7 1.6 -0.8
v 0.8 0 -0.8
v 0.8 0.1 -0.8
v 0.8 0.2 -0.8
v 0.8 1.2 -0.8
v 0.8 1.5 -0.8
v 0.8 1.6 -0.8
v -0.8 0 0.8
v -0.7 0 0.8
v -0.5 0 0.8
v 0.5 0 0.8
v 0.7 0 0.8
v 0.8 0 0.8
v -0.8 0 0.7
v -0.7 0 0.7
v -0.5 0 0.7
v 0.5 0 0.7
v 0.7 0 0.7
v 0.8 0 0.7
v -0.8 0 0.6
v -0.7 0 0.6
v 0.7 0 0.6
v 0.8 0 0.6
v -0.8 0 0.5
v -0.7 0 0.5
v 0.7 0 0.5
v 0.8 0 0.5
v -0.8 0 0.4
v -0.7 0 0.4
v 0.7 0 0.4
v 0.8 0 0.4
v -0.8 0 0.1
v -0.7 0 0.1
v 0.7 0 0.1
v 0.8 0 0.1
v -0.8 0 0
v -0.7 0 0
v 0.7 0 0
v 0.8 0 0
v -0.8 0 -0.1
v -0.7 0 -0.1
v 0.7 0 -0.1
v 0.8 0 -0.1
v -0.8 0 -0.4
v -0.7 0 -0.4
v 0.7 0 -0.4
v 0.8 0 -0.4
v -0.8 0 -0.5
v -0.7 0 -0.5
v 0.7 0 -0.5
v 0.8 0 -0.5
v -0.8 0 -0.6
v -0.7 0 -0.6
v 0.7 0 -0.6
v 0.8 0 -0.6
v -0.7 0 -0.7
v -0.6 0 -0.7
v -0.5 0 -0.7
v -0.4 0 -0.7
v -0.2 0 -0.7
v -0.1 0 -0.7
v 0.1 0 -0.7
v 0.2 0 -0.7
v 0.4 0 -0.7
v 0.5 0 -0.7
v 0.6 0 -0.7
v 0.7 0 -0.7
v -0.8 0 -0.8
v -0.6 0 -0.8
v -0.5 0 -0.8
v -0.4 0 -0.8
v -0.2 0 -0.8
v -0.1 0 -0.8
v 0.1 0 -0.8
v 0.2 0 -0.8
v 0.4 0 -0.8
v 0.5 0 -0.8
v 0.6 0 -0.8
v 0.8 0 -0.8
v -0.8 0.3 0.8
v -0.7 0.3 0.8
v 0.7 0.3 0.8
v 0.8 0.3 0.8
v -0.8 0.3 0.7
v -0.7 0.3 0.7
v 0.7 0.3 0.7
v 0.8 0.3 0.7
v -0.7 0.4 0.8
v 0.7 0.4 0.8
v -0.8 0.4 0.7
v -0.7 0.4 0.7
v 0.7 0.4 0.7
v 0.8 0.4 0.7
v -0.8 0.4 0.4
v -0.7 0.4 0.4
v -0.5 0.4 0.4
v 0.5 0.4 0.4
v 0.7 0.4 0.4
v 0.8 0.4 0.4
v -0.8 0.7 0.4
v -0.7 0.7 0.4
v 0.7 0.7 0.4
v 0.8 0.7 0.4
v -0.8 0.7 0.3
v -0.7 0.7 0.3
v 0.7 0.7 0.3
v 0.8 0.7 0.3
v -0.7 0.8 0.4
v 0.7 0.8 0.4
v -0.8 0.8 0.3
v -0.7 0.8 0.3
v 0.7 0.8 0.3
v 0.8 0.8 0.3
v -0.8 0.8 0
v -0.7 0.8 0
v -0.5 0.8 0
v 0.5 0.8 0
v 0.7 0.8 0
v 0.8 0.8 0
v -0.8 1.1 0
v -0.7 1.1 0
v 0.7 1.1 0
v 0.8 1.1 0
v -0.8 1.1 -0.1
v -0.7 1.1 -0.1
v 0.7 1.1 -0.1
v 0.8 1.1 -0.1
v -0.7 1.2 0
v 0.7 1.2 0
v -0.8 1.2 -0.1
v -0.7 1.2 -0.1
v 0.7 1.2 -0.1
v 0.8 1.2 -0.1
v -0.8 1.2 -0.4
v -0.7 1.2 -0.4
v -0.5 1.2 -0.4
v 0.5 1.2 -0.4
v 0.7 1.2 -0.4
v 0.8 1.2 -0.4
v -0.8 1.5 -0.4
v -0.7 1.5 -0.4
v 0.7 1.5 -0.4
v 0.8 1.5 -0.4
v -0.8 1.5 -0.5
v -0.7 1.5 -0.5
v 0.7 1.5 -0.5
v 0.8 1.5 -0.5
v -0.7 1.6 -0.4
v 0.7 1.6 -0.4
v -0.8 1.6 -0.5
v -0.7 1.6 -0.5
v 0.7 1.6 -0.5
v 0.8 1.6 -0.5
v -0.8 1.6 -0.8
v -0.7 1.6 -0.8
v 0.7 1.6 -0.8
v 0.8 1.6 -0.8

# faces
f 13/1/1 2/1/1 1/1/1
f 13/5/1 3/5/1 2/5/1
f 14/3/1 4/3/1 3/3/1
f 14/5/1 3/5/1 13/5/1
f 15/2/1 5/2/1 4/2/1
f 15/3/1 4/3/1 14/3/1
f 16/3/1 6/3/1 5/3/1
f 16/2/1 5/2/1 15/2/1
f 17/3/1 6/3/1 16/3/1
f 18/5/1 7/5/1 6/5/1
f 18/3/1 6/3/1 17/3/1
f 19/4/1 8/4/1 7/4/1
f 19/5/1 7/5/1 18/5/1
f 20/5/1 9/5/1 8/5/1
f 20/4/1 8/4/1 19/4/1
f 21/5/1 9/5/1 20/5/1
f 22/4/1 10/4/1 9/4/1
f 22/5/1 9/5/1 21/5/1
f 23/5/1 12/5/1 11/5/1
f 23/3/1 11/3/1 10/3/1
f 24/5/1 12/5/1 23/5/1
f 25/2/1 14/2/1 13/2/1
f 25/2/1 15/2/1 14/2/1
f 25/2/1 17/2/1 16/2/1
f 25/4/1 18/4/1 17/4/1
f 25/4/1 20/4/1 19/4/1
f 25/2/1 16/2/1 15/2/1
f 25/4/1 19/4/1 18/4/1
f 26/4/1 20/4/1 25/4/1
f 27/3/1 21/3/1 20/3/1
f 27/4/1 20/4/1 26/4/1
f 28/4/1 22/4/1 21/4/1
f 28/3/1 21/3/1 27/3/1
f 29/4/1 10/4/1 22/4/1
f 29/4/1 22/4/1 28/4/1
f 29/3/1 24/3/1 23/3/1
f 29/3/1 23/3/1 10/3/1
f 30/3/1 24/3/1 29/3/1
f 31/3/1 24/3/1 30/3/1
f 32/3/1 24/3/1 31/3/1
f 33/1/1 13/1/1 1/1/1
f 34/2/1 25/2/1 13/2/1
f 34/1/1 13/1/1 33/1/1
f 34/2/1 26/2/1 25/2/1
f 35/2/1 26/2/1 34/2/1
f 36/4/1 28/4/1 27/4/1
f 36/2/1 26/2/1 35/2/1
f 36/4/1 27/4/1 26/4/1
f 36/4/1 29/4/1 28/4/1
f 36/4/1 30/4/1 29/4/1
f 37/4/1 30/4/1 36/4/1
f 38/3/1 31/3/1 30/3/1
f 38/4/1 30/4/1 37/4/1
f 39/4/1 32/4/1 31/4/1
f 39/3/1 31/3/1 38/3/1
f 40/1/1 35/1/1 34/1/1
f 41/1/1 35/1/1 40/1/1
f 42/4/1 39/4/1 38/4/1
f 42/4/1 38/4/1 37/4/1
f 42/2/1 37/2/1 36/2/1
f 42/2/1 36/2/1 35/2/1
f 43/4/1 39/4/1 42/4/1
f 44/4/1 39/4/1 43/4/1
f 44/2/1 43/2/1 42/2/1
f 45/4/1 39/4/1 44/4/1
f 46/2/1 45/2/1 44/2/1
f 46/4/1 39/4/1 45/4/1
f 47/4/1 39/4/1 46/4/1
f 48/1/1 35/1/1 41/1/1
f 49/2/1 42/2/1 35/2/1
f 49/1/1 35/1/1 48/1/1
f 49/2/1 44/2/1 42/2/1
f 49/2/1 47/2/1 46/2/1
f 49/2/1 46/2/1 44/2/1
f 50/2/1 47/2/1 49/2/1
f 51/4/1 39/4/1 47/4/1
f 51/2/1 47/2/1 50/2/1
f 52/4/1 39/4/1 51/4/1
f 53/1/1 50/1/1 49/1/1
f 54/1/1 50/1/1 53/1/1
f 55/4/1 39/4/1 52/4/1
f 55/2/1 52/2/1 51/2/1
f 55/2/1 51/2/1 50/2/1
f 56/4/1 39/4/1 55/4/1
f 57/4/1 39/4/1 56/4/1
f 57/2/1 56/2/1 55/2/1
f 58/4/1 39/4/1 57/4/1
f 59/2/1 58/2/1 57/2/1
f 59/4/1 39/4/1 58/4/1
f 60/4/1 39/4/1 59/4/1
f 61/1/1 50/1/1 54/1/1
f 62/2/1 55/2/1 50/2/1
f 62/1/1 50/1/1 61/1/1
f 62/2/1 57/2/1 55/2/1
f 62/2/1 60/2/1 59/2/1
f 62/2/1 59/2/1 57/2/1
f 63/2/1 60/2/1 62/2/1
f 64/4/1 39/4/1 60/4/1
f 64/2/1 60/2/1 63/2/1
f 65/4/1 32/4/1 39/4/1
f 65/4/1 39/4/1 64/4/1
f 66/1/1 63/1/1 62/1/1
f 67/1/1 63/1/1 66/1/1
f 68/2/1 64/2/1 63/2/1
f 68/4/1 32/4/1 65/4/1
f 68/2/1 65/2/1 64/2/1
f 69/4/1 32/4/1 68/4/1
f 70/1/1 63/1/1 67/1/1
f 71/2/1 69/2/1 68/2/1
f 71/1/1 63/1/1 70/1/1
f 71/2/1 68/2/1 63/2/1
f 72/2/1 69/2/1 71/2/1
f 73/1/1 72/1/1 71/1/1
f 74/1/1 72/1/1 73/1/1
f 77/1/1 76/1/1 75/1/1
f 78/1/1 76/1/1 77/1/1
f 81/1/1 80/1/1 79/1/1
f 82/1/1 80/1/1 81/1/1
f 85/1/1 84/1/1 83/1/1
f 86/1/1 84/1/1 85/1/1
f 89/1/1 88/1/1 87/1/1
f 90/1/1 88/1/1 89/1/1
f 91/1/2 92/1/2 93/1/2
f 93/1/2 92/1/2 94/1/2
f 95/1/2 96/1/2 97/1/2
f 97/1/2 96/1/2 98/1/2
f 99/1/2 100/1/2 101/1/2
f 101/1/2 100/1/2 102/1/2
f 103/1/2 104/1/2 105/1/2
f 105/1/2 104/1/2 106/1/2
f 107/1/2 108/1/2 119/1/2
f 108/5/2 109/5/2 119/5/2
f 109/3/2 110/3/2 120/3/2
f 119/5/2 109/5/2 120/5/2
f 110/2/2 111/2/2 121/2/2
f 120/3/2 110/3/2 121/3/2
f 111/3/2 112/3/2 122/3/2
f 121/2/2 111/2/2 122/2/2
f 122/3/2 112/3/2 123/3/2
f 112/5/2 113/5/2 124/5/2
f 123/3/2 112/3/2 124/3/2
f 113/4/2 114/4/2 125/4/2
f 124/5/2 113/5/2 125/5/2
f 114/5/2 115/5/2 126/5/2
f 125/4/2 114/4/2 126/4/2
f 126/5/2 115/5/2 127/5/2
f 115/4/2 116/4/2 128/4/2
f 127/5/2 115/5/2 128/5/2
f 117/5/2 118/5/2 129/5/2
f 116/3/2 117/3/2 129/3/2
f 129/5/2 118/5/2 130/5/2
f 119/2/2 120/2/2 131/2/2
f 120/2/2 121/2/2 131/2/2
f 122/2/2 123/2/2 131/2/2
f 123/4/2 124/4/2 131/4/2
f 125/4/2 126/4/2 131/4/2
f 121/2/2 122/2/2 131/2/2
f 124/4/2 125/4/2 131/4/2
f 131/4/2 126/4/2 132/4/2
f 126/3/2 127/3/2 133/3/2
f 132/4/2 126/4/2 133/4/2
f 127/4/2 128/4/2 134/4/2
f 133/3/2 127/3/2 134/3/2
f 128/4/2 116/4/2 135/4/2
f 134/4/2 128/4/2 135/4/2
f 129/3/2 130/3/2 135/3/2
f 116/3/2 129/3/2 135/3/2
f 135/3/2 130/3/2 136/3/2
f 136/3/2 130/3/2 137/3/2
f 137/3/2 130/3/2 138/3/2
f 107/1/2 119/1/2 139/1/2
f 119/2/2 131/2/2 140/2/2
f 139/1/2 119/1/2 140/1/2
f 131/2/2 132/2/2 140/2/2
f 140/2/2 132/2/2 141/2/2
f 133/4/2 134/4/2 142/4/2
f 141/2/2 132/2/2 142/2/2
f 132/4/2 133/4/2 142/4/2
f 134/4/2 135/4/2 142/4/2
f 135/4/2 136/4/2 142/4/2
f 142/4/2 136/4/2 143/4/2
f 136/3/2 137/3/2 144/3/2
f 143/4/2 136/4/2 144/4/2
f 137/4/2 138/4/2 145/4/2
f 144/3/2 137/3/2 145/3/2
f 140/1/2 141/1/2 146/1/2
f 146/1/2 141/1/2 147/1/2
f 144/4/2 145/4/2 148/4/2
f 143/4/2 144/4/2 148/4/2
f 142/2/2 143/2/2 148/2/2
f 141/2/2 142/2/2 148/2/2
f 148/4/2 145/4/2 149/4/2
f 149/4/2 145/4/2 150/4/2
f 148/2/2 149/2/2 150/2/2
f 150/4/2 145/4/2 151/4/2
f 150/2/2 151/2/2 152/2/2
f 151/4/2 145/4/2 152/4/2
f 152/4/2 145/4/2 153/4/2
f 147/1/2 141/1/2 154/1/2
f 141/2/2 148/2/2 155/2/2
f 154/1/2 141/1/2 155/1/2
f 148/2/2 150/2/2 155/2/2
f 152/2/2 153/2/2 155/2/2
f 150/2/2 152/2/2 155/2/2
f 155/2/2 153/2/2 156/2/2
f 153/4/2 145/4/2 157/4/2
f 156/2/2 153/2/2 157/2/2
f 157/4/2 145/4/2 158/4/2
f 155/1/2 156/1/2 159/1/2
f 159/1/2 156/1/2 160/1/2
f 158/4/2 145/4/2 161/4/2
f 157/2/2 158/2/2 161/2/2
f 156/2/2 157/2/2 161/2/2
f 161/4/2 145/4/2 162/4/2
f 162/4/2 145/4/2 163/4/2
f 161/2/2 162/2/2 163/2/2
f 163/4/2 145/4/2 164/4/2
f 163/2/2 164/2/2 165/2/2
f 164/4/2 145/4/2 165/4/2
f 165/4/2 145/4/2 166/4/2
f 160/1/2 156/1/2 167/1/2
f 156/2/2 161/2/2 168/2/2
f 167/1/2 156/1/2 168/1/2
f 161/2/2 163/2/2 168/2/2
f 165/2/2 166/2/2 168/2/2
f 163/2/2 165/2/2 168/2/2
f 168/2/2 166/2/2 169/2/2
f 166/4/2 145/4/2 170/4/2
f 169/2/2 166/2/2 170/2/2
f 145/4/2 138/4/2 171/4/2
f 170/4/2 145/4/2 171/4/2
f 168/1/2 169/1/2 172/1/2
f 172/1/2 169/1/2 173/1/2
f 169/2/2 170/2/2 174/2/2
f 171/4/2 138/4/2 174/4/2
f 170/2/2 171/2/2 174/2/2
f 174/4/2 138/4/2 175/4/2
f 173/1/2 169/1/2 176/1/2
f 174/2/2 175/2/2 177/2/2
f 176/1/2 169/1/2 177/1/2
f 169/2/2 174/2/2 177/2/2
f 177/2/2 175/2/2 178/2/2
f 177/1/2 178/1/2 179/1/2
f 179/1/2 178/1/2 180/1/2
f 183/1/3 182/1/3 181/1/3
f 184/1/3 182/1/3 183/1/3
f 186/2/3 184/2/3 183/2/3
f 187/2/3 184/2/3 186/2/3
f 188/4/3 187/4/3 186/4/3
f 188/2/3 184/2/3 187/2/3
f 189/2/3 184/2/3 188/2/3
f 190/4/3 188/4/3 186/4/3
f 190/4/3 189/4/3 188/4/3
f 191/2/3 184/2/3 189/2/3
f 191/4/3 189/4/3 190/4/3
f 192/4/3 190/4/3 186/4/3
f 193/2/3 191/2/3 190/2/3
f 193/4/3 190/4/3 192/4/3
f 194/2/3 193/2/3 192/2/3
f 195/1/3 185/1/3 184/1/3
f 195/2/3 193/2/3 194/2/3
f 195/2/3 184/2/3 191/2/3
f 195/2/3 191/2/3 193/2/3
f 196/1/3 185/1/3 195/1/3
f 197/1/3 195/1/3 194/1/3
f 198/1/3 195/1/3 197/1/3
f 201/1/3 200/1/3 199/1/3
f 202/1/3 200/1/3 201/1/3
f 205/1/3 204/1/3 203/1/3
f 206/1/3 204/1/3 205/1/3
f 209/1/3 208/1/3 207/1/3
f 210/1/3 208/1/3 209/1/3
f 212/2/3 210/2/3 209/2/3
f 213/2/3 210/2/3 212/2/3
f 214/4/3 213/4/3 212/4/3
f 214/2/3 210/2/3 213/2/3
f 215/2/3 210/2/3 214/2/3
f 216/4/3 214/4/3 212/4/3
f 216/4/3 215/4/3 214/4/3
f 217/2/3 210/2/3 215/2/3
f 217/4/3 215/4/3 216/4/3
f 218/4/3 216/4/3 212/4/3
f 219/2/3 217/2/3 216/2/3
f 219/4/3 216/4/3 218/4/3
f 220/2/3 219/2/3 218/2/3
f 221/1/3 211/1/3 210/1/3
f 221/2/3 219/2/3 220/2/3
f 221/2/3 210/2/3 217/2/3
f 221/2/3 217/2/3 219/2/3
f 222/1/3 211/1/3 221/1/3
f 223/1/3 221/1/3 220/1/3
f 224/1/3 221/1/3 223/1/3
f 227/1/3 226/1/3 225/1/3
f 228/1/3 226/1/3 227/1/3
f 231/1/3 230/1/3 229/1/3
f 232/1/3 230/1/3 231/1/3
f 235/1/3 234/1/3 233/1/3
f 236/1/3 234/1/3 235/1/3
f 238/2/3 236/2/3 235/2/3
f 239/2/3 236/2/3 238/2/3
f 240/4/3 239/4/3 238/4/3
f 240/2/3 236/2/3 239/2/3
f 241/2/3 236/2/3 240/2/3
f 242/4/3 240/4/3 238/4/3
f 242/4/3 241/4/3 240/4/3
f 243/2/3 236/2/3 241/2/3
f 243/4/3 241/4/3 242/4/3
f 244/4/3 242/4/3 238/4/3
f 245/2/3 243/2/3 242/2/3
f 245/4/3 242/4/3 244/4/3
f 246/2/3 245/2/3 244/2/3
f 247/1/3 237/1/3 236/1/3
f 247/2/3 245/2/3 246/2/3
f 247/2/3 236/2/3 243/2/3
f 247/2/3 243/2/3 245/2/3
f 248/1/3 237/1/3 247/1/3
f 249/1/3 247/1/3 246/1/3
f 250/1/3 247/1/3 249/1/3
f 253/1/3 252/1/3 251/1/3
f 254/1/3 252/1/3 253/1/3
f 257/1/3 256/1/3 255/1/3
f 258/1/3 256/1/3 257/1/3
f 261/1/3 260/1/3 259/1/3
f 262/1/3 260/1/3 261/1/3
f 264/2/3 262/2/3 261/2/3
f 265/2/3 262/2/3 264/2/3
f 266/4/3 265/4/3 264/4/3
f 266/2/3 262/2/3 265/2/3
f 267/2/3 262/2/3 266/2/3
f 268/4/3 266/4/3 264/4/3
f 268/4/3 267/4/3 266/4/3
f 269/2/3 262/2/3 267/2/3
f 269/4/3 267/4/3 268/4/3
f 270/4/3 268/4/3 264/4/3
f 271/2/3 269/2/3 268/2/3
f 271/4/3 268/4/3 270/4/3
f 272/2/3 271/2/3 270/2/3
f 273/1/3 263/1/3 262/1/3
f 273/2/3 271/2/3 272/2/3
f 273/2/3 262/2/3 269/2/3
f 273/2/3 269/2/3 271/2/3
f 274/1/3 263/1/3 273/1/3
f 275/1/3 273/1/3 272/1/3
f 276/1/3 273/1/3 275/1/3
f 279/1/3 278/1/3 277/1/3
f 280/1/3 278/1/3 279/1/3
f 283/1/3 282/1/3 281/1/3
f 284/1/3 282/1/3 283/1/3
f 287/4/4 288/4/4 291/4/4
f 288/2/4 289/2/4 291/2/4
f 291/2/4 289/2/4 292/2/4
f 289/1/4 290/1/4 293/1/4
f 292/2/4 289/2/4 293/2/4
f 293/1/4 290/1/4 294/1/4
f 285/5/4 286/5/4 295/5/4
f 286/3/4 287/3/4 296/3/4
f 295/5/4 286/5/4 296/5/4
f 291/4/4 292/4/4 297/4/4
f 296/3/4 287/3/4 297/3/4
f 287/4/4 291/4/4 297/4/4
f 293/2/4 294/2/4 298/2/4
f 297/4/4 292/4/4 298/4/4
f 292/2/4 293/2/4 298/2/4
f 298/2/4 294/2/4 299/2/4
f 295/3/4 296/3/4 300/3/4
f 296/4/4 297/4/4 301/4/4
f 300/3/4 296/3/4 301/3/4
f 297/4/4 298/4/4 301/4/4
f 298/4/4 299/4/4 301/4/4
f 299/2/4 294/2/4 302/2/4
f 301/4/4 299/4/4 302/4/4
f 302/2/4 294/2/4 303/2/4
f 300/4/4 301/4/4 304/4/4
f 301/4/4 302/4/4 304/4/4
f 302/4/4 303/4/4 304/4/4
f 304/4/4 303/4/4 305/4/4
f 304/3/4 305/3/4 306/3/4
f 305/4/4 303/4/4 306/4/4
f 306/4/4 303/4/4 307/4/4
f 304/3/4 306/3/4 308/3/4
f 306/3/4 307/3/4 308/3/4
f 307/4/4 303/4/4 309/4/4
f 308/3/4 307/3/4 309/3/4
f 309/4/4 303/4/4 310/4/4
f 303/2/4 294/2/4 311/2/4
f 310/4/4 303/4/4 311/4/4
f 308/5/4 309/5/4 312/5/4
f 312/5/4 309/5/4 313/5/4
f 309/4/4 310/4/4 314/4/4
f 313/5/4 309/5/4 314/5/4
f 314/4/4 310/4/4 315/4/4
f 310/2/4 311/2/4 316/2/4
f 315/4/4 310/4/4 316/4/4
f 312/3/4 313/3/4 317/3/4
f 314/4/4 315/4/4 318/4/4
f 317/3/4 313/3/4 318/3/4
f 313/4/4 314/4/4 318/4/4
f 318/4/4 315/4/4 319/4/4
f 315/2/4 316/2/4 320/2/4
f 319/4/4 315/4/4 320/4/4
f 316/2/4 311/2/4 321/2/4
f 320/2/4 316/2/4 321/2/4
f 318/5/4 319/5/4 322/5/4
f 317/5/4 318/5/4 322/5/4
f 319/4/4 320/4/4 323/4/4
f 322/5/4 319/5/4 323/5/4
f 320/4/4 321/4/4 323/4/4
f 321/2/4 311/2/4 324/2/4
f 323/4/4 321/4/4 324/4/4
f 311/2/4 294/2/4 325/2/4
f 324/2/4 311/2/4 325/2/4
f 322/3/4 323/3/4 326/3/4
f 323/4/4 324/4/4 327/4/4
f 326/3/4 323/3/4 327/3/4
f 324/4/4 325/4/4 327/4/4
f 322/3/4 326/3/4 328/3/4
f 326/4/4 327/4/4 329/4/4
f 328/3/4 326/3/4 329/3/4
f 328/4/4 329/4/4 330/4/4
f 329/4/4 327/4/4 331/4/4
f 330/4/4 329/4/4 331/4/4
f 327/4/4 325/4/4 332/4/4
f 331/4/4 327/4/4 332/4/4
f 325/2/4 294/2/4 333/2/4
f 332/4/4 325/4/4 333/4/4
f 330/3/4 331/3/4 334/3/4
f 331/4/4 332/4/4 335/4/4
f 334/3/4 331/3/4 335/3/4
f 335/4/4 332/4/4 336/4/4
f 336/4/4 332/4/4 337/4/4
f 332/2/4 333/2/4 338/2/4
f 337/4/4 332/4/4 338/4/4
f 336/4/4 337/4/4 339/4/4
f 337/2/4 338/2/4 340/2/4
f 339/4/4 337/4/4 340/4/4
f 333/2/4 294/2/4 341/2/4
f 340/2/4 338/2/4 341/2/4
f 338/2/4 333/2/4 341/2/4
f 341/2/4 294/2/4 342/2/4
f 334/5/4 335/5/4 343/5/4
f 335/3/4 336/3/4 344/3/4
f 343/5/4 335/5/4 344/5/4
f 336/4/4 339/4/4 345/4/4
f 344/3/4 336/3/4 345/3/4
f 339/2/4 340/2/4 346/2/4
f 345/4/4 339/4/4 346/4/4
f 340/2/4 341/2/4 346/2/4
f 341/1/4 342/1/4 347/1/4
f 346/2/4 341/2/4 347/2/4
f 347/1/4 342/1/4 348/1/4
f 355/1/5 350/1/5 349/1/5
f 356/2/5 351/2/5 350/2/5
f 356/1/5 350/1/5 355/1/5
f 357/4/5 352/4/5 351/4/5
f 357/2/5 351/2/5 356/2/5
f 358/2/5 353/2/5 352/2/5
f 358/4/5 352/4/5 357/4/5
f 359/1/5 354/1/5 353/1/5
f 359/2/5 353/2/5 358/2/5
f 360/1/5 354/1/5 359/1/5
f 361/5/5 356/5/5 355/5/5
f 362/2/5 358/2/5 357/2/5
f 362/5/5 356/5/5 361/5/5
f 362/2/5 357/2/5 356/2/5
f 362/2/5 359/2/5 358/2/5
f 363/5/5 360/5/5 359/5/5
f 363/2/5 359/2/5 362/2/5
f 364/5/5 360/5/5 363/5/5
f 365/3/5 362/3/5 361/3/5
f 366/2/5 363/2/5 362/2/5
f 366/3/5 362/3/5 365/3/5
f 367/3/5 364/3/5 363/3/5
f 367/2/5 363/2/5 366/2/5
f 368/3/5 364/3/5 367/3/5
f 369/2/5 366/2/5 365/2/5
f 369/2/5 367/2/5 366/2/5
f 369/2/5 368/2/5 367/2/5
f 370/2/5 368/2/5 369/2/5
f 371/2/5 368/2/5 370/2/5
f 372/2/5 368/2/5 371/2/5
f 373/3/5 370/3/5 369/3/5
f 374/4/5 371/4/5 370/4/5
f 374/3/5 370/3/5 373/3/5
f 375/3/5 372/3/5 371/3/5
f 375/4/5 371/4/5 374/4/5
f 376/3/5 372/3/5 375/3/5
f 377/5/5 374/5/5 373/5/5
f 378/4/5 375/4/5 374/4/5
f 378/5/5 374/5/5 377/5/5
f 379/5/5 376/5/5 375/5/5
f 379/4/5 375/4/5 378/4/5
f 380/5/5 376/5/5 379/5/5
f 381/4/5 378/4/5 377/4/5
f 381/4/5 379/4/5 378/4/5
f 381/4/5 380/4/5 379/4/5
f 382/4/5 380/4/5 381/4/5
f 383/4/5 380/4/5 382/4/5
f 384/4/5 380/4/5 383/4/5
f 385/5/5 382/5/5 381/5/5
f 386/4/5 383/4/5 382/4/5
f 386/5/5 382/5/5 385/5/5
f 387/5/5 384/5/5 383/5/5
f 387/4/5 383/4/5 386/4/5
f 388/5/5 384/5/5 387/5/5
f 389/4/5 386/4/5 385/4/5
f 390/3/5 387/3/5 386/3/5
f 390/4/5 386/4/5 389/4/5
f 391/4/5 388/4/5 387/4/5
f 391/3/5 387/3/5 390/3/5
f 392/4/5 388/4/5 391/4/5
f 393/3/5 390/3/5 389/3/5
f 393/3/5 391/3/5 390/3/5
f 393/3/5 392/3/5 391/3/5
f 394/3/5 392/3/5 393/3/5
f 395/3/5 392/3/5 394/3/5
f 396/3/5 392/3/5 395/3/5
f 397/5/5 394/5/5 393/5/5
f 397/3/5 395/3/5 394/3/5
f 398/3/5 395/3/5 397/3/5
f 399/3/5 395/3/5 398/3/5
f 400/3/5 395/3/5 399/3/5
f 401/3/5 395/3/5 400/3/5
f 402/3/5 395/3/5 401/3/5
f 403/3/5 395/3/5 402/3/5
f 404/3/5 395/3/5 403/3/5
f 405/3/5 395/3/5 404/3/5
f 406/3/5 395/3/5 405/3/5
f 407/3/5 395/3/5 406/3/5
f 408/5/5 396/5/5 395/5/5
f 408/3/5 395/3/5 407/3/5
f 409/5/5 397/5/5 393/5/5
f 409/5/5 398/5/5 397/5/5
f 410/3/5 399/3/5 398/3/5
f 410/5/5 398/5/5 409/5/5
f 411/4/5 400/4/5 399/4/5
f 411/3/5 399/3/5 410/3/5
f 412/3/5 401/3/5 400/3/5
f 412/4/5 400/4/5 411/4/5
f 413/5/5 402/5/5 401/5/5
f 413/3/5 401/3/5 412/3/5
f 414/3/5 403/3/5 402/3/5
f 414/5/5 402/5/5 413/5/5
f 415/5/5 404/5/5 403/5/5
f 415/3/5 403/3/5 414/3/5
f 416/3/5 405/3/5 404/3/5
f 416/5/5 404/5/5 415/5/5
f 417/4/5 406/4/5 405/4/5
f 417/3/5 405/3/5 416/3/5
f 418/3/5 407/3/5 406/3/5
f 418/4/5 406/4/5 417/4/5
f 419/5/5 408/5/5 407/5/5
f 419/3/5 407/3/5 418/3/5
f 420/5/5 396/5/5 408/5/5
f 420/5/5 408/5/5 419/5/5
f 421/1/6 422/1/6 425/1/6
f 425/1/6 422/1/6 426/1/6
f 423/1/6 424/1/6 427/1/6
f 427/1/6 424/1/6 428/1/6
f 429/1/6 430/1/6 432/1/6
f 432/1/6 430/1/6 433/1/6
f 431/1/6 432/1/6 435/1/6
f 432/2/6 433/2/6 436/2/6
f 435/1/6 432/1/6 436/1/6
f 436/2/6 433/2/6 437/2/6
f 437/2/6 433/2/6 438/2/6
f 433/1/6 434/1/6 439/1/6
f 438/2/6 433/2/6 439/2/6
f 439/1/6 434/1/6 440/1/6
f 441/1/6 442/1/6 445/1/6
f 445/1/6 442/1/6 446/1/6
f 443/1/6 444/1/6 447/1/6
f 447/1/6 444/1/6 448/1/6
f 449/1/6 450/1/6 452/1/6
f 452/1/6 450/1/6 453/1/6
f 451/1/6 452/1/6 455/1/6
f 452/2/6 453/2/6 456/2/6
f 455/1/6 452/1/6 456/1/6
f 456/2/6 453/2/6 457/2/6
f 457/2/6 453/2/6 458/2/6
f 453/1/6 454/1/6 459/1/6
f 458/2/6 453/2/6 459/2/6
f 459/1/6 454/1/6 460/1/6
f 461/1/6 462/1/6 465/1/6
f 465/1/6 462/1/6 466/1/6
f 463/1/6 464/1/6 467/1/6
f 467/1/6 464/1/6 468/1/6
f 469/1/6 470/1/6 472/1/6
f 472/1/6 470/1/6 473/1/6
f 471/1/6 472/1/6 475/1/6
f 472/2/6 473/2/6 476/2/6
f 475/1/6 472/1/6 476/1/6
f 476/2/6 473/2/6 477/2/6
f 477/2/6 473/2/6 478/2/6
f 473/1/6 474/1/6 479/1/6
f 478/2/6 473/2/6 479/2/6
f 479/1/6 474/1/6 480/1/6
f 481/1/6 482/1/6 485/1/6
f 485/1/6 482/1/6 486/1/6
f 483/1/6 484/1/6 487/1/6
f 487/1/6 484/1/6 488/1/6
f 489/1/6 490/1/6 492/1/6
f 492/1/6 490/1/6 493/1/6
f 491/1/6 492/1/6 495/1/6
f 492/2/6 493/2/6 496/2/6
f 495/1/6 492/1/6 496/1/6
f 493/1/6 494/1/6 497/1/6
f 496/2/6 493/2/6 497/2/6
f 497/1/6 494/1/6 498/1/6
