# MagicaVoxel @ Ephtracy

# group
o Fence-4way

# material
mtllib Dungeon-12-Fence-4way.mtl
usemtl palette

# normals
vn -1 0 0
vn 1 0 0
vn 0 0 1
vn 0 0 -1
vn 0 -1 0
vn 0 1 0

# texcoords
vt 0.0410156 0.5
vt 0.205078 0.5
vt 0.373047 0.5
vt 0.677734 0.5

# verts
v -0.8 0 0.2
v -0.8 0 -0.2
v -0.8 0.7 0.2
v -0.8 0.7 0.1
v -0.8 0.7 -0.1
v -0.8 0.7 -0.2
v -0.8 0.8 0.1
v -0.8 0.8 -0.1
v -0.5 0 0.2
v -0.5 0 -0.2
v -0.5 0.2 0.1
v -0.5 0.2 -0.1
v -0.5 0.7 0.2
v -0.5 0.7 0.1
v -0.5 0.7 -0.1
v -0.5 0.7 -0.2
v -0.5 0.8 0.1
v -0.5 0.8 -0.1
v -0.2 0 0.8
v -0.2 0 0.7
v -0.2 0 0.5
v -0.2 0 0.3
v -0.2 0 -0.3
v -0.2 0 -0.5
v -0.2 0 -0.7
v -0.2 0 -0.8
v -0.2 0.7 0.8
v -0.2 0.7 0.7
v -0.2 0.7 0.5
v -0.2 0.7 0.3
v -0.2 0.7 0.1
v -0.2 0.7 -0.1
v -0.2 0.7 -0.3
v -0.2 0.7 -0.5
v -0.2 0.7 -0.7
v -0.2 0.7 -0.8
v -0.2 0.8 0.1
v -0.2 0.8 -0.1
v -0.1 0 0.1
v -0.1 0 -0.1
v -0.1 0.2 0.7
v -0.1 0.2 0.5
v -0.1 0.2 0.3
v -0.1 0.2 0.2
v -0.1 0.2 0.1
v -0.1 0.2 -0.1
v -0.1 0.2 -0.2
v -0.1 0.2 -0.3
v -0.1 0.2 -0.5
v -0.1 0.2 -0.7
v -0.1 0.7 0.8
v -0.1 0.7 0.7
v -0.1 0.7 0.5
v -0.1 0.7 0.3
v -0.1 0.7 0.2
v -0.1 0.7 -0.2
v -0.1 0.7 -0.3
v -0.1 0.7 -0.5
v -0.1 0.7 -0.7
v -0.1 0.7 -0.8
v -0.1 0.8 0.8
v -0.1 0.8 0.7
v -0.1 0.8 0.5
v -0.1 0.8 0.3
v -0.1 0.8 0.2
v -0.1 0.8 0.1
v -0.1 0.8 -0.1
v -0.1 0.8 -0.2
v -0.1 0.8 -0.3
v -0.1 0.8 -0.5
v -0.1 0.8 -0.7
v -0.1 0.8 -0.8
v -0.1 0.9 0.1
v -0.1 0.9 -0.1
v 0.3 0 0.2
v 0.3 0 -0.2
v 0.3 0.2 0.1
v 0.3 0.2 -0.1
v 0.3 0.7 0.2
v 0.3 0.7 0.1
v 0.3 0.7 -0.1
v 0.3 0.7 -0.2
v 0.3 0.8 0.1
v 0.3 0.8 -0.1
v 0.7 0 0.2
v 0.7 0 -0.2
v 0.7 0.2 0.1
v 0.7 0.2 -0.1
v 0.7 0.7 0.2
v 0.7 0.7 0.1
v 0.7 0.7 -0.1
v 0.7 0.7 -0.2
v 0.7 0.8 0.1
v 0.7 0.8 -0.1
v -0.7 0 0.2
v -0.7 0 -0.2
v -0.7 0.2 0.1
v -0.7 0.2 -0.1
v -0.7 0.7 0.2
v -0.7 0.7 0.1
v -0.7 0.7 -0.1
v -0.7 0.7 -0.2
v -0.7 0.8 0.1
v -0.7 0.8 -0.1
v -0.3 0 0.2
v -0.3 0 -0.2
v -0.3 0.2 0.1
v -0.3 0.2 -0.1
v -0.3 0.7 0.2
v -0.3 0.7 0.1
v -0.3 0.7 -0.1
v -0.3 0.7 -0.2
v -0.3 0.8 0.1
v -0.3 0.8 -0.1
v 0.1 0 0.1
v 0.1 0 -0.1
v 0.1 0.2 0.7
v 0.1 0.2 0.5
v 0.1 0.2 0.3
v 0.1 0.2 0.2
v 0.1 0.2 0.1
v 0.1 0.2 -0.1
v 0.1 0.2 -0.2
v 0.1 0.2 -0.3
v 0.1 0.2 -0.5
v 0.1 0.2 -0.7
v 0.1 0.7 0.8
v 0.1 0.7 0.7
v 0.1 0.7 0.5
v 0.1 0.7 0.3
v 0.1 0.7 0.2
v 0.1 0.7 -0.2
v 0.1 0.7 -0.3
v 0.1 0.7 -0.5
v 0.1 0.7 -0.7
v 0.1 0.7 -0.8
v 0.1 0.8 0.8
v 0.1 0.8 0.7
v 0.1 0.8 0.5
v 0.1 0.8 0.3
v 0.1 0.8 0.2
v 0.1 0.8 0.1
v 0.1 0.8 -0.1
v 0.1 0.8 -0.2
v 0.1 0.8 -0.3
v 0.1 0.8 -0.5
v 0.1 0.8 -0.7
v 0.1 0.8 -0.8
v 0.1 0.9 0.1
v 0.1 0.9 -0.1
v 0.2 0 0.8
v 0.2 0 0.7
v 0.2 0 0.5
v 0.2 0 0.3
v 0.2 0 -0.3
v 0.2 0 -0.5
v 0.2 0 -0.7
v 0.2 0 -0.8
v 0.2 0.7 0.8
v 0.2 0.7 0.7
v 0.2 0.7 0.5
v 0.2 0.7 0.3
v 0.2 0.7 0.1
v 0.2 0.7 -0.1
v 0.2 0.7 -0.3
v 0.2 0.7 -0.5
v 0.2 0.7 -0.7
v 0.2 0.7 -0.8
v 0.2 0.8 0.1
v 0.2 0.8 -0.1
v 0.5 0 0.2
v 0.5 0 -0.2
v 0.5 0.2 0.1
v 0.5 0.2 -0.1
v 0.5 0.7 0.2
v 0.5 0.7 0.1
v 0.5 0.7 -0.1
v 0.5 0.7 -0.2
v 0.5 0.8 0.1
v 0.5 0.8 -0.1
v 0.8 0 0.2
v 0.8 0 -0.2
v 0.8 0.7 0.2
v 0.8 0.7 0.1
v 0.8 0.7 -0.1
v 0.8 0.7 -0.2
v 0.8 0.8 0.1
v 0.8 0.8 -0.1
v -0.2 0 0.8
v -0.2 0.7 0.8
v -0.1 0.7 0.8
v -0.1 0.8 0.8
v 0.1 0.7 0.8
v 0.1 0.8 0.8
v 0.2 0 0.8
v 0.2 0.7 0.8
v -0.2 0 0.5
v -0.2 0.7 0.5
v -0.1 0.2 0.5
v -0.1 0.7 0.5
v -0.1 0.8 0.5
v 0.1 0.2 0.5
v 0.1 0.7 0.5
v 0.1 0.8 0.5
v 0.2 0 0.5
v 0.2 0.7 0.5
v -0.8 0 0.2
v -0.8 0.7 0.2
v -0.7 0 0.2
v -0.7 0.7 0.2
v -0.5 0 0.2
v -0.5 0.7 0.2
v -0.3 0 0.2
v -0.3 0.7 0.2
v -0.1 0.7 0.2
v -0.1 0.8 0.2
v 0.1 0.7 0.2
v 0.1 0.8 0.2
v 0.3 0 0.2
v 0.3 0.7 0.2
v 0.5 0 0.2
v 0.5 0.7 0.2
v 0.7 0 0.2
v 0.7 0.7 0.2
v 0.8 0 0.2
v 0.8 0.7 0.2
v -0.8 0.7 0.1
v -0.8 0.8 0.1
v -0.7 0.2 0.1
v -0.7 0.7 0.1
v -0.7 0.8 0.1
v -0.5 0.2 0.1
v -0.5 0.7 0.1
v -0.5 0.8 0.1
v -0.3 0.2 0.1
v -0.3 0.7 0.1
v -0.3 0.8 0.1
v -0.2 0.2 0.1
v -0.2 0.7 0.1
v -0.2 0.8 0.1
v -0.1 0 0.1
v -0.1 0.2 0.1
v -0.1 0.8 0.1
v -0.1 0.9 0.1
v 0.1 0 0.1
v 0.1 0.2 0.1
v 0.1 0.8 0.1
v 0.1 0.9 0.1
v 0.2 0.2 0.1
v 0.2 0.7 0.1
v 0.2 0.8 0.1
v 0.3 0.2 0.1
v 0.3 0.7 0.1
v 0.3 0.8 0.1
v 0.5 0.2 0.1
v 0.5 0.7 0.1
v 0.5 0.8 0.1
v 0.7 0.2 0.1
v 0.7 0.7 0.1
v 0.7 0.8 0.1
v 0.8 0.7 0.1
v 0.8 0.8 0.1
v -0.2 0 -0.3
v -0.2 0.7 -0.3
v -0.1 0.2 -0.3
v -0.1 0.7 -0.3
v -0.1 0.8 -0.3
v 0.1 0.2 -0.3
v 0.1 0.7 -0.3
v 0.1 0.8 -0.3
v 0.2 0 -0.3
v 0.2 0.7 -0.3
v -0.2 0 -0.7
v -0.2 0.7 -0.7
v -0.1 0.2 -0.7
v -0.1 0.7 -0.7
v -0.1 0.8 -0.7
v 0.1 0.2 -0.7
v 0.1 0.7 -0.7
v 0.1 0.8 -0.7
v 0.2 0 -0.7
v 0.2 0.7 -0.7
v -0.2 0 0.7
v -0.2 0.7 0.7
v -0.1 0.2 0.7
v -0.1 0.7 0.7
v -0.1 0.8 0.7
v 0.1 0.2 0.7
v 0.1 0.7 0.7
v 0.1 0.8 0.7
v 0.2 0 0.7
v 0.2 0.7 0.7
v -0.2 0 0.3
v -0.2 0.7 0.3
v -0.1 0.2 0.3
v -0.1 0.7 0.3
v -0.1 0.8 0.3
v 0.1 0.2 0.3
v 0.1 0.7 0.3
v 0.1 0.8 0.3
v 0.2 0 0.3
v 0.2 0.7 0.3
v -0.8 0.7 -0.1
v -0.8 0.8 -0.1
v -0.7 0.2 -0.1
v -0.7 0.7 -0.1
v -0.7 0.8 -0.1
v -0.5 0.2 -0.1
v -0.5 0.7 -0.1
v -0.5 0.8 -0.1
v -0.3 0.2 -0.1
v -0.3 0.7 -0.1
v -0.3 0.8 -0.1
v -0.2 0.2 -0.1
v -0.2 0.7 -0.1
v -0.2 0.8 -0.1
v -0.1 0 -0.1
v -0.1 0.2 -0.1
v -0.1 0.8 -0.1
v -0.1 0.9 -0.1
v 0.1 0 -0.1
v 0.1 0.2 -0.1
v 0.1 0.8 -0.1
v 0.1 0.9 -0.1
v 0.2 0.2 -0.1
v 0.2 0.7 -0.1
v 0.2 0.8 -0.1
v 0.3 0.2 -0.1
v 0.3 0.7 -0.1
v 0.3 0.8 -0.1
v 0.5 0.2 -0.1
v 0.5 0.7 -0.1
v 0.5 0.8 -0.1
v 0.7 0.2 -0.1
v 0.7 0.7 -0.1
v 0.7 0.8 -0.1
v 0.8 0.7 -0.1
v 0.8 0.8 -0.1
v -0.8 0 -0.2
v -0.8 0.7 -0.2
v -0.7 0 -0.2
v -0.7 0.7 -0.2
v -0.5 0 -0.2
v -0.5 0.7 -0.2
v -0.3 0 -0.2
v -0.3 0.7 -0.2
v -0.1 0.7 -0.2
v -0.1 0.8 -0.2
v 0.1 0.7 -0.2
v 0.1 0.8 -0.2
v 0.3 0 -0.2
v 0.3 0.7 -0.2
v 0.5 0 -0.2
v 0.5 0.7 -0.2
v 0.7 0 -0.2
v 0.7 0.7 -0.2
v 0.8 0 -0.2
v 0.8 0.7 -0.2
v -0.2 0 -0.5
v -0.2 0.7 -0.5
v -0.1 0.2 -0.5
v -0.1 0.7 -0.5
v -0.1 0.8 -0.5
v 0.1 0.2 -0.5
v 0.1 0.7 -0.5
v 0.1 0.8 -0.5
v 0.2 0 -0.5
v 0.2 0.7 -0.5
v -0.2 0 -0.8
v -0.2 0.7 -0.8
v -0.1 0.7 -0.8
v -0.1 0.8 -0.8
v 0.1 0.7 -0.8
v 0.1 0.8 -0.8
v 0.2 0 -0.8
v 0.2 0.7 -0.8
v -0.2 0 0.8
v 0.2 0 0.8
v -0.2 0 0.7
v 0.2 0 0.7
v -0.2 0 0.5
v 0.2 0 0.5
v -0.2 0 0.3
v 0.2 0 0.3
v -0.8 0 0.2
v -0.7 0 0.2
v -0.5 0 0.2
v -0.3 0 0.2
v 0.3 0 0.2
v 0.5 0 0.2
v 0.7 0 0.2
v 0.8 0 0.2
v -0.1 0 0.1
v 0.1 0 0.1
v -0.1 0 -0.1
v 0.1 0 -0.1
v -0.8 0 -0.2
v -0.7 0 -0.2
v -0.5 0 -0.2
v -0.3 0 -0.2
v 0.3 0 -0.2
v 0.5 0 -0.2
v 0.7 0 -0.2
v 0.8 0 -0.2
v -0.2 0 -0.3
v 0.2 0 -0.3
v -0.2 0 -0.5
v 0.2 0 -0.5
v -0.2 0 -0.7
v 0.2 0 -0.7
v -0.2 0 -0.8
v 0.2 0 -0.8
v -0.1 0.2 0.7
v 0.1 0.2 0.7
v -0.1 0.2 0.5
v 0.1 0.2 0.5
v -0.1 0.2 0.3
v 0.1 0.2 0.3
v -0.1 0.2 0.2
v 0.1 0.2 0.2
v -0.7 0.2 0.1
v -0.5 0.2 0.1
v -0.3 0.2 0.1
v -0.2 0.2 0.1
v -0.1 0.2 0.1
v 0.1 0.2 0.1
v 0.2 0.2 0.1
v 0.3 0.2 0.1
v 0.5 0.2 0.1
v 0.7 0.2 0.1
v -0.7 0.2 -0.1
v -0.5 0.2 -0.1
v -0.3 0.2 -0.1
v -0.2 0.2 -0.1
v -0.1 0.2 -0.1
v 0.1 0.2 -0.1
v 0.2 0.2 -0.1
v 0.3 0.2 -0.1
v 0.5 0.2 -0.1
v 0.7 0.2 -0.1
v -0.1 0.2 -0.2
v 0.1 0.2 -0.2
v -0.1 0.2 -0.3
v 0.1 0.2 -0.3
v -0.1 0.2 -0.5
v 0.1 0.2 -0.5
v -0.1 0.2 -0.7
v 0.1 0.2 -0.7
v -0.2 0.7 0.8
v -0.1 0.7 0.8
v 0.1 0.7 0.8
v 0.2 0.7 0.8
v -0.2 0.7 0.7
v -0.1 0.7 0.7
v 0.1 0.7 0.7
v 0.2 0.7 0.7
v -0.2 0.7 0.5
v -0.1 0.7 0.5
v 0.1 0.7 0.5
v 0.2 0.7 0.5
v -0.2 0.7 0.3
v -0.1 0.7 0.3
v 0.1 0.7 0.3
v 0.2 0.7 0.3
v -0.8 0.7 0.2
v -0.7 0.7 0.2
v -0.5 0.7 0.2
v -0.3 0.7 0.2
v -0.1 0.7 0.2
v 0.1 0.7 0.2
v 0.3 0.7 0.2
v 0.5 0.7 0.2
v 0.7 0.7 0.2
v 0.8 0.7 0.2
v -0.8 0.7 0.1
v -0.7 0.7 0.1
v -0.5 0.7 0.1
v -0.3 0.7 0.1
v -0.2 0.7 0.1
v 0.2 0.7 0.1
v 0.3 0.7 0.1
v 0.5 0.7 0.1
v 0.7 0.7 0.1
v 0.8 0.7 0.1
v -0.8 0.7 -0.1
v -0.7 0.7 -0.1
v -0.5 0.7 -0.1
v -0.3 0.7 -0.1
v -0.2 0.7 -0.1
v 0.2 0.7 -0.1
v 0.3 0.7 -0.1
v 0.5 0.7 -0.1
v 0.7 0.7 -0.1
v 0.8 0.7 -0.1
v -0.8 0.7 -0.2
v -0.7 0.7 -0.2
v -0.5 0.7 -0.2
v -0.3 0.7 -0.2
v -0.1 0.7 -0.2
v 0.1 0.7 -0.2
v 0.3 0.7 -0.2
v 0.5 0.7 -0.2
v 0.7 0.7 -0.2
v 0.8 0.7 -0.2
v -0.2 0.7 -0.3
v -0.1 0.7 -0.3
v 0.1 0.7 -0.3
v 0.2 0.7 -0.3
v -0.2 0.7 -0.5
v -0.1 0.7 -0.5
v 0.1 0.7 -0.5
v 0.2 0.7 -0.5
v -0.2 0.7 -0.7
v -0.1 0.7 -0.7
v 0.1 0.7 -0.7
v 0.2 0.7 -0.7
v -0.2 0.7 -0.8
v -0.1 0.7 -0.8
v 0.1 0.7 -0.8
v 0.2 0.7 -0.8
v -0.1 0.8 0.8
v 0.1 0.8 0.8
v -0.1 0.8 0.7
v 0.1 0.8 0.7
v -0.1 0.8 0.5
v 0.1 0.8 0.5
v -0.1 0.8 0.3
v 0.1 0.8 0.3
v -0.1 0.8 0.2
v 0.1 0.8 0.2
v -0.8 0.8 0.1
v -0.7 0.8 0.1
v -0.5 0.8 0.1
v -0.3 0.8 0.1
v -0.2 0.8 0.1
v -0.1 0.8 0.1
v 0.1 0.8 0.1
v 0.2 0.8 0.1
v 0.3 0.8 0.1
v 0.5 0.8 0.1
v 0.7 0.8 0.1
v 0.8 0.8 0.1
v -0.8 0.8 -0.1
v -0.7 0.8 -0.1
v -0.5 0.8 -0.1
v -0.3 0.8 -0.1
v -0.2 0.8 -0.1
v -0.1 0.8 -0.1
v 0.1 0.8 -0.1
v 0.2 0.8 -0.1
v 0.3 0.8 -0.1
v 0.5 0.8 -0.1
v 0.7 0.8 -0.1
v 0.8 0.8 -0.1
v -0.1 0.8 -0.2
v 0.1 0.8 -0.2
v -0.1 0.8 -0.3
v 0.1 0.8 -0.3
v -0.1 0.8 -0.5
v 0.1 0.8 -0.5
v -0.1 0.8 -0.7
v 0.1 0.8 -0.7
v -0.1 0.8 -0.8
v 0.1 0.8 -0.8
v -0.1 0.9 0.1
v 0.1 0.9 0.1
v -0.1 0.9 -0.1
v 0.1 0.9 -0.1

# faces
f 3/3/1 2/3/1 1/3/1
f 4/3/1 2/3/1 3/3/1
f 5/3/1 2/3/1 4/3/1
f 6/3/1 2/3/1 5/3/1
f 7/2/1 5/2/1 4/2/1
f 8/2/1 5/2/1 7/2/1
f 11/3/1 10/3/1 9/3/1
f 12/3/1 10/3/1 11/3/1
f 13/3/1 11/3/1 9/3/1
f 14/3/1 11/3/1 13/3/1
f 15/3/1 10/3/1 12/3/1
f 16/3/1 10/3/1 15/3/1
f 17/2/1 15/2/1 14/2/1
f 18/2/1 15/2/1 17/2/1
f 27/3/1 20/3/1 19/3/1
f 28/3/1 20/3/1 27/3/1
f 29/3/1 22/3/1 21/3/1
f 30/3/1 22/3/1 29/3/1
f 33/3/1 24/3/1 23/3/1
f 34/3/1 24/3/1 33/3/1
f 35/3/1 26/3/1 25/3/1
f 36/3/1 26/3/1 35/3/1
f 37/4/1 32/4/1 31/4/1
f 38/4/1 32/4/1 37/4/1
f 45/4/1 40/4/1 39/4/1
f 46/4/1 40/4/1 45/4/1
f 52/3/1 42/3/1 41/3/1
f 53/3/1 42/3/1 52/3/1
f 54/3/1 44/3/1 43/3/1
f 55/4/1 45/4/1 44/4/1
f 55/3/1 44/3/1 54/3/1
f 56/3/1 48/3/1 47/3/1
f 56/4/1 47/4/1 46/4/1
f 57/3/1 48/3/1 56/3/1
f 58/3/1 50/3/1 49/3/1
f 59/3/1 50/3/1 58/3/1
f 61/2/1 52/2/1 51/2/1
f 62/2/1 52/2/1 61/2/1
f 63/2/1 54/2/1 53/2/1
f 64/2/1 54/2/1 63/2/1
f 65/4/1 45/4/1 55/4/1
f 66/4/1 45/4/1 65/4/1
f 67/4/1 56/4/1 46/4/1
f 68/4/1 56/4/1 67/4/1
f 69/2/1 58/2/1 57/2/1
f 70/2/1 58/2/1 69/2/1
f 71/2/1 60/2/1 59/2/1
f 72/2/1 60/2/1 71/2/1
f 73/1/1 67/1/1 66/1/1
f 74/1/1 67/1/1 73/1/1
f 77/3/1 76/3/1 75/3/1
f 78/3/1 76/3/1 77/3/1
f 79/3/1 77/3/1 75/3/1
f 80/3/1 77/3/1 79/3/1
f 81/3/1 76/3/1 78/3/1
f 82/3/1 76/3/1 81/3/1
f 83/2/1 81/2/1 80/2/1
f 84/2/1 81/2/1 83/2/1
f 87/3/1 86/3/1 85/3/1
f 88/3/1 86/3/1 87/3/1
f 89/3/1 87/3/1 85/3/1
f 90/3/1 87/3/1 89/3/1
f 91/3/1 86/3/1 88/3/1
f 92/3/1 86/3/1 91/3/1
f 93/2/1 91/2/1 90/2/1
f 94/2/1 91/2/1 93/2/1
f 95/3/2 96/3/2 97/3/2
f 97/3/2 96/3/2 98/3/2
f 95/3/2 97/3/2 99/3/2
f 99/3/2 97/3/2 100/3/2
f 98/3/2 96/3/2 101/3/2
f 101/3/2 96/3/2 102/3/2
f 100/2/2 101/2/2 103/2/2
f 103/2/2 101/2/2 104/2/2
f 105/3/2 106/3/2 107/3/2
f 107/3/2 106/3/2 108/3/2
f 105/3/2 107/3/2 109/3/2
f 109/3/2 107/3/2 110/3/2
f 108/3/2 106/3/2 111/3/2
f 111/3/2 106/3/2 112/3/2
f 110/2/2 111/2/2 113/2/2
f 113/2/2 111/2/2 114/2/2
f 115/4/2 116/4/2 121/4/2
f 121/4/2 116/4/2 122/4/2
f 117/3/2 118/3/2 128/3/2
f 128/3/2 118/3/2 129/3/2
f 119/3/2 120/3/2 130/3/2
f 120/4/2 121/4/2 131/4/2
f 130/3/2 120/3/2 131/3/2
f 123/3/2 124/3/2 132/3/2
f 122/4/2 123/4/2 132/4/2
f 132/3/2 124/3/2 133/3/2
f 125/3/2 126/3/2 134/3/2
f 134/3/2 126/3/2 135/3/2
f 127/2/2 128/2/2 137/2/2
f 137/2/2 128/2/2 138/2/2
f 129/2/2 130/2/2 139/2/2
f 139/2/2 130/2/2 140/2/2
f 131/4/2 121/4/2 141/4/2
f 141/4/2 121/4/2 142/4/2
f 122/4/2 132/4/2 143/4/2
f 143/4/2 132/4/2 144/4/2
f 133/2/2 134/2/2 145/2/2
f 145/2/2 134/2/2 146/2/2
f 135/2/2 136/2/2 147/2/2
f 147/2/2 136/2/2 148/2/2
f 142/1/2 143/1/2 149/1/2
f 149/1/2 143/1/2 150/1/2
f 151/3/2 152/3/2 159/3/2
f 159/3/2 152/3/2 160/3/2
f 153/3/2 154/3/2 161/3/2
f 161/3/2 154/3/2 162/3/2
f 155/3/2 156/3/2 165/3/2
f 165/3/2 156/3/2 166/3/2
f 157/3/2 158/3/2 167/3/2
f 167/3/2 158/3/2 168/3/2
f 163/4/2 164/4/2 169/4/2
f 169/4/2 164/4/2 170/4/2
f 171/3/2 172/3/2 173/3/2
f 173/3/2 172/3/2 174/3/2
f 171/3/2 173/3/2 175/3/2
f 175/3/2 173/3/2 176/3/2
f 174/3/2 172/3/2 177/3/2
f 177/3/2 172/3/2 178/3/2
f 176/2/2 177/2/2 179/2/2
f 179/2/2 177/2/2 180/2/2
f 181/3/2 182/3/2 183/3/2
f 183/3/2 182/3/2 184/3/2
f 184/3/2 182/3/2 185/3/2
f 185/3/2 182/3/2 186/3/2
f 184/2/2 185/2/2 187/2/2
f 187/2/2 185/2/2 188/2/2
f 191/3/3 190/3/3 189/3/3
f 193/3/3 191/3/3 189/3/3
f 193/2/3 192/2/3 191/2/3
f 194/2/3 192/2/3 193/2/3
f 195/3/3 193/3/3 189/3/3
f 196/3/3 193/3/3 195/3/3
f 199/3/3 198/3/3 197/3/3
f 200/3/3 198/3/3 199/3/3
f 202/3/3 199/3/3 197/3/3
f 203/2/3 201/2/3 200/2/3
f 204/2/3 201/2/3 203/2/3
f 205/3/3 202/3/3 197/3/3
f 205/3/3 203/3/3 202/3/3
f 206/3/3 203/3/3 205/3/3
f 209/3/3 208/3/3 207/3/3
f 210/3/3 208/3/3 209/3/3
f 213/3/3 212/3/3 211/3/3
f 214/3/3 212/3/3 213/3/3
f 217/4/3 216/4/3 215/4/3
f 218/4/3 216/4/3 217/4/3
f 221/3/3 220/3/3 219/3/3
f 222/3/3 220/3/3 221/3/3
f 225/3/3 224/3/3 223/3/3
f 226/3/3 224/3/3 225/3/3
f 230/2/3 228/2/3 227/2/3
f 231/2/3 228/2/3 230/2/3
f 232/3/3 230/3/3 229/3/3
f 233/3/3 230/3/3 232/3/3
f 236/2/3 234/2/3 233/2/3
f 237/2/3 234/2/3 236/2/3
f 238/3/3 236/3/3 235/3/3
f 239/3/3 236/3/3 238/3/3
f 242/4/3 239/4/3 238/4/3
f 242/4/3 240/4/3 239/4/3
f 243/4/3 240/4/3 242/4/3
f 245/4/3 242/4/3 241/4/3
f 246/4/3 242/4/3 245/4/3
f 247/1/3 244/1/3 243/1/3
f 248/1/3 244/1/3 247/1/3
f 249/4/3 247/4/3 246/4/3
f 250/4/3 247/4/3 249/4/3
f 251/4/3 247/4/3 250/4/3
f 252/3/3 250/3/3 249/3/3
f 253/3/3 250/3/3 252/3/3
f 256/2/3 254/2/3 253/2/3
f 257/2/3 254/2/3 256/2/3
f 258/3/3 256/3/3 255/3/3
f 259/3/3 256/3/3 258/3/3
f 261/2/3 260/2/3 259/2/3
f 262/2/3 260/2/3 261/2/3
f 265/3/3 264/3/3 263/3/3
f 266/3/3 264/3/3 265/3/3
f 268/3/3 265/3/3 263/3/3
f 269/2/3 267/2/3 266/2/3
f 270/2/3 267/2/3 269/2/3
f 271/3/3 268/3/3 263/3/3
f 271/3/3 269/3/3 268/3/3
f 272/3/3 269/3/3 271/3/3
f 275/3/3 274/3/3 273/3/3
f 276/3/3 274/3/3 275/3/3
f 278/3/3 275/3/3 273/3/3
f 279/2/3 277/2/3 276/2/3
f 280/2/3 277/2/3 279/2/3
f 281/3/3 278/3/3 273/3/3
f 281/3/3 279/3/3 278/3/3
f 282/3/3 279/3/3 281/3/3
f 283/3/4 284/3/4 285/3/4
f 285/3/4 284/3/4 286/3/4
f 283/3/4 285/3/4 288/3/4
f 286/2/4 287/2/4 289/2/4
f 289/2/4 287/2/4 290/2/4
f 283/3/4 288/3/4 291/3/4
f 288/3/4 289/3/4 291/3/4
f 291/3/4 289/3/4 292/3/4
f 293/3/4 294/3/4 295/3/4
f 295/3/4 294/3/4 296/3/4
f 293/3/4 295/3/4 298/3/4
f 296/2/4 297/2/4 299/2/4
f 299/2/4 297/2/4 300/2/4
f 293/3/4 298/3/4 301/3/4
f 298/3/4 299/3/4 301/3/4
f 301/3/4 299/3/4 302/3/4
f 303/2/4 304/2/4 306/2/4
f 306/2/4 304/2/4 307/2/4
f 305/3/4 306/3/4 308/3/4
f 308/3/4 306/3/4 309/3/4
f 309/2/4 310/2/4 312/2/4
f 312/2/4 310/2/4 313/2/4
f 311/3/4 312/3/4 314/3/4
f 314/3/4 312/3/4 315/3/4
f 314/4/4 315/4/4 318/4/4
f 315/4/4 316/4/4 318/4/4
f 318/4/4 316/4/4 319/4/4
f 317/4/4 318/4/4 321/4/4
f 321/4/4 318/4/4 322/4/4
f 319/1/4 320/1/4 323/1/4
f 323/1/4 320/1/4 324/1/4
f 322/4/4 323/4/4 325/4/4
f 325/4/4 323/4/4 326/4/4
f 326/4/4 323/4/4 327/4/4
f 325/3/4 326/3/4 328/3/4
f 328/3/4 326/3/4 329/3/4
f 329/2/4 330/2/4 332/2/4
f 332/2/4 330/2/4 333/2/4
f 331/3/4 332/3/4 334/3/4
f 334/3/4 332/3/4 335/3/4
f 335/2/4 336/2/4 337/2/4
f 337/2/4 336/2/4 338/2/4
f 339/3/4 340/3/4 341/3/4
f 341/3/4 340/3/4 342/3/4
f 343/3/4 344/3/4 345/3/4
f 345/3/4 344/3/4 346/3/4
f 347/4/4 348/4/4 349/4/4
f 349/4/4 348/4/4 350/4/4
f 351/3/4 352/3/4 353/3/4
f 353/3/4 352/3/4 354/3/4
f 355/3/4 356/3/4 357/3/4
f 357/3/4 356/3/4 358/3/4
f 359/3/4 360/3/4 361/3/4
f 361/3/4 360/3/4 362/3/4
f 359/3/4 361/3/4 364/3/4
f 362/2/4 363/2/4 365/2/4
f 365/2/4 363/2/4 366/2/4
f 359/3/4 364/3/4 367/3/4
f 364/3/4 365/3/4 367/3/4
f 367/3/4 365/3/4 368/3/4
f 369/3/4 370/3/4 371/3/4
f 369/3/4 371/3/4 373/3/4
f 371/2/4 372/2/4 373/2/4
f 373/2/4 372/2/4 374/2/4
f 369/3/4 373/3/4 375/3/4
f 375/3/4 373/3/4 376/3/4
f 379/3/5 378/3/5 377/3/5
f 380/3/5 378/3/5 379/3/5
f 383/3/5 382/3/5 381/3/5
f 384/3/5 382/3/5 383/3/5
f 395/4/5 394/4/5 393/4/5
f 396/4/5 394/4/5 395/4/5
f 397/3/5 386/3/5 385/3/5
f 398/3/5 386/3/5 397/3/5
f 399/3/5 388/3/5 387/3/5
f 400/3/5 388/3/5 399/3/5
f 401/3/5 390/3/5 389/3/5
f 402/3/5 390/3/5 401/3/5
f 403/3/5 392/3/5 391/3/5
f 404/3/5 392/3/5 403/3/5
f 407/3/5 406/3/5 405/3/5
f 408/3/5 406/3/5 407/3/5
f 411/3/5 410/3/5 409/3/5
f 412/3/5 410/3/5 411/3/5
f 415/3/5 414/3/5 413/3/5
f 416/3/5 414/3/5 415/3/5
f 419/3/5 418/3/5 417/3/5
f 420/3/5 418/3/5 419/3/5
f 425/4/5 420/4/5 419/4/5
f 426/4/5 420/4/5 425/4/5
f 431/3/5 422/3/5 421/3/5
f 432/3/5 422/3/5 431/3/5
f 433/3/5 424/3/5 423/3/5
f 434/4/5 425/4/5 424/4/5
f 434/3/5 424/3/5 433/3/5
f 435/4/5 425/4/5 434/4/5
f 436/4/5 427/4/5 426/4/5
f 437/3/5 428/3/5 427/3/5
f 437/4/5 427/4/5 436/4/5
f 438/3/5 428/3/5 437/3/5
f 439/3/5 430/3/5 429/3/5
f 440/3/5 430/3/5 439/3/5
f 441/4/5 436/4/5 435/4/5
f 442/4/5 436/4/5 441/4/5
f 443/3/5 442/3/5 441/3/5
f 444/3/5 442/3/5 443/3/5
f 447/3/5 446/3/5 445/3/5
f 448/3/5 446/3/5 447/3/5
f 449/3/6 450/3/6 453/3/6
f 453/3/6 450/3/6 454/3/6
f 451/3/6 452/3/6 455/3/6
f 455/3/6 452/3/6 456/3/6
f 454/3/6 455/3/6 458/3/6
f 458/3/6 455/3/6 459/3/6
f 457/3/6 458/3/6 461/3/6
f 461/3/6 458/3/6 462/3/6
f 459/3/6 460/3/6 463/3/6
f 463/3/6 460/3/6 464/3/6
f 462/3/6 463/3/6 469/3/6
f 469/3/6 463/3/6 470/3/6
f 465/3/6 466/3/6 475/3/6
f 475/3/6 466/3/6 476/3/6
f 467/3/6 468/3/6 477/3/6
f 477/3/6 468/3/6 478/3/6
f 471/3/6 472/3/6 481/3/6
f 481/3/6 472/3/6 482/3/6
f 473/3/6 474/3/6 483/3/6
f 483/3/6 474/3/6 484/3/6
f 476/3/6 477/3/6 486/3/6
f 486/3/6 477/3/6 487/3/6
f 478/3/6 479/3/6 488/3/6
f 488/3/6 479/3/6 489/3/6
f 480/3/6 481/3/6 490/3/6
f 490/3/6 481/3/6 491/3/6
f 482/3/6 483/3/6 492/3/6
f 492/3/6 483/3/6 493/3/6
f 485/3/6 486/3/6 495/3/6
f 495/3/6 486/3/6 496/3/6
f 487/3/6 488/3/6 497/3/6
f 497/3/6 488/3/6 498/3/6
f 491/3/6 492/3/6 501/3/6
f 501/3/6 492/3/6 502/3/6
f 493/3/6 494/3/6 503/3/6
f 503/3/6 494/3/6 504/3/6
f 499/3/6 500/3/6 506/3/6
f 506/3/6 500/3/6 507/3/6
f 505/3/6 506/3/6 509/3/6
f 509/3/6 506/3/6 510/3/6
f 507/3/6 508/3/6 511/3/6
f 511/3/6 508/3/6 512/3/6
f 510/3/6 511/3/6 514/3/6
f 514/3/6 511/3/6 515/3/6
f 513/3/6 514/3/6 517/3/6
f 517/3/6 514/3/6 518/3/6
f 515/3/6 516/3/6 519/3/6
f 519/3/6 516/3/6 520/3/6
f 521/2/6 522/2/6 523/2/6
f 523/2/6 522/2/6 524/2/6
f 525/2/6 526/2/6 527/2/6
f 527/2/6 526/2/6 528/2/6
f 529/4/6 530/4/6 536/4/6
f 536/4/6 530/4/6 537/4/6
f 531/2/6 532/2/6 543/2/6
f 543/2/6 532/2/6 544/2/6
f 533/2/6 534/2/6 545/2/6
f 545/2/6 534/2/6 546/2/6
f 535/4/6 536/4/6 547/4/6
f 547/4/6 536/4/6 548/4/6
f 537/4/6 538/4/6 549/4/6
f 549/4/6 538/4/6 550/4/6
f 539/2/6 540/2/6 551/2/6
f 551/2/6 540/2/6 552/2/6
f 541/2/6 542/2/6 553/2/6
f 553/2/6 542/2/6 554/2/6
f 548/4/6 549/4/6 555/4/6
f 555/4/6 549/4/6 556/4/6
f 557/2/6 558/2/6 559/2/6
f 559/2/6 558/2/6 560/2/6
f 561/2/6 562/2/6 563/2/6
f 563/2/6 562/2/6 564/2/6
f 565/1/6 566/1/6 567/1/6
f 567/1/6 566/1/6 568/1/6
