# MagicaVoxel @ Ephtracy

# group
o Wall-InnerCorner

# material
mtllib Dungeon-13-Wall-InnerCorner.mtl
usemtl palette

# normals
vn -1 0 0
vn 1 0 0
vn 0 0 1
vn 0 0 -1
vn 0 -1 0
vn 0 1 0

# texcoords
vt 0.373047 0.5
vt 0.673828 0.5

# verts
v -0.8 0 0.7
v -0.8 0 0.5
v -0.8 0 -0.8
v -0.8 1.6 0.7
v -0.8 1.6 0.5
v -0.8 1.6 -0.8
v -0.7 0 0.8
v -0.7 0 0.7
v -0.7 1.6 0.8
v -0.7 1.6 0.7
v 0.8 0 0.8
v 0.8 0 -0.8
v 0.8 1.6 0.8
v 0.8 1.6 -0.8
v -0.7 0 0.8
v -0.7 1.6 0.8
v -0.5 0 0.8
v -0.5 1.6 0.8
v 0.8 0 0.8
v 0.8 1.6 0.8
v -0.8 0 0.7
v -0.8 1.6 0.7
v -0.7 0 0.7
v -0.7 1.6 0.7
v -0.8 0 -0.8
v -0.8 1.6 -0.8
v 0.8 0 -0.8
v 0.8 1.6 -0.8
v -0.7 0 0.8
v -0.5 0 0.8
v 0.8 0 0.8
v -0.8 0 0.7
v -0.7 0 0.7
v -0.8 0 0.5
v -0.5 0 0.5
v -0.8 0 -0.8
v 0.8 0 -0.8
v -0.7 1.6 0.8
v -0.5 1.6 0.8
v 0.8 1.6 0.8
v -0.8 1.6 0.7
v -0.7 1.6 0.7
v -0.8 1.6 0.5
v -0.5 1.6 0.5
v -0.8 1.6 -0.8
v 0.8 1.6 -0.8

# faces
f 4/1/1 2/1/1 1/1/1
f 5/2/1 3/2/1 2/2/1
f 5/1/1 2/1/1 4/1/1
f 6/2/1 3/2/1 5/2/1
f 9/1/1 8/1/1 7/1/1
f 10/1/1 8/1/1 9/1/1
f 11/2/2 12/2/2 13/2/2
f 13/2/2 12/2/2 14/2/2
f 17/1/3 16/1/3 15/1/3
f 18/1/3 16/1/3 17/1/3
f 19/2/3 18/2/3 17/2/3
f 20/2/3 18/2/3 19/2/3
f 23/1/3 22/1/3 21/1/3
f 24/1/3 22/1/3 23/1/3
f 25/2/4 26/2/4 27/2/4
f 27/2/4 26/2/4 28/2/4
f 33/1/5 30/1/5 29/1/5
f 34/1/5 33/1/5 32/1/5
f 35/2/5 31/2/5 30/2/5
f 35/1/5 33/1/5 34/1/5
f 35/1/5 30/1/5 33/1/5
f 36/2/5 35/2/5 34/2/5
f 37/2/5 31/2/5 35/2/5
f 37/2/5 35/2/5 36/2/5
f 38/1/6 39/1/6 42/1/6
f 41/1/6 42/1/6 43/1/6
f 39/2/6 40/2/6 44/2/6
f 43/1/6 42/1/6 44/1/6
f 42/1/6 39/1/6 44/1/6
f 43/2/6 44/2/6 45/2/6
f 44/2/6 40/2/6 46/2/6
f 45/2/6 44/2/6 46/2/6
